<svg xmlns="http://www.w3.org/2000/svg" width="600" height="600" viewBox="0 0 600 600">
  <metadata><?xpacket begin="﻿" id="W5M0MpCehiHzreSzNTczkc9d"?>
<x:xmpmeta xmlns:x="adobe:ns:meta/" x:xmptk="Adobe XMP Core 5.6-c142 79.160924, 2017/07/13-01:06:39        ">
   <rdf:RDF xmlns:rdf="http://www.w3.org/1999/02/22-rdf-syntax-ns#">
      <rdf:Description rdf:about=""/>
   </rdf:RDF>
</x:xmpmeta>
                                                                                                    
                                                                                                    
                                                                                                    
                                                                                                    
                                                                                                    
                                                                                                    
                                                                                                    
                                                                                                    
                                                                                                    
                                                                                                    
                                                                                                    
                                                                                                    
                                                                                                    
                                                                                                    
                                                                                                    
                                                                                                    
                                                                                                    
                                                                                                    
                                                                                                    
                                                                                                    
                           
<?xpacket end="w"?></metadata>
<defs>
    <style>
      .cls-1 {
        fill: #c6c6bc;
      }

      .cls-1, .cls-2, .cls-3, .cls-4, .cls-5, .cls-6 {
        fill-rule: evenodd;
      }

      .cls-3 {
        fill: #919288;
      }

      .cls-4 {
        fill: #575850;
      }

      .cls-5 {
        fill: #6d6e65;
      }

      .cls-6 {
        fill: #1c1e1c;
      }
    </style>
  </defs>
  <path id="Color_Fill_1" data-name="Color Fill 1" class="cls-1" d="M132,189c0.752,1.073.6,0.946,1,3h-1v-3Zm10,0c0.752,1.073.6,0.946,1,3h-1v-3Zm7,2,2,2C148.318,193.9,147.661,192.386,149,191Zm-17,1c-0.828,3.245.49,1.528-2,3v-2a2.834,2.834,0,0,1-1-1h3Zm83,17c0.961,5.608,2.218,15.5,0,18-1.021.8-.274,0.355-2,1,0,0-.438-3.971-1-2v1a18.711,18.711,0,0,0-3,5h1v-1c0.775-1.923,1,2,1,2-3.362,1.236-3.465,1.985-4,6,2.457-.287.482-0.659,3,0a17.682,17.682,0,0,1-2,4c-1.12-2.873-.174-1.842-3-3,0.245,4.412.534,4.436,0,8a2.834,2.834,0,0,1-1-1c-0.474-.917.089-2.294-1-4-2.29,2.374-2.758.675-5,2-0.752,1.073-.6.946-1,3a12.662,12.662,0,0,0,4-1v4c-0.8,1.021-.355.274-1,2-2.8.916-5.24,0.81-8,3,2.82,2.142-.843,6.661-2,11-3.09.094-6.33,0.14-8-1,2.873-1.12,1.842-.174,3-3-3.772.067-1.823,0.544-5-1-0.074,2.532-.12,3.716-1,5-0.115-3.676-.209-7.48-1-9-1.038,3.081-.967,2.918-4,4,0.127-3.486.381-10.782-1-12-1.821,3.087-4,3.926-5,5h-1c1,2.748,1.44,2.195,3,4-3.042-.075-2.744-0.756-4,0h1c0.417,1.956-1.536.72,0,2v1c2.281-1.225,2.251-1.638,6-2v2c-1.314,2.773-.056,2.069,1,5H163c-0.835-.415-17.2-0.47-18,0-0.8,1.021-.355.274-1,2,12.12-.2,13.418,4.472,20,9-0.058,2.906-.964,1.389,0,3,1.845,1.138,1.87.195,4,1,0.9,3.481-.918,7.045,2,9,1.288,1.416,1.171-.1,3-1,0.828,3.245-.49,1.528,2,3,0.555-1.3.03-.741,1-1,2.6,3.077-.618,3.643,4,5a2.834,2.834,0,0,1,1-1c0.082,3.108.416,3.825,2,5v-1l2,1c1.667,3.3.411,4.121,4,5v5h-2a24.963,24.963,0,0,1-4-2c0.518,2.206,1.128,1.984,0,4-1.021-.8-0.274-0.355-2-1,0.079-4.052,1.636-2.386-1-4-0.631,1.754-.193.971-1,2,1,6.394.872,5.914,1,14h-2c-0.18-4.458-.19-7.161-1-10h-2q-0.5,2.5-1,5c-3.33-.274-1.66-0.373-5,0,1.021,0.8.274,0.355,2,1,1.073,0.752.946,0.6,3,1q0.5-2,1-4h1v3c-1.128,1.874-.014,3.532-2,6-3.368-2.556-6.22,2.509-10,4-0.152.06-3.43-1.018-5-1-0.372,2.076-.242,1.924-1,3a24.5,24.5,0,0,1-3,3c-1.51-1.858-2.775-1.715-4-4,1.754-.631.971-0.193,2-1h-3c-1.224,2.057-1.649,2.912-4,4-0.9-4.2-2.273-5.791-5-8-1.073.752-.946,0.6-3,1-0.933-4.5-2.261-3.1-3-8h-3c1.05-4.8,2.884-3.225,4-8h-2v1c-2.031,1.638.7,1.166-2,2-1.18.8-1.681,0.773-4,1v-3c3.643-1.45,3.218-3.568,7-5,1.624,1.5,2.023,1.552,5,2-0.372-2.076-.242-1.924-1-3-2.009-1.186-3.327-.129-5-1-0.872-.74-1.128-1.26-2-2,0.74-.872,1.26-1.128,2-2-1.647-1.432-2.693-4.292-2-6,1.295-2.467-.429-0.681,2-2,0.771,0.682,2.232,1.311,3,2-1.042,1.733-.776,2.592-1,6a16.888,16.888,0,0,0,6-2c1.635-1.546-.859-2.106,4-3,1.455,2.542-.217,1.128,3,2v-6h1c1.35,1.624.64,1.121,3,2v-1c-2.389-.842-1.645-0.4-3-2a10.925,10.925,0,0,0,3-2h-4v3c-2.424.906-1.59,1.069-4,2-2.384-4.695-7.619-4.366-10-6-0.961-1.418-.976-3.273-1-6,3.508-1.723,2.665-3.833,7-5,0.066,4.351.272,1.991,2,6-2.076.372-1.924,0.242-3,1,3.245,0.828,1.528-.49,3,2l-3-1v3l5-1v1c-1.665,1.493-1.017.725-1,2,0.9,0.643,1.976.3,4,1a52.658,52.658,0,0,0-3-8h1v-1l4,2c0.9-2.189.862-1.443,2-3-6.157-2.564-4.684-3.609-7-9h-1c-0.195,2.328-.193,2.826-1,4v-1c-0.682-.771-1.311-2.232-2-3v1c-1.5,1.552-.777,1.838-3,3,0.029-2,1.023-.282,0-2-1.065.778-3.692,1.489-5,2a14.124,14.124,0,0,1,1,4h-2c-4.373-2.42-12.391,3.3-17,4v-2h1c0.771-.682,2.232-1.311,3-2-6.026.521-8.213,0.579-14,1,0.881-5.128.415-4.491-2-8,3.568-.593,3.367-0.733,5-3a6.1,6.1,0,0,1-2-2h1v-1c2.281,1.225,2.251,1.638,6,2,0.017-2.845-.788-0.392,1-3l-6,1v-5a10.965,10.965,0,0,0,5-2c-5.666.173-7.446,1.847-12,3v-1c3.856-2.616,4.147-3.236,4-8-2.467-1.295-.681.429-2-2,3.182,0.007,2.409,1.2,3-3-0.877-1.295-.894-2.467-1-5-2.962-.639-3.69-0.595-5-3,0.877-1.295.894-2.467,1-5,3.245-.828,1.528.49,3-2-0.877-1.295-.894-2.467-1-5h1c1.5,4.077,6.282,5.165,10,4,0.239,3.377-.085,4.312,1,6,0.595-1.649,2.224-2.862,5-4-1.133-1.546-1.085-.843-2-3,3.081-1.038,2.918-.967,4-4-2.326-1.135-3.316-2.138-6-3-1.3,2.467.429,0.681-2,2a12.662,12.662,0,0,0-1-4c3.817-.048,4.212.92,6,0,0.542-1.214.553-4.811,2-7h-1v-1c-1.9,1.34-.874,1.283-4,2a7.676,7.676,0,0,0,0-6h-1c-0.828,3.245.49,1.528-2,3-2.044-3.813-2.335.18-4-3,1.546-1.133.843-1.085,3-2,1.607,2.743-.051.971,4,1a12.662,12.662,0,0,1,1-4h-1c-1.073.752-.946,0.6-3,1v-5h1v-1c4.18-.233,10.8-0.449,12-3-2.356-1.1-1.78-.959-3-3h2c1.32,0.064,4.927,1.664,9,1-0.392,2.933-1.636,1.253,1,3v-1a2.834,2.834,0,0,0,1-1c-2.224-2-.944-1.961-2-5h4c0,2.883,2.074,6.144,7,7,1.35-1.624.64-1.121,3-2v2h1c0.417,1.956-1.536.72,0,2,2.4,1.5,2.376-1.236,4,2-1.624,1.35-1.121.64-2,3,3.764,0.142,3.515-.472,5,2-3.517,3.785-2.735,8.867-4,14h1c1.905-.933,1.169-0.379,4,0,1.119-5.638,2.476-1.873,4-5,0,0-3.908-.195-2-1h2c2.035-1.934,9.015-9.094,11-10,4.827-2.2,4.838,2.412,7-1a2.834,2.834,0,0,0,1-1c-3.245-.828-1.528.49-3-2l5-1c1.323-.024,3.755,1.638,8,2-0.212-3.346-2.153-2.4,1-4,0.629-.282,4.181.152,6-1a6.1,6.1,0,0,1-2-2h2a6.1,6.1,0,0,0,2,2l-3,4a13.165,13.165,0,0,1,5,1c1.221,2.141.388,2.77,0,6h1c1.021-.8.274-0.355,2-1,0.142-3.764-.472-3.515,2-5-0.768,3.751,1.348,6.9,2,11,2.364-1.383,4.251-.3,5-1a2.834,2.834,0,0,0,1-1c-2.305-1.345-1.823-1.219-2-2C213.073,209.248,212.946,209.4,215,209Zm-96-15c3.245,0.828,1.528-.49,3,2h-1v1A11.568,11.568,0,0,1,119,194Zm31,0c0.859,1.883.474,0.738,0,3h-1Q149.5,195.5,150,194Zm34,4a17.682,17.682,0,0,1,4,2h-4v-2Zm17,2c0.8,1.021.355,0.274,1,2h-1v-2Zm-55,1c0.372,2.076.242,1.924,1,3C146.628,201.924,146.758,202.076,146,201Zm-30,2v2h1C116.369,203.246,116.807,204.029,116,203Zm7,0c0.737,3.366-.614,2.874,2,4v-4h-2Zm59,1v2h1C182.369,204.246,182.807,205.029,182,204Zm136,62c-15.964-.087-34.181-1.352-46,1v-1c2.083-2.183,2.488-4.188-1-6-0.195,2.328-.193,2.826-1,4-2.377-2.252-.35-1.092-4-1,0.392,2.933,1.636,1.253-1,3-4.949,3.067-41.439,1.431-47-2v1a6.1,6.1,0,0,1,2,2h-2c-0.632-.249-3.8-0.088-7,0v3c1.766,0.961,1.68,1.257,4,2v-1a10.925,10.925,0,0,1-3-2,59.29,59.29,0,0,1,11,1q1,3.5,2,7c-3.081,1.038-2.918.967-4,4h3c-0.392-2.933-1.636-1.253,1-3v14h-1v1h-1v-1c-3.04-3.7-2.864-7.415-4-11h-2v1a6.1,6.1,0,0,1,2,2,12.662,12.662,0,0,0-4,1c0.788,1.725,2.627,1.84,1,3l-1,2h-1v-1c-4.418-2.868-5.089-6.265-7-9-0.555,1.3-.03.741-1,1-4.258-3.073-7.261-7.428-8-12h2v2c0.668,0.6,2.532-3.2,5-2l1,3h2c0.667-3.3,1-2.339,2-5H199q-0.5-2.5-1-5h1a10.315,10.315,0,0,0,5,4v-3c-3.245-.828-1.528.49-3-2,6.014-3.763,11.768-12.15,19-13,1.183,2.067.684,1.882,3,3v-2h1c0.417-1.956-1.536-.72,0-2v-1c2.424,0.906,1.59,1.069,4,2,0.422-1.27,7.717-9.515,10-11,2.036-1.325,3.456,2.854,6-1-3.1-1.224-2.261-.375-3-4,4.638-1.43,6.457-4.6,10-7v3c-1.665,1.493-1.017.725-1,2,1.021,0.8.274,0.355,2,1,1.183-2.64,4.022-1.165,6-5h-2c-1.35,1.624-.64,1.121-3,2v-3c3.122-.722,7.85-5.793,12-4,0.331,0.143,1.284,2.19,4,3,0.315-2.724,8.6-8.576,13-7v-1c-0.8-1.021-.355-0.274-1-2,2.606-1.191,7.6-4.375,10-5,4.885-1.272,4.187,3.147,9,0,1.43-2.085.627-3.563,3-5,5.3,4.816,8.873,6.768,16,5-0.147,3.31-.044,4.3,5,5-0.392-2.933-1.636-1.253,1-3,1.3,2.467-.429.681,2,2-0.312,3.315,1.951,4.848,1,8h-1a7.234,7.234,0,0,0-1,4c0,0.046,1.594,3.22,1,5-0.223.668-2.9,1.792-3,2-1.221,2.459,1.76,1.451,2,3-3.649,9.829-4.909,10.6-2,20C322.281,258.927,318.946,261.465,318,266ZM193,205v2h1C193.369,205.246,193.807,206.029,193,205Zm15,0c2.305,1.345,1.823,1.219,2,2-1.021.8-.274,0.355-2,1v-3Zm87,0a14.338,14.338,0,0,1,5,1v1h-5v-2Zm-176,1c-0.708,2.347-1.025,2.234-2,4,2.61,1.256,2.109,1.063,3,4,0.8-1.021.355-.274,1-2,1.4-2.24.545-3.276,0-6h-2Zm185,0a21.42,21.42,0,0,0,2,5h1C306.407,207.432,306.267,207.633,304,206Zm-155,1v2h1v-2h-1Zm-23,3v2h1v-2h-1Zm183,0v2h1C309.369,210.246,309.807,211.029,309,210Zm-160,1c1.021,0.8.274,0.355,2,1C149.979,211.2,150.726,211.645,149,211Zm21,0v2h3v-1Zm5,1v1h-1c-1.923.775,2,1,2,1a2.834,2.834,0,0,1,1-1C175.979,212.2,176.726,212.645,175,212Zm118,0c0.586,0.8-.605,1.282,1,3C295.7,213.043,294.333,213.27,293,212Zm-95,2v2h1v-2h-1Zm15,1v2h1v-2h-1Zm71,0v2h1v-2h-1Zm-140,2v1h-1c-1.923.775,2,1,2,1C144.369,217.246,144.807,218.029,144,217Zm177,0c0.558,2.117-.174,1.819,1,3C323.387,217.54,322.384,218.723,321,217Zm-207,1c3.245,0.828,1.528-.49,3,2-0.8,1.021-.355.274-1,2-5.912.264-2.86,1.06-6,2-0.74-.872-1.26-1.128-2-2h2C111.271,220.315,112.729,219.684,114,218Zm9,0c1.021,0.8.274,0.355,2,1C123.979,218.2,124.726,218.645,123,218Zm63,0-2,5h2c1.552-1.5,1.838-.777,3-3C185.566,218.9,189.5,218.87,186,218Zm-66,1q0.5,1.5,1,3h2v-2h-1C120.979,219.2,121.726,219.645,120,219Zm171,1c1.021,0.8.274,0.355,2,1C291.979,220.2,292.726,220.645,291,220Zm28,0v2C320.609,220.812,320.224,221.582,319,220Zm-139,2v2a2.834,2.834,0,0,0,1-1h1C180.979,222.2,181.726,222.645,180,222Zm-80,1c2.61,1.256,2.109,1.063,3,4h-1v-1A11.568,11.568,0,0,1,100,223Zm273,0h2v2h-2v-2Zm-268,1c1.624,1.35,1.121.64,2,3h-1v-1C105.2,224.979,105.645,225.726,105,224Zm42,0c-0.328,1.384,1.419,1.451,2,2C149.7,224.937,147.276,224.3,147,224Zm56,0c1.021,0.8.274,0.355,2,1C203.979,224.2,204.726,224.645,203,224Zm164,1a12.662,12.662,0,0,0,1,4,2.834,2.834,0,0,0,1-1c1.5-1.552.777-1.838,3-3v1h1l-1,3c4.376,0.516,3.437,1.216,6,3v-3c-2.467-1.295-.681.429-2-2a2.834,2.834,0,0,0,1-1c1.754,0.631.971,0.193,2,1,2.485,1.348,2.757,3.376,5,5-0.212-3.346-2.153-2.4,1-4,1.3,2.375,2.88,5.352,5,7-1.225,2.281-1.638,2.251-2,6,2.588,0.278,1.775-.466,2,4-2.446,2.885-1.024,5.5-2,9,2.076,0.372,1.924.242,3,1-5.592,4.071-4.678,18.588-9,21-10.441-8.8-28.716-10.012-48-10-1.551-2.874-2.454-2.728-3-7,4.262-2.251,7.521-8.216,9-13,1.546,1.133.843,1.085,3,2v-2a6.1,6.1,0,0,1-2-2,9.257,9.257,0,0,0,4-3,6.1,6.1,0,0,1-2-2c2.779-1.582,2.057-3.478,5-5,3.012-2.183,7.632-1.6,8-2,0.566-.713,1.442-0.042,1-2h-1c-0.631-1.754-.193-0.971-1-2a6.1,6.1,0,0,1-2,2v-2c2.056-1.441,1.3-1.553,5-2,1.464,1.739.391,2.725,3,1v-2A43.271,43.271,0,0,0,367,225Zm-197,1v2h1v-2h-1Zm28,0c-0.771.682-2.232,1.311-3,2h1c1.359,1.262,1.768,1.365,4,2C199.448,226.864,199.79,227.567,198,226Zm-87,1c0.8,1.021.355,0.274,1,2h-1v-2Zm5,0h2v1h-1v1h-1v-2Zm23,0c1.021,0.8.274,0.355,2,1C139.979,227.2,140.726,227.645,139,227Zm121,0c0.372,2.076.242,1.924,1,3v-1a2.834,2.834,0,0,0,1-1Zm104,0v4h1v-1c0.8-1.021.355-.274,1-2Zm-233,1c1.021,0.8.274,0.355,2,1C131.979,228.2,132.726,228.645,131,228Zm3,1q-0.5,1-1,2C134.744,229.6,134,229,134,229Zm216,0h2v1h-1v1C350.2,229.979,350.645,230.726,350,229Zm19,1v2h2v-1Zm-246,2c-0.667,3.3-1,2.339-2,5h2v-1c2.553-1.041,2.925-1.483,4-4h-4Zm66,0a21.42,21.42,0,0,0,2,5h2v-3C190.653,233.292,190.766,232.975,189,232Zm184,0c-0.328,1.384,1.419,1.451,2,2C375.7,232.937,373.276,232.3,373,232Zm-208,1c1.133,1.546,1.085.843,2,3h-2v2h1c0.483,1.287,4.066,3.179,7,4v-1c-2.679-2.984-1.607-3.958,0-7a2.834,2.834,0,0,1-1-1c-1.766.961-1.68,1.257-4,2C166.65,233.376,167.36,233.879,165,233Zm86,0c1.021,0.8.274,0.355,2,1C251.979,233.2,252.726,233.645,251,233Zm76,0h2c-1,2.273-.745,2.774-3,4v-2C326.8,233.979,326.355,234.726,327,233ZM99,234c1.4,2.24.545,3.276,0,6H97v-2C98.829,236.432,98.4,237.118,99,234Zm79,0c-0.058,2.906-.964,1.389,0,3v1a2.834,2.834,0,0,0,1-1c0.8-1.021.355-.274,1-2Zm-49,1c0.759,2.631,1.2,2.385,2,5,0.8-1.021.355-.274,1-2,0.8-1.021.355-.274,1-2A12.662,12.662,0,0,1,129,235Zm32,0v2h1v-2h-1Zm14,1q-0.5,1-1,2C175.744,236.6,175,236,175,236Zm207,0v2h1C382.369,236.246,382.807,237.029,382,236Zm-279,1c1.183,2.067.684,1.882,3,3v-2Zm144,0q-0.5,2.5-1,5h1c0.506-3.188.872-2.92,2-5h-2Zm100,0c1.021,0.8.274,0.355,2,1C347.979,237.2,348.726,237.645,347,237Zm7,0c1.72,0.881,1.278.889,3,0h-3Zm-231,2c0.842,2.389.4,1.645,2,3v1c1.01,0.99.988-.985,1-1h1c-1.021-.8-0.274-0.355-2-1C123.705,238.533,125.429,240.319,123,239Zm55,0q-0.5,1.5-1,3h1v-1c0.775-1.923,1,2,1,2a6.1,6.1,0,0,0-2,2h3c0.644-.439,3.056-0.352,5-1v-1C180.529,242.141,181.334,240.587,178,239Zm170,0v2h1v-2h-1Zm-229,2c0.095,1.51-1.926,1.46,0,2h2C121.167,241.39,119.451,241.791,119,241Zm11,0v2h1v-2h-1Zm18,0c0.372,2.076.242,1.924,1,3v-1c0.8-1.021.355-.274,1-2h-2Zm41,0c1.021,0.8.274,0.355,2,1C189.979,241.2,190.726,241.645,189,241Zm48,1q-0.5,1-1,2C237.744,242.6,237,242,237,242Zm-77,1c1.021,0.8.274,0.355,2,1C160.979,243.2,161.726,243.645,160,243Zm26,0c1.66,1.116,1.069,1.77,2,0h-2Zm246,1c0.8,1.021.355,0.274,1,2l-4,1v-1h1C430.74,245.128,431.26,244.872,432,244Zm-268,1c-1.922,3.144-2.518,1.713-4,3,0.8,1.021.355,0.274,1,2a2.834,2.834,0,0,0,1-1l5-3v-1h-3Zm-27,1c0.842,2.389.4,1.645,2,3A10.925,10.925,0,0,0,137,246Zm32,0c1.021,0.8.274,0.355,2,1C169.979,246.2,170.726,246.645,169,246Zm8,4c2.076-.372,1.924-0.242,3-1-2.072-1.283-2.3-2.077-5-3v1C177.542,248.455,176.128,246.783,177,250Zm168-4c1.021,0.8.274,0.355,2,1C345.979,246.2,346.726,246.645,345,246Zm-243,1c0.35,0.3,2,.523,1,2C101.886,248.512,99.886,247.224,102,247Zm91,0c1.66,1.116,1.069,1.77,2,0h-2Zm-85,1q0.5,1.5,1,3h1v-3h-2Zm34,0a14.124,14.124,0,0,0-1,4,2.834,2.834,0,0,1,1,1l3-1v-1C143.505,249.448,144.223,249.162,142,248Zm11,1v2h1v-2h-1Zm270,0c3.245,0.828,1.528-.49,3,2h-2Zm5,0h3c-0.786,3.758-1.649,3.309-2,8h2v-2a19.54,19.54,0,0,0,2-4,17.682,17.682,0,0,1,4,2,35.212,35.212,0,0,1,3,5c2.906-.058,1.389-0.964,3,0,0.649-.86,1.338-3.144,2-4,0.86,0.649,3.144,1.338,4,2-2.648,1.478-2.892,4.176-4,7h2a26.159,26.159,0,0,1,7-5c0.631,1.754.193,0.971,1,2-0.528,3.123-2.869,10.959-2,12-0.73.823-2.5,0.816-3,2l1,3c-1.511,1.4-4.441-.2-6,6,2.328,0.195,2.826.193,4,1h-3c0.075,3.042.756,2.744,0,4-2.125,1.4-1.477,1.421-4,0v2c1.5,1.552.777,1.838,3,3,2.449-4.91,8.674.77,10-3-2.729-1.6-.824.157-1-3,3.95,0.023,2.169.719,4-3h1v1c0.546,1.771-1.992,4.5-1,5,0.944,0.532,3.662-.407,6,1v2l5-1c0.492,0.22,1.1,2.187,4,3v2c-3.686-.351-1.36-0.565-4,2-0.416-3.58.472-2.516-2-4,0.552,3.119.453,2.128-1,5,2.014,0.035,2.961.641,6,2a10.965,10.965,0,0,1,2-5v1c1.745,2.188,1.207,3.591,4,5,1.012-2.31,1.712-2.163,3-4a17.682,17.682,0,0,1,4,2c-2.467,1.3-.681-0.429-2,2h3c1.567-1.243.51-.642,2,0a11.568,11.568,0,0,1,2,3c-2.906-.058-1.389-0.964-3,0-0.752,1.073-.6.946-1,3,1.049,1.549,1.031,4.085,1,7,2.316,0.914,2.9,1.858,5,3-1.021.8-.274,0.355-2,1-1.216.745-.992,0.137-4,0v4c2.635,1.627,5.414,3.451,6,5,0.8,1.18.773,1.681,1,4h5v1h-1c-1.85,1.445-2.684.714-4,3,3.841-.083,2.092-0.066,6,1v-4c0.028-.6-0.693-1.6-1-5h2c0.39,3.511,2.85,8.246,4,9,1.18-.8,1.681-0.773,4-1,0.88-2.431,1.746-3.859,4-5v1c2.115,3.19,2.658,8.361,4,12-4.395-.241-3.23,0-7,2v1h2c1.073-.752.946-0.6,3-1-0.4,4.155-.125,3.055,1,7-3.063,2.338-5.939,6.72-8,10l-4-1v3c-7.088,1.022-6.433,2.65-14,2v1h2v2h-1c-0.631,1.754-.193.971-1,2-1.021-.8-0.274-0.355-2-1v-3a16.094,16.094,0,0,0,4-5h-1c-1.471,2-5.876,4.848-7,4-0.8-1.021-.355-0.274-1-2,2.067-1.183,1.882-.684,3-3h-1c-2.062,2.805-3.59,1.919-5,3,3.44,3.759.208,2.621-1,8h2c0.542-1.537,4.347-1.561,6,2a8.459,8.459,0,0,0-4,3h-2c-0.006-2.616.771-1.958-2-4-0.327,2.212,1.038,1.079-1,2-0.771-.682-2.232-1.311-3-2,2.467-1.3.681,0.429,2-2-3.634,1-2.445-1.488-4,1-2.547.686-4.361,1.341-5,2-0.8-1.021-.355-0.274-1-2h1l-1-2h-1v1c-1.025,1.117-2.12,2.832-3,4,3.162-.008,1.345-1.694,3,1,0.752,1.073.6,0.946,1,3-3.668,1.13-3.116,2.493-6,4v-2c0.747-.982.81-1.852,2-4h-4c-1.624,1.5-2.023,1.552-5,2v-1c1.624-1.35,1.121-.64,2-3h-1v-1c-2.568.683-5.225,3.1-6,2-0.8-1.021-.355-0.274-1-2a10.925,10.925,0,0,0,3-2l-3-2c-0.372,2.076-.242,1.924-1,3-1.021-.8-0.274-0.355-2-1,1.191-4.484.087-3.974-1-9h-4v-3c-3.245.828-1.528-.49-3,2a18.068,18.068,0,0,1,4,3h-3c-1.021-.8-0.274-0.355-2-1-0.27-4.127-.92-5.02-3-6v1h-1c0.774,3.084.012,8.045-2,9v-2c-0.994-1.68-.1-2.29-1-4-1.687,3.695-2.464-.773-4,3,2.389,0.842,1.645.4,3,2-5.238,1.954-5.012,4.61-11,6-1.35-1.624-.64-1.121-3-2-0.728,2.859-.932,4.484-2,6-0.345-.1-0.233-1.493-2-1v1a20.52,20.52,0,0,1-4,2c-0.918.239-4.545-2.017-7-1l-2,3h-1v-1c-3.471-.886-4.2.258-8,0v-2c2.525-1.466,1.544-.44,2-4h-1c-1.455,2.542.217,1.128-3,2v-1c1.809-1.587,2.352-3.277,3-7h-1a6.1,6.1,0,0,1-2,2v-2c2.124-1.457,2.785-2.624,4-5,2.464,1.533,2.276,2.291,6,3v-1h1c-1.291-2.688-2.883-4.313-4-7a18.324,18.324,0,0,1,6-1c1.35,1.624.64,1.121,3,2,0.716-3.535,1.229-2.481,2-6h-7v-2l5-6a14.124,14.124,0,0,0-4-1c-2.274-.313-8.367,2.4-12,4,0.177-4.006,1.951-3.3-3-4-2.111,1.207-2.232.483-5,0v1a6.1,6.1,0,0,1,2,2c-2.493.684-1.856,2.358-3,1-0.745-1.216-.137-0.992,0-4h-7v-1c4.935-4.214,2.717-10.695,12-11,1.725-1.353,4.847-2.128,7-3,1.507,2.6,4.972,3.833,7,6,3.325-1.177,3.069-2.621,6-4,0.416,3.58-.472,2.516,2,4,3.088-2.429,14.628-6.062,20-4,1.207,0.463-1.228,1.806,1,2,2.25,0.2,5.173-1.967,9-2-0.054,2.612,1.186,5.228,6,6v-1a23,23,0,0,1-5-3v-2h6c1.051,2.939,2.213,3.868,4,3h1c-1.133-1.546-1.085-.843-2-3,4.648,0.268,10.209.9,12-2h-9c-1.021-.8-0.274-0.355-2-1-0.485-2.876-2.774-1.832-5-5-2.927-4.166-2.351-8.118-5-13l-3-1c-2.788-3.092-12.75-24.857-13-27a8.894,8.894,0,0,0,3-3c-4.5.158-4.623,1.251-6-1a17.332,17.332,0,0,1-5-10c3.152,0.674,2.1.666,4,2v-4c-3.287-.923-4.819-1.859-6-5h5c1.35,1.624.64,1.121,3,2v-1c-0.752-1.073-.6-0.946-1-3-2.707.02-1.61,1.327-3-2h1c1.091-3.155,2.116-2.967,4-5,2.189,0.9,1.443.862,3,2v-3h4c-0.828,3.245.49,1.528-2,3v-1h-1v4h1C424.915,254.661,426.868,254.662,428,249Zm-299,1a12.662,12.662,0,0,0,1,4h1C130.448,250.864,130.79,251.567,129,250Zm18,0q0.5,1.5,1,3h1C148.158,250.611,148.6,251.355,147,250Zm34,0c0.828,3.245-.49,1.528,2,3v-1c0.8-1.021.355-.274,1-2h-3Zm35,0c0.384,2.617-.743,1.31,2,2v-2h-2Zm203,0h1c0.488,2.757-.558,1.18-2,2Zm-174,1c-0.771.682-2.232,1.311-3,2C243.516,252.727,248.019,251.882,245,251Zm7,3v-3h-5v1h1c2.167,2.3,2.978,4.031,5,5,1.35-1.624.64-1.121,3-2v-1h-4Zm-76-2a14.124,14.124,0,0,0-1,4h2C176.983,252.449,178.452,254.267,176,252Zm10,0c1.021,0.8.274,0.355,2,1C186.979,252.2,187.726,252.645,186,252Zm3,0q0.5,1.5,1,3a2.834,2.834,0,0,0,1-1c0.8-1.021.355-.274,1-2h-3Zm154,0c1.72,0.881,1.278.889,3,0h-3Zm-161,2v1h-1c-1.923.775,2,1,2,1C182.369,254.246,182.807,255.029,182,254Zm253,0c0.372,2.076.242,1.924,1,3v-3h-1Zm-294,1v2h1v-2h-1Zm-34,1c-0.328,1.384,1.419,1.451,2,2C109.7,256.937,107.276,256.3,107,256Zm107,0v2C215.609,256.812,215.224,257.582,214,256Zm60,0c0.372,2.076.242,1.924,1,3v-1c0.8-1.021.355-.274,1-2h-2Zm-173,1h2v2h-2v-2Zm86,0c-0.328,1.384,1.419,1.451,2,2C189.7,257.937,187.276,257.3,187,257Zm35,0-1,3h2C222.628,257.924,222.758,258.076,222,257Zm119,0c0.372,2.076.242,1.924,1,3v-1c0.8-1.021.355-.274,1-2h-2Zm-199,1c0.97,3.457,2.46,4.243,4,7,3.672-.85,4.958-1.778,8-1v-3c-2.266.4-1.084,0.918-3,0h1c0.488-2.757-.558-1.18-2-2a35.212,35.212,0,0,1-5,3C144.189,258.539,144.459,259.5,142,258Zm45,3c0.372,2.076.242,1.924,1,3v-1h1c0.99-1.01-.985-0.988-1-1-1.256-2.61-1.063-2.109-4-3v2h3Zm23-2c1.66,1.116,1.069,1.77,2,0h-2Zm28,0-1,3h1c1.133-1.546,1.085-.843,2-3h-2ZM99,260h2v1C99.246,260.369,100.029,260.807,99,260Zm64,0c1.021,0.8.274,0.355,2,1C163.979,260.2,164.726,260.645,163,260Zm268,0v2h1v-2h-1Zm-238,2c0.8,1.021.355,0.274,1,2h-1v-2Zm19,0c0.108,0.133,3,3,3,3C215.524,263.735,212.508,262.537,212,262Zm206,3c2.076-.372,1.924-0.242,3-1l-3-2v3Zm-288-2c-0.86.649-3.144,1.338-4,2l5,1C130.628,263.924,130.758,264.076,130,263Zm36,1v2h2v-1Zm260,0v2h1v-2h-1Zm-322,1c2.467,1.3.681-.429,2,2h-1c-1.021.8-.274,0.355-2,1Zm17,0v4h2v-2h1v-1Zm17,2v3h2c1.073,0.752.946,0.6,3,1a16.987,16.987,0,0,0-1-6h-2C139.616,267.617,140.743,266.31,138,267Zm55-2a14.338,14.338,0,0,1,5,1v1C193.046,267.024,193.2,267.61,193,265Zm136,0h2v1C329.246,265.369,330.029,265.807,329,265Zm102,0c-0.771.682-2.232,1.311-3,2h1c1.18,0.8,1.681.773,4,1C432.158,265.611,432.6,266.355,431,265Zm18,0c0.327,2.212-1.038,1.079,1,2C449.369,265.246,449.807,266.029,449,265Zm-323,2c-0.149,2.726.269,4.975,1,9h3v-2C129.179,273.151,128.143,269.223,126,267Zm282,0h2v2h-2v-2ZM96,269h2v1H97v1C96.2,269.979,96.645,270.726,96,269Zm172,21v-5c3.245-.828,1.528.49,3-2-3.245-.828-1.528.49-3-2,2.4,0.374,1.538.63,4,0a47.121,47.121,0,0,1-4-5l3-1v-1h1c0.828,3.245-.49,1.528,2,3v-1c-1.28-2.043-.686-2.833,0-5-2,.029-0.282,1.023-2,0-0.8-1.021-.355-0.274-1-2h17c1.021,0.8.274,0.355,2,1l1,3c1.891,2.925,1,10.39,1,15,0,13,2.287,32.435-2,42a66.528,66.528,0,0,1-26-2,24.935,24.935,0,0,0-4-5c-0.6-7.507-.655-11.541,1-16-2.467-1.3-.681.429-2-2h2v-1l2,1c-2.192-3.812-2.913-.273-4-5,0.928-1.31-.349-1.255,1-3l1-3c1.8,1.565,1.281,1.966,4,3v-1c-0.911-1.571-.541-3.207-1-6h4Zm59-21a48.713,48.713,0,0,1,15,2l5,7c0.473,7.711.279,16.513-7,19-2.4,1.546-9.923,1.693-13,2C326.864,285.2,327,279.847,327,269Zm121,0v2h1v-1h1C448.979,269.2,449.726,269.645,448,269Zm-116,1v2h1v-2h-1Zm85,0c1.35,1.624.64,1.121,3,2v-1ZM99,271c0.8,1.18.773,1.681,1,4H99v-1C98.293,272.455,98.871,273.865,99,271Zm35,0c0.327,2.212-1.038,1.079,1,2C134.369,271.246,134.807,272.029,134,271Zm141,1,1,3h1v-3h-2Zm3,3c1.021,0.8.274,0.355,2,1C278.979,275.2,279.726,275.645,278,275Zm-166,1,1,3h1v-2Zm8,0v2c1.754,0.631.971,0.193,2,1l4-1v-1Zm262,1c0.8,1.021.355,0.274,1,2h-1v-2Zm44,1c0.372,2.076.242,1.924,1,3,1.133-1.546,1.085-.843,2-3h-3Zm-149,1c-0.328,1.384,1.419,1.451,2,2C279.7,279.937,277.276,279.3,277,279Zm161,0,1,3h2v-2Zm-165,1a17.682,17.682,0,0,0,2,4,12.662,12.662,0,0,1,1-4h-3Zm-142,1h2v1C131.246,281.369,132.029,281.807,131,281Zm311,0c0.842,2.389.4,1.645,2,3A10.925,10.925,0,0,0,442,281Zm15,0c0.8,1.021.355,0.274,1,2h-1v-2Zm-329,2c0.35,0.3,2,.523,1,2C127.886,284.512,125.886,283.224,128,283Zm34,0c0.3,4.232,1.7-1.038,3,3C165.605,284.918,162.464,283.4,162,283Zm275,0a14.124,14.124,0,0,0-1,4h2C437.805,284.672,437.807,284.174,437,283Zm28,0c1.624,1.35,1.121.64,2,3h-1v-1C465.2,283.979,465.645,284.726,465,283ZM161,298c0.372,2.076.242,1.924,1,3,2.111-1.207,2.232-.483,5,0v-1c-1.754-.631-0.971-0.193-2-1,0.752-1.073.6-.946,1-3h-3v-2c3.092-1.475,2.951-2.544,3-7h-2a14.338,14.338,0,0,1-1,5c-1.754-.631-0.971-0.193-2-1-1.754-.631-0.971-0.193-2-1,2.941-1.842,1.585-1.586,1-5l-4-1v1c2.389,0.842,1.645.4,3,2a12.662,12.662,0,0,0-4,1c1.441,2.056,1.553,1.3,2,5h-1c-0.372-2.076-.242-1.924-1-3v3c3.144,1.922,1.713,2.518,3,4C159.073,297.752,158.946,297.6,161,298Zm260-14a14.124,14.124,0,0,0-1,4h2v-2h1v-1h-1v-1h-1Zm11,0-1,3c-3.33-.274-1.66-0.373-5,0v2h1c2.883,2.305,8.1,4,12,5a6.1,6.1,0,0,1,2-2v-1C435.677,289.487,436.092,286.133,432,284Zm20,0c2.542,1.455,1.128-.217,2,3h-1v-1C452.2,284.979,452.645,285.726,452,284Zm-316,1v2h2v-2h-2Zm-18,1a12.662,12.662,0,0,1,4,1v1h-4v-2Zm147,0h2v2h-2v-2Zm183,0,3,1C449.766,289.911,449.6,287.9,448,286Zm-174,1v1c-0.639,1.024-2.169.2-1,1v1h1v-1C275.243,287.433,274.642,288.49,274,287Zm194,4h-4v-3h2v-1h1v1C467.752,289.073,467.6,288.946,468,291Zm-337-3h2v2h-2v-2Zm5,1c2.467,1.3.681-.429,2,2h-1c-1.455,2.542.217,1.128-3,2C134.708,290.653,135.025,290.766,136,289Zm133,0c1.021,0.8.274,0.355,2,1C269.979,289.2,270.726,289.645,269,289Zm-53,2c2.542,1.455,1.128-.217,2,3h-1Zm256,0,3,1v1C472.611,292.158,473.355,292.6,472,291Zm-202,1c-0.631,1.754-.193.971-1,2l1,3h1v-1A4.559,4.559,0,0,0,270,292Zm154,0v2h1v-1h1C424.979,292.2,425.726,292.645,424,292Zm-148,1-1,2C276.744,293.6,276,293,276,293Zm155,0-1,2h1c0.152,1.406,1,1,1,1v-3h-1Zm-213,1h2v1C218.246,294.369,219.029,294.807,218,294Zm163,0h4c1.689,6.755,6.111,10.3,8,17H379c-1.021-.8-0.274-0.355-2-1-0.961-1.766-1.257-1.68-2-4C377.911,303.385,379.912,298.286,381,294Zm95,0h2v1C476.246,294.369,477.029,294.807,476,294Zm12,3c-2.076-.372-1.924-0.242-3-1h1a6.1,6.1,0,0,1,2-2v3Zm-52-2c1.021,0.8.274,0.355,2,1C436.979,295.2,437.726,295.645,436,295Zm-268,1c-0.34,2.422-.327.883,0,4h2C169.448,296.864,169.79,297.567,168,296Zm281,4c2.076-.372,1.924-0.242,3-1,0.752-1.073.6-.946,1-3-2.105.788-1.806-.032-3,1C449.248,298.073,449.4,297.946,449,300Zm32-4h2v1C481.246,296.369,482.029,296.807,481,296Zm-330,1c1.72,0.881,1.278.889,3,0h-3Zm222,0c1.138,2.116-.983,6.036-3,8-4.079-3.475-12.316-1.921-17-5C360.6,300.276,368.891,300.33,373,297Zm10,0c1.021,0.8.274,0.355,2,1C383.979,297.2,384.726,297.645,383,297Zm-122,1v2l4-1v-1h-4Zm120,0c0.372,2.076.242,1.924,1,3C381.628,298.924,381.758,299.076,381,298Zm56,0v2h1C437.369,298.246,437.807,299.029,437,298Zm-288,1v2h1C149.369,299.246,149.807,300.029,149,299Zm291,0c-1.243,2.908-1.97,1.915,1,3l1-3h-2Zm18,0c1.021,0.8.274,0.355,2,1C458.979,299.2,459.726,299.645,458,299Zm-11,1-1,3h1v-1C448.243,300.433,447.642,301.49,447,300Zm-223,1c1.077,1.737,1.035,2.271,0,4v-4Zm103,0h10c1.544,2.633,4.006,5.76,5,9q1,6.5,2,13c1.6,3.144,5.609,5.5,8,8H332c-0.771-.682-2.232-1.311-3-2C325.041,324.52,326.833,308.99,327,301Zm132,0c1.183,2.067.684,1.882,3,3v-2h-1C459.979,301.2,460.726,301.645,459,301Zm-332,1,3,1a2.834,2.834,0,0,1-1,1c-1.021.8-.274,0.355-2,1v-3Zm15,0v2h4a2.834,2.834,0,0,1,1-1v-1h-5Zm36,0c1.021,0.8.274,0.355,2,1C178.979,302.2,179.726,302.645,178,302Zm289,0c-1.225,2.281-1.638,2.251-2,6h1v-2C467.865,304.234,468.266,304.4,467,302Zm-309,1c0.327,2.212-1.038,1.079,1,2C158.369,303.246,158.807,304.029,158,303Zm2,0c0.174,3.147.516,1.5,0,4h1c1.133-1.546,1.085-.843,2-3Zm-11,1-1,2C149.744,304.6,149,304,149,304Zm17,0c1.35,1.624.64,1.121,3,2A11.568,11.568,0,0,0,166,304Zm214,0c1.345,2.305,1.219,1.823,2,2h1A11.568,11.568,0,0,0,380,304Zm56,0a19.54,19.54,0,0,1-4,2v1h3c1.552-1.5,1.838-.777,3-3h-2Zm-305,1h2a2.834,2.834,0,0,1-1,1v1C131.2,305.979,131.645,306.726,131,305Zm51,0v2C183.609,305.812,183.224,306.582,182,305Zm257,0v2h2v-2h-2Zm36,0c0.372,2.076.242,1.924,1,3a11.568,11.568,0,0,1,3-2v-1h-4Zm-301,1c-0.332,2.794-.383,5.994,2,7-0.2-3.916-.378-2.64,0-6Zm211,0a4.017,4.017,0,0,0,5,0h-5Zm65,0-1,2h1c-0.216,1.4,1,1,1,1C452.224,307.764,450,306,450,306Zm-305,1v2h2v-2h-2Zm5,6c0.828,3.245-.49,1.528,2,3,1.1-2.356.959-1.78,3-3-0.42,3.1-.713,2.383,0,5h2c-0.518-2.206-1.128-1.984,0-4a8.894,8.894,0,0,0,3,3v-4c4.17,0.69,5.149,3.28,7-2h-1v-1c-2.347.708-2.234,1.025-4,2a12.662,12.662,0,0,0-1-4c-2.1,1.75-1.463,1.972-3,2-1.52-1.714,1.175-1.292-2-3-1.021.8-.274,0.355-2,1,1.683,2.956,1.018.012,1,4Zm340-6c1.829,1.568,1.395.882,2,4a11.568,11.568,0,0,0-2,3h-1v-1c-0.757-1.078-.668-1.727-1-5C490.212,307.673,489.079,309.038,490,307Zm-104,1v2h1v-2h-1Zm52,0c0.372,2.076.242,1.924,1,3v-1c0.8-1.021.355-.274,1-2h-2Zm45,0c1.021,0.8.274,0.355,2,1C483.979,308.2,484.726,308.645,483,308Zm-28,1-1,5h2C456.072,309.877,457.4,311.219,455,309Zm-11,1c-0.85,2.816-.561,2.817-1,6,2.683,0.955,3.445,2.1,5,4h2a33.561,33.561,0,0,1,0-7h-1v-1C443.642,312.541,447.777,312.339,444,310Zm33,0c-1.021.8-.274,0.355-2,1,1.141,1.672,1.368,3.447,2,4v-1C478.077,312.263,478.035,311.729,477,310Zm8,0-1,2C485.744,310.6,485,310,485,310Zm-221,1c1.021,0.8.274,0.355,2,1C264.979,311.2,265.726,311.645,264,311Zm-76,1c0.8,1.021.355,0.274,1,2h-1v-2Zm-41,1-1,2C147.744,313.6,147,313,147,313Zm233,0c5.361-.121,12.175-0.326,16,1-1.021.8-.274,0.355-2,1-2.848,1.4-3.656-.867-6,0-2.665,1.154-2.1,1.916-5,3v-1A19.089,19.089,0,0,1,380,313Zm-156,1c0.8,1.021.355,0.274,1,2h-1v-2Zm255,1v2h1v-2h-1Zm6,1c-1.041,2.814-2.516,1.367,0,3C485.058,316.094,485.964,317.611,485,316Zm-354,3c0.8,1.021.355,0.274,1,2h-1v-2Zm94,0c0.752,1.073.6,0.946,1,3,3.181,1.076,4.942,3.544,9,6v1c-3.2.937-3.5,1.739-8,2-1.838-2.919-2.739-2.9-3-8C224.643,322.1,224.3,321.024,225,319Zm235,7h4c1.554-2.026,3.5-2.858,5-5h-1a6.1,6.1,0,0,1-2,2,12.662,12.662,0,0,0-1-4,30.978,30.978,0,0,0-5,3c-2.413,2.008-3.378,2.961-4,7l4,1v-4Zm-69-6c2.467,1.3.681-.429,2,2-2.281,1.225-2.251,1.638-6,2l-1-2C390.123,322.2,388.743,323.431,391,320Zm7,0c2.085,2.019,4.257,6.715,3,9-2.395,2.2-6.127,2.141-11,2v-1h1C394.058,326.69,396,324.684,398,320Zm-261,1c1.021,0.8.274,0.355,2,1C137.979,321.2,138.726,321.645,137,321Zm13,0c1,1.36,1.929,1.806,3,3a17.682,17.682,0,0,0,4-2h-1v-1C151.553,322.034,154.9,322.165,150,321Zm300,1v2h1C450.369,322.246,450.807,323.029,450,322Zm-317,1c1.829,1.568,1.4.882,2,4h-2v-4Zm53,0c3.245,0.828,1.528-.49,3,2-0.649.86-1.338,3.144-2,4a11.568,11.568,0,0,0-3-2Zm306,0c2.4,2.06.212,0.951,1,3C491.184,326.607,492.184,323.967,492,323Zm-346,2c0.372,2.076.242,1.924,1,3v-1h1v-1Zm253,0v2h1v-2h-1Zm81,0c1.021,0.8.274,0.355,2,1C480.979,325.2,481.726,325.645,480,325Zm18,1c2.076,0.372,1.924.242,3,1h-2l-1,1v-2Zm-361,1c1.116,1.66,1.77,1.069,0,2v-2Zm364,0c2.542,1.455,1.128-.217,2,3h-1Zm-273,1c1.021,0.8.274,0.355,2,1C228.979,328.2,229.726,328.645,228,328Zm-46,1c1.116,1.66,1.77,1.069,0,2v-2Zm289,0c1.021,0.8.274,0.355,2,1C471.979,329.2,472.726,329.645,471,329Zm12,0v2h2v-2h-2Zm-8,1c0.327,2.212-1.038,1.079,1,2C475.369,330.246,475.807,331.029,475,330Zm15,0c1.021,0.8.274,0.355,2,1C490.979,330.2,491.726,330.645,490,330ZM359,345c-0.372,2.076-.242,1.924-1,3v-3c-4.23-.082-7.137,1.741-9,2-2.208.307-1.864-.157-2-2-4.307-.794-7.209,2.627-10,4v-3a71.9,71.9,0,0,0-17,1c-1-3.011.4-2.657-2-4-0.166,3.813.668,5.3-2,7v-1c-0.752-1.073-.6-0.946-1-3,1.78-2.173,2.111-6.1,3-10a14.124,14.124,0,0,0-4-1v1c2.467,1.3.681-.429,2,2-6.6.808-5.516,4.047-13,5v3c-8.711-1.087-9.319,1.262-15,2-3.236.421-2.657-2.358-4-3-4.278-2.045-10.271,1.352-13,2v-1h1c2.773-3.636,9.055-2.816,11-7h-1v-1c-4.4-.217-6.957-2.672-10-2-1.554.343-4.13,3.443-6,4-5.193,1.546-10.522,1.064-15,2-0.117,3.741,1.206,2.442-3,3-2.09,1.721-4.632,2.534-8,3-1.156-2.249-1.453-1.486-3-3,2.624-2.013,3.623-4.721,5-8,0.872,0.74,1.128,1.26,2,2v-5h-2c-2.431,1.57-4.163.7-6-1,5.078-.131,5.2-1.147,9-2-0.007,2.616-1.3.883,1,3a2.834,2.834,0,0,0,1,1c0.828-3.245-.49-1.528,2-3,4.876,3.862,24.839,2,36,2,30.691,0,56.484.081,86,0v1C366.459,338.122,365.265,343.716,359,345Zm132-4c-0.406-3.064-1.389-1.738-2-3-1.369-2.828,4.406-2.943,0-6-1.073-.752-0.946-0.6-3-1v2c2.583,2.588,2.216,2.509,2,6h-1a11.568,11.568,0,0,0-3-2v1c2.347,2.144,1.245,2.442,2,5C488.091,341.879,487.832,341.566,491,341Zm-331-9c2.542,1.455,1.128-.217,2,3h-2v-3Zm22,1v4a12.662,12.662,0,0,1,4,1v1h-2c-1.153-.822-1.24-0.47-4-1-1.193-3.776-.959-1.012-1-5h3Zm2,0c0.8,1.021.355,0.274,1,2h-1v-2Zm49,4c-3.2.257-3.191,0.994-5,0-0.842-1.2-.361-0.919-1-3h-2c1.039,4.164-.213,6.37-3,11h-2v-1a11.568,11.568,0,0,0,2-3h-2c-1.949,2.88-4.6,3.681-7,6-2.8-1.03-2.1-1.518-6-2-1.749,2.267-3.766,3.177-7,4v2h3c1.021-.8.274-0.355,2-1v1c-4.788,4.392-9.545,8.813-14,11v-3c-0.16-1.675,1.037-2.955,2-6h-4a6.1,6.1,0,0,1-2,2v-2c1.905-3.972-1.31-9,0-16,9.063-4.671,19.723-4.132,34-4,1.986,1.089,8.358.144,13,0v1C233.248,335.073,233.4,334.946,233,337Zm161-4c2.076,0.372,1.924.242,3,1h-1c-1.021.8-.274,0.355-2,1v-2Zm111,0c0.8,1.021.355,0.274,1,2h-1v-2Zm-32,1a20.14,20.14,0,0,0,1,7h2c0.284-4.237-.871-1.168,2-4-0.752-1.073-.6-0.946-1-3h-4Zm-25,1c-1.021.8-.274,0.355-2,1v1h2l1-2h-1Zm-290,1h2v2h-1Zm38,0c-0.771.682-2.232,1.311-3,2h1c1.18,0.8,1.681.773,4,1C198.033,335.4,198.981,338.028,196,336Zm21,0a19.54,19.54,0,0,0,4,2C219.432,336.171,220.118,336.605,217,336Zm169,1c-1.121,2.091-1.434,1.832-2,5h1v1c5.265-2.494,7.452,1.664,12-1C393.087,340.276,391.412,337.838,386,337Zm69,0c-1.021.8-.274,0.355-2,1v1c2.532,0.074,3.716.12,5,1-2.467,1.3-.681-0.429-2,2h4v-2C461.973,338.961,457.855,337.168,455,337Zm-228,2c2.076,0.372,1.924.242,3,1h-2v2h-1v-3Zm188,0c-1.667,2.919-4.224,1.968-3,5v2h1c0.968-4.026,2.076-2.764,3-7h-1Zm6,0v2h1v-1h1C421.979,339.2,422.726,339.645,421,339Zm21,0v2c-2.756-.5-3.723-1.4-6,0h1c1.677,1.382,8.639,2.666,9,2C446.315,342.949,442.406,339.274,442,339Zm55,0c1.35,1.624.64,1.121,3,2v-2h-3Zm9,0c-0.34,2.422-.327.883,0,4h2v-1C507.318,341.229,506.689,339.768,506,339Zm11,0c1.116,1.66,1.77,1.069,0,2v-2Zm-342,1,3,1v1h-3v-2Zm28,3c-0.828-3.245.49-1.528-2-3l-1,2h-1v1h4Zm247-3v2C451.609,340.812,451.224,341.582,450,340Zm12,0-1,3h3v-2Zm31,0v2h2v-2h-2Zm17,0c1.021,0.8.274,0.355,2,1C510.979,340.2,511.726,340.645,510,340Zm-268,4a12.662,12.662,0,0,1,4,1v-2c-2.347-.708-2.234-1.025-4-2v3Zm80,0c3.245-.828,1.528.49,3-2h-1v-1h-2v3Zm84-3v2h1v-2h-1Zm23,0v2h2v-1Zm-239,1v2h2a2.834,2.834,0,0,1,1-1v-1h-3Zm23,1c1.021,0.8.274,0.355,2,1C213.979,343.2,214.726,343.645,213,343Zm11,0c1.116,1.66,1.77,1.069,0,2v-2Zm157,0c1.021,0.8.274,0.355,2,1C381.979,343.2,382.726,343.645,381,343Zm137,0c0.571,2.131-2,5-2,5C513.759,346.583,517.117,344.452,518,343Zm-43,1c1.72,0.881,1.278.889,3,0h-3Zm8,0c-1.1,3.434-1.13-.5-2,3h2v1h1a12.662,12.662,0,0,1,1-4h-2Zm-225,1h4v1h-1c-1.3.877-2.467,0.894-5,1v-1C257.754,345.369,256.971,345.807,258,345Zm159,0v2a12.662,12.662,0,0,1,4,1v-2h-1v-1h-3Zm-50,1h2v1C367.246,346.369,368.029,346.807,367,346Zm-183,1h2c-0.34,2.422-.327.883,0,4C182.023,349.916,183.309,350.021,184,347Zm31,1h2v1C215.246,348.369,216.029,348.807,215,348Zm267,5v-5h-1v1a19.54,19.54,0,0,0-2,4h3Zm-306,0v-3l4-1v3h-1v1h-3Zm84-4h2v1h-2v-1Zm201,0v2h1C461.369,349.246,461.807,350.029,461,349Zm6,0v2h2v-1Zm-59,1c-1.34,1.9-1.283.874-2,4,2.64,2.309,2.739,5.066,6,7l-2-3,3-1c-3.186-3.768-1.992-2.385-5-5,0.74-.872,1.26-1.128,2-2h-2Zm20,0v2h1C428.369,350.246,428.807,351.029,428,350ZM265,382h-4v1c3.336,2.208.784,1.584,0,4-0.806,2.484,1.652-.071,1,4h-2a14.338,14.338,0,0,0-1-5h-1v1c-1.577,2.065-1.264,4.129-2,5-1.295.877-2.467,0.894-5,1v-1a10.925,10.925,0,0,0,3-2c-1.834-1.285-1.712-1.968-4-3-0.766,4.978-6.51,6.765-9,7,0.421-4.541.961-3.634,3-6a21.812,21.812,0,0,1-6,0v2c1.507,1.261,1.721,3.223-1,4-2.279-2.324-3.59-.975-7-2,1.222-3.766,1.681-9.367,3-13-5.275-1.033-10.77-2.2-11-9,2.181-2.637,1.309-5.805,2-10h1c0.074,2.532.12,3.716,1,5,0.711-4.764,2.42-4.6,4-8-1.3-.555-0.741-0.03-1-1,2.651-3.421,4.275-2.626,9-2v3c7.294-.633,7.532-2.711,12,2,5.805-2.093,9.141-5.216,14-7,0.874,4.115,1.208,5.473,6,6-0.539-3.444-1.12-3.117-2-6h1v-1c5.572,5.652,5.845,8.08,15,6v1c-0.334.249-9,11-9,11-0.776,2.437,1.277,2.676,0,5-1.3-2.467.429-.681-2-2-1.322,2.458-2.042,2.287-5,3a16.987,16.987,0,0,1-1,6c-0.872-.74-1.128-1.26-2-2v3Zm47-11a12.662,12.662,0,0,1,1-4h1v1h1l-1,2h1a6.1,6.1,0,0,1,2-2v-1c-3.245-.828-1.528.49-3-2,1.546-1.133.843-1.085,3-2,0.372,2.076.242,1.924,1,3v-2c0.8-1.021.355-.274,1-2-3.2-.257-3.191-0.994-5,0-0.682.771-1.311,2.232-2,3v-2c-0.757-1.078-.668-1.727-1-5,3.784-.316,4.466-1.3,7-2,1.414,0.556,2.246,3.038,6,2,5.287-1.462,5.65-5.428,12-1-3.1,1.333-4.351,3.125-5,7,1.061,1.755.6,2.183,1,5h4c1.021-.8.274-0.355,2-1,1.132-4.547,3.609-6.834,5-11,9.036,2.9,13.34-2.874,19,1v-4c3.652-.577,4.32-1.639,7-3v2c1.87,3.251-.8,3.946,2,6,1.021,0.8.274,0.355,2,1,0.117-3.741-1.206-2.442,3-3,0.555,1.3.03,0.741,1,1h1c-0.74-.872-1.26-1.128-2-2,8.331,0.215,9.338-1.116,16-4v2c-4.171,2.457-11.151,6.24-13,11-2.031-1.9-1.868-2.872-5-4v1h-1c1.487,1.523,3.524,2.465,5,4-2.184,2.211-1.142,3-5,4-0.437-2.812.116-3.262-1-5v1h-1l-4,7c2.212,0.327,1.079-1.038,2,1h-2c-3.738,4.32-16.242,8.657-15,18-3.732-.472-4.323,1.048-8,3-0.416-3.58.472-2.516-2-4v2c-1.322,1.737-1.727,1.607-1,3,1.638,2.031,1.166-.7,2,2h-3c-1.224-2.057-1.649-2.912-4-4,0.029,2,1.023.282,0,2-2.115,1.611-6.877,2.464-8,2-1.754-.631-0.971-0.193-2-1,0.859-1.883.474-.738,0-3,2.328-.195,2.826-0.193,4-1h-1v-1c-3.783,1.871-8.784,5.485-11,6-1.406-1.211-2.79-1.52-4-3,4.052,0.079,2.386,1.636,4-1h1v-1h-4v1h-1v-1c-0.707-1.545-.129-0.135,0-3,3.57-.44,6.353.465,8-2-3.668-.692-2.733.044-4-3h1c1.35,1.624.64,1.121,3,2v-1h1c-2.064-2.764.1-3.744-6-4-1.456,2.5-.586,2.156-4,3l-1-4h1c0.087,0.1,1.313,2.886,2,2v-1h1v-1c-3.162-.4-3.8-0.985-6-2l1-3c-2.212-.327-1.079,1.038-2-1,1.861-1.008,3.829-2.058,6-3v-1h-3Zm163-20v2h2v-1Zm16,0v2h1v-2h-1Zm-45,1c-1.013,3.532-2.12,3.3-3,7h1c1.143-2.967,3.142-3.938,6-5v-1A12.662,12.662,0,0,1,446,352Zm14,10c0.731-4.486,2.631-4.465,0-8-1.021.8-.274,0.355-2,1,0.007-3.182,1.2-2.409-3-3v1h-1c0.7,3.143-.069,3.374-1,7,2.076,0.372,1.924.242,3,1-3.245.828-1.528-.49-3,2,0.872,0.74,1.128,1.26,2,2C456.663,363.075,456.83,362.708,460,362Zm23-10a14.338,14.338,0,0,0,1,5h1v-5h-2Zm-302,1h2c-0.029,2-1.023.282,0,2C180.972,356.971,181.121,353.964,181,353Zm73,0h2l-1,2c-2.252.877-2.58,1.779-4,1h-1v-1C252.245,354.413,252.655,354.252,254,353Zm61,0h2v1C315.246,353.369,316.029,353.807,315,353Zm113,7,1-5a21.509,21.509,0,0,0-7-1v-1h-1v2C423.908,357.3,423.31,359.054,428,360Zm7-7v2c2.906,0.058,1.389.964,3,0h1c-1.021-.8-0.274-0.355-2-1C435.979,353.2,436.726,353.645,435,353Zm34,0,1,3c-3.122-.091-6.54.1-7,6h1c2.358-1.461,3.768-.44,7,0a26.945,26.945,0,0,1,0-6C470.158,353.611,470.6,354.355,469,353Zm40,0c0.327,2.212-1.038,1.079,1,2,1.021-.8.274-0.355,2-1v-1h-3Zm-334,1,3,1v1C175.611,355.158,176.355,355.6,175,354Zm32,0c0.8,1.021.355,0.274,1,2h-1v-2Zm73,0h2v1h-1c-1.737,1.322-1.607,1.727-3,1h-1v-1C279.076,354.628,278.924,354.758,280,354Zm33,0h2v1C313.246,354.369,314.029,354.807,313,354Zm10,0h2v1C323.246,354.369,324.029,354.807,323,354Zm92,0,1,3h2v-1C415.811,355.1,416.557,355.138,415,354Zm41,1h2v1h-2v-1Zm-60,1a14.338,14.338,0,0,1,5,1v1h-2C398.229,357.318,396.768,356.689,396,356Zm34,0c0.372,2.076.242,1.924,1,3v-1c0.8-1.021.355-.274,1-2h-2Zm-219,1c2.067,1.183,1.882.684,3,3h-2a2.834,2.834,0,0,1-1,1v-4Zm226,0c1.66,1.116,1.069,1.77,2,0h-2Zm38,0,1,3h1C476.158,357.611,476.6,358.355,475,357Zm-191,3h2v1C284.246,360.369,285.029,360.807,284,360Zm136,0c1.021,0.8.274,0.355,2,1C420.979,360.2,421.726,360.645,420,360Zm67,0,1,3h1v-2Zm-41,1c1.183,2.067.684,1.882,3,3v-1C447.454,361.867,448.157,361.915,446,361Zm51,0c0.074,2.532.12,3.716,1,5,0.81-3.514,1.4-2.7,3-5h-4Zm-55,1c1.021,0.8.274,0.355,2,1C442.979,362.2,443.726,362.645,442,362Zm23,0c-0.1,2.45.413,2.882,2,3,0.8-1.021.355-.274,1-2Zm-20,1c0.372,2.076.242,1.924,1,3v-3h-1Zm24,0c1.35,1.624.64,1.121,3,2A11.568,11.568,0,0,0,469,363Zm-102,1v2h1v-2h-1Zm65,0h2C432.812,365.609,433.582,365.224,432,364Zm61,0-1,3h1v-2h1v-1h-1Zm-89,1c-1.3.877-2.467,0.894-5,1v2c-0.8,1.18-.773,1.681-1,4h1c2.675-2.707,5.779.648,7-5,0.8-1.021.355-.274,1-2h-3Zm-96,1,3,1v1h-3v-2Zm50,0c0.045,2.7-.169.661,1,4h1C359.448,366.864,359.79,367.567,358,366Zm96,1c-0.372,2.076-.242,1.924-1,3-1.3-2.467.429-.681-2-2v2c1.754,0.631.971,0.193,2,1,1.754-.631.971-0.193,2-1,2.542-1.455,1.128.217,2-3h-3Zm14,1c0.372,2.076.242,1.924,1,3a6.1,6.1,0,0,1,2-2v-1h-3Zm32,1c0.752,1.073.6,0.946,1,3h-2Zm-68,1c2.076,0.372,1.924.242,3,1h-2C432.309,371.132,431.056,371.053,432,370Zm33,0c1.021,0.8.274,0.355,2,1C465.979,370.2,466.726,370.645,465,370Zm18,3c0.372-2.076.242-1.924,1-3v1h1l1,2h-3Zm-258-2v2h2v-1Zm134,1c1.737,1.322,1.607,1.727,3,1h1v-1h-4Zm20,2c3.188-.506,2.92-0.872,5-2v2c-3.6,4.2,2.568,4.108,0,6v1h-1c-0.828-3.245.49-1.528-2-3-1.18.8-1.681,0.773-4,1v-2C379.542,375.545,378.128,377.217,379,374Zm47-2h2v1h-2v-1Zm-197,1c0.327,2.212-1.038,1.079,1,2a2.834,2.834,0,0,1,1-1C229.979,373.2,230.726,373.645,229,373Zm199,0h3v3h-3v-3Zm14,1h2v4c-3.012-.965-1.541,1.806-3-1-1.754-.631-0.971-0.193-2-1C441.389,375.158,440.645,375.6,442,374Zm-44,1v2h1C398.369,375.246,398.807,376.029,398,375Zm15,0,3,1v1h-1v1A11.568,11.568,0,0,1,413,375Zm19,0c1.766,0.961,1.68,1.257,4,2v1h-3v-1C432.2,375.979,432.645,376.726,432,375Zm-115,1c-1.021.8-.274,0.355-2,1v1C316.146,377.563,319.7,376.846,317,376Zm151,1c0.8,1.021.355,0.274,1,2h-1v-2Zm-24,1h3c1.3,2.467-.429.681,2,2v1c-4.165.555-4.307,2.271-7,1C444.692,380.753,443.1,381.443,444,378Zm-219,1,4,1v1c-3.444.539-3.117,1.12-6,2C223.708,380.653,224.025,380.766,225,379Zm168,0v2h1C393.369,379.246,393.807,380.029,393,379Zm24,0c0.8,1.021.355,0.274,1,2h-1v-2Zm54,0c2.076,0.372,1.924.242,3,1h-3v-1Zm-61,1h2v2h-2v-2Zm-11,1c2.245,0.587,2.655.748,4,2-1.061,1.755-.6,2.183-1,5h-1v-1C400.552,386.062,400.007,383.316,399,381Zm50,1c0.8,1.021.355,0.274,1,2h-1v-2Zm-140,1c0.35,0.3,2,.523,1,2C308.886,384.512,306.886,383.224,309,383Zm95,0c0.35,0.3,2,.523,1,2C403.886,384.512,401.886,383.224,404,383Zm47,0c1.28,2.043.686,2.833,0,5C448.835,385.07,449.572,386.033,451,383Zm-223,1h2v2h-2v-2Zm-5,1h2C223.812,386.609,224.582,386.224,223,385Zm235,2c2.532,0.074,3.716.12,5,1-3.3.667-2.339,1-5,2v-3Zm-224,1v2h2a2.834,2.834,0,0,1,1-1v-1h-3Zm102,12c0.372-2.076.242-1.924,1-3v1h1l1,2h-3Z"/>
  <path id="Color_Fill_6" data-name="Color Fill 6" class="cls-2" d="M202.773,354.581a1.083,1.083,0,0,0-.541.37,1.7,1.7,0,0,1-.491.419l-0.251.285a0.531,0.531,0,0,1-.391.219,0.582,0.582,0,0,0-.44.444,0.7,0.7,0,0,1-.227.428,4.782,4.782,0,0,0-.529.4,3.371,3.371,0,0,0-.629.646,0.732,0.732,0,0,0-.529.436l-0.352.453a6.088,6.088,0,0,0-.73.924,1.359,1.359,0,0,0-.692.5,1.683,1.683,0,0,1-.265.386,0.74,0.74,0,0,0-.176.26l-0.3.453a2.385,2.385,0,0,0-.5,1.158l-0.226.688a1.857,1.857,0,0,0,.44,1.343,4.06,4.06,0,0,1,.491.554,1.71,1.71,0,0,0,1.662.856l1.082-.453a3.043,3.043,0,0,0,.957-0.6,3.925,3.925,0,0,1,.579-0.5,0.543,0.543,0,0,0,.252-0.235,1.312,1.312,0,0,0,.478-0.839l0.151-.068,0.051-.167a0.369,0.369,0,0,0,.151-0.135l0.151-.319,0.251-.3,0.227-.554a4.07,4.07,0,0,0,.869-1.082,1.423,1.423,0,0,1,.516-0.663l0.05-.353a3.678,3.678,0,0,0,.5-0.822v-0.235l0.1-.168a1.289,1.289,0,0,0,.479-0.839,1.085,1.085,0,0,0,.4-0.52,0.23,0.23,0,0,1,.1-0.168l0.328-.269a13.039,13.039,0,0,1,.695-1.284,1.163,1.163,0,0,0,.239-0.579,0.442,0.442,0,0,1,.189-0.218,0.737,0.737,0,0,0,.214-0.218l0.2-.067a1.46,1.46,0,0,0,.478.2l0.251,0.269a1.91,1.91,0,0,0,.667.487,1.957,1.957,0,0,0,.718.268l0.579-.1h0.3a2.108,2.108,0,0,0,.252.034c0.067,0,.1-0.011.1-0.034a0.713,0.713,0,0,1,.377-0.235l0.4,0.068,0.453-.034a0.874,0.874,0,0,1,.227.034l0.8-.2a1.6,1.6,0,0,1,.529-0.168l0.2-.084a1.084,1.084,0,0,1,.453-0.167l0.528,0.067c0.034,0,.051-0.011.051-0.034l0.78-.2a1.3,1.3,0,0,1,.654-0.269h0.051l0.377,0.1c0.034,0,.051-0.011.051-0.034a2.142,2.142,0,0,1,.755-0.285h0.528a3.853,3.853,0,0,1,.328-0.252,2.181,2.181,0,0,0,.314-0.277,0.659,0.659,0,0,1,.239-0.193l0.453,0.034a5.577,5.577,0,0,0,1.963-1.024l0.252,0.034a1.528,1.528,0,0,1,.428-0.1l0.3-.42,0.1-.033h0.151a1.443,1.443,0,0,0,.78-0.47l0.453,0.1a0.484,0.484,0,0,0,.427-0.227,2.09,2.09,0,0,1,.806-0.529,1.96,1.96,0,0,0,.742-0.461,0.908,0.908,0,0,1,.516-0.294,1.018,1.018,0,0,0,.68-0.26,0.7,0.7,0,0,0,.3-0.428l-0.076-.185v-0.168l0.328-.335a0.476,0.476,0,0,0-.427-0.353,0.179,0.179,0,0,0-.1.034l-0.3.067a3.382,3.382,0,0,0-1.331.621,0.3,0.3,0,0,1-.238.134,1.119,1.119,0,0,0-.464.26,1.1,1.1,0,0,1-.54.261,1.2,1.2,0,0,0-.465.151,0.721,0.721,0,0,1-.351.117l-0.251.185a2.929,2.929,0,0,0-.527.335,1.565,1.565,0,0,0-.653.235q-0.376.219-.728,0.386l-0.2-.067-1.183.487a1.332,1.332,0,0,1-.654.3,0.33,0.33,0,0,1-.177-0.067,5.187,5.187,0,0,1,.844-0.688,7.5,7.5,0,0,0,1.12-.957q0.227-.771.3-0.94l0.554-.956v-0.034l-0.151-.269a0.4,0.4,0,0,1,.075-0.2,0.415,0.415,0,0,0,.076-0.151,1.5,1.5,0,0,0-.718-1.175,2.843,2.843,0,0,0-1.752-.537c-0.068,0-.1.011-0.1,0.034a0.515,0.515,0,0,1-.2.1l-0.58-.167a0.806,0.806,0,0,1-.454.134,8.432,8.432,0,0,0-1.614.235l-0.6.319a9.264,9.264,0,0,0-.984.436l-0.1.252-0.252.1a2.943,2.943,0,0,0-1.173.378,9.534,9.534,0,0,1-1.034.5,2.168,2.168,0,0,0-.617.344,2.286,2.286,0,0,1-.694.361,1.017,1.017,0,0,0-.618.487,1.075,1.075,0,0,1-.429.268c-0.067,0-.1-0.022-0.1-0.067l0.05-.134-0.05-.151,0.73-2.165a1.344,1.344,0,0,0-.7-1.158,2.577,2.577,0,0,0-.907-0.453h-0.5a1.947,1.947,0,0,1-.491.226,0.673,0.673,0,0,0-.39.26,11.172,11.172,0,0,1-1.875,1.444q-0.542.268-.692,0.369a0.961,0.961,0,0,0-.629.218l0.05,0.235a0.971,0.971,0,0,0-.453.067l-0.428.1a0.571,0.571,0,0,0-.353.185l-0.251.235a3.97,3.97,0,0,0-1.082.528,2.754,2.754,0,0,1-.882.437,0.816,0.816,0,0,0-.679.713,0.7,0.7,0,0,0,.83.755,1.3,1.3,0,0,0,.982-0.369l0.1-.1a3.505,3.505,0,0,0,.83-0.554l0.252-.033a5.346,5.346,0,0,1,.83-0.353q0.252-.3.4-0.5a1.811,1.811,0,0,1,.264.05,1.712,1.712,0,0,0,.265.051q0.453,0,.453-0.252l0.176-.47a0.547,0.547,0,0,1,.5-0.134h0.2a0.141,0.141,0,0,1,.151.167v0.068l-0.2.369-0.05.252a4.846,4.846,0,0,0-.73,1.443l-0.1.436-0.3.386-0.1.336q-0.051.068-.378,0.7l-0.6,1.192a0.4,0.4,0,0,1-.151.3l-0.277.251a0.873,0.873,0,0,0-.6.4h0Zm6.13-2.1a5.978,5.978,0,0,0-.629.336,0.568,0.568,0,0,1-.277.117,0.089,0.089,0,0,1-.1-0.1l0.151-.4a1.113,1.113,0,0,1,.756-0.772h0.075l-0.126-.336a2.041,2.041,0,0,1,.252-0.05,0.529,0.529,0,0,0,.227-0.084l0.981-.839a1.445,1.445,0,0,0,.454-0.336l0.629-.168a1.841,1.841,0,0,1,.5-0.319,0.51,0.51,0,0,1,.378-0.369h0.353a2.413,2.413,0,0,1,.591-0.445,4.381,4.381,0,0,0,.743-0.495l0.3,0.051,0.177-.084,0.3,0.033a1.332,1.332,0,0,1,.642-0.251,0.917,0.917,0,0,0,.465-0.135,1,1,0,0,1,.416-0.151,0.621,0.621,0,0,0,.365-0.159,0.385,0.385,0,0,1,.277-0.126,1.181,1.181,0,0,1,.5.151v0.033l0.63-.184a1.519,1.519,0,0,1,.352.554,1.1,1.1,0,0,1-.1.235l-0.151.218a3.149,3.149,0,0,1-.553.789l-0.882.856-0.83.621a5.342,5.342,0,0,1-.894.73,1.054,1.054,0,0,0-.365.277q-0.076.117-.126,0.2a0.543,0.543,0,0,0-.151-0.033,0.822,0.822,0,0,0-.428.167,8.151,8.151,0,0,1-1.486.554,0.948,0.948,0,0,0-.466-0.369c-0.142-.034-0.273-0.067-0.39-0.1a1.166,1.166,0,0,0-.226-0.05q-0.077,0-.781.1l-0.881.1A2.189,2.189,0,0,0,208.9,352.483Zm-11.437,10.524a2.187,2.187,0,0,1,.3-1.175l0.051-.3-0.051-.336a1.7,1.7,0,0,1,.34-0.31,0.831,0.831,0,0,0,.34-0.663l-0.1-.3H198.6a1.234,1.234,0,0,0,.353-0.486,1.106,1.106,0,0,0,.881-0.756v-0.234l0.428-.588a0.578,0.578,0,0,1,.5-0.268l0.1-.084a2.487,2.487,0,0,1,.4-0.605l0.377-.033a0.407,0.407,0,0,0,.252-0.21,0.552,0.552,0,0,1,.3-0.243q-0.6,1.175-.692,1.4a7.227,7.227,0,0,1-.39.764l-1.385,2.433a1.069,1.069,0,0,1-.252.252l-0.05.134a3.578,3.578,0,0,0-.428.437l-0.252.319a12.583,12.583,0,0,1-1.284,1.309v-0.453ZM221.3,350.469a0.419,0.419,0,0,0,.5.437,5.877,5.877,0,0,0,1.361-.5,2.567,2.567,0,0,1-.63,1.234,3.413,3.413,0,0,0-.718,1.04q-0.315.663-.315,0.68l0.05,0.3-0.151.353q0,0.016.328,0.52a0.985,0.985,0,0,0,.856.5,0.69,0.69,0,0,0,.29-0.1q0.189-.1.568-0.26a1.3,1.3,0,0,0,.592-0.487,0.934,0.934,0,0,1,.29-0.344,12.709,12.709,0,0,0,1.108-.739,6.191,6.191,0,0,0,1.034-.789,0.542,0.542,0,0,1,.6-0.553,0.62,0.62,0,0,1,.215.042,0.543,0.543,0,0,0,.164.042,0.62,0.62,0,0,0,.3-0.328,0.859,0.859,0,0,1,.731-0.361l0.252-.318a1.056,1.056,0,0,0,.832-0.437l0.4-.084,0.2-.268a3.61,3.61,0,0,0,.642-0.294,1.843,1.843,0,0,1,.693-0.26,2.445,2.445,0,0,1,1.084-.437,1.471,1.471,0,0,0,.68-0.52v-0.033l0.63,0.067a1.53,1.53,0,0,0,.4-0.378,0.433,0.433,0,0,1,.353-0.21,2.581,2.581,0,0,1,.379.1,0.451,0.451,0,0,0,.3.084,0.24,0.24,0,0,1,.251.268l-0.05.235,0.05,0.42a0.256,0.256,0,0,1-.05.2,7.855,7.855,0,0,0-.453,1.444l-0.252,1.024a0.8,0.8,0,0,0,.151.319l-0.226.234,0.125,0.353-0.05.336a0.488,0.488,0,0,0,.176.277,1.755,1.755,0,0,1,.327.486,0.733,0.733,0,0,0,.541.395,2.112,2.112,0,0,1,.591.2,0.684,0.684,0,0,0,.3.118,2.94,2.94,0,0,0,1.182-.151,6.393,6.393,0,0,1,.792-0.345,2.013,2.013,0,0,0,.515-0.226q0-.369.2-0.369l0.5,0.033a5.931,5.931,0,0,1,.779-0.487,0.791,0.791,0,0,1,.528-0.587l0.453,0.134a1.1,1.1,0,0,0,.628-0.5,3.33,3.33,0,0,0,1.195-.428,1.318,1.318,0,0,1,.54-0.277,0.661,0.661,0,0,0,.427-0.336l0.1-.168a2.211,2.211,0,0,0,.5-0.847,1.2,1.2,0,0,1,.176-0.479,0.634,0.634,0,0,0,.125-0.352q0-.252-0.351-0.252a1.43,1.43,0,0,0-.778.286l-0.15.134a9.7,9.7,0,0,0-1.681.764,4.246,4.246,0,0,0-.979.646,3.086,3.086,0,0,1-.9.394,0.416,0.416,0,0,0-.326.126,3.856,3.856,0,0,0-.678.487,0.64,0.64,0,0,1-.527.2,1.785,1.785,0,0,1-.552.3c-0.167,0-.251-0.056-0.251-0.168l0.05-.352-0.1-.436,0.1-.319a3.843,3.843,0,0,1,.352-0.789,5.9,5.9,0,0,0,.4-0.89l0.277-.822,0.2-1.041a0.9,0.9,0,0,0-.755-1.015,5.044,5.044,0,0,0-1.764-.327l-0.379.033-0.2-.033H236.27a6.514,6.514,0,0,0-1.185.209,6.075,6.075,0,0,0-1.172.361,6.119,6.119,0,0,1-.883.344,2.415,2.415,0,0,0-.921.5,0.905,0.905,0,0,1-.529.31,0.465,0.465,0,0,0-.391.269,1.019,1.019,0,0,1-.82.319,0.4,0.4,0,0,0-.151.2,0.475,0.475,0,0,1-.252.235l-0.252-.033a4.061,4.061,0,0,1-.429.2l-0.252.117a1.733,1.733,0,0,1-.617.47,4.175,4.175,0,0,0-.932.672,1.962,1.962,0,0,1-.717.5c-0.1,0-.151-0.033-0.151-0.1a9.007,9.007,0,0,1,.5-0.789,2.052,2.052,0,0,0,.567-0.747,3.112,3.112,0,0,1,.742-0.948l0.353-.5a3.064,3.064,0,0,1,.352-0.655Q231,345.217,231,345.2v-0.033a0.579,0.579,0,0,1-.1-0.269q0-.285.68-0.285l0.4,0.084a1.188,1.188,0,0,1,.352-0.286l0.2-.134,2.341-2.232a2.068,2.068,0,0,1,.68-0.789,0.878,0.878,0,0,0,.44-0.6,0.729,0.729,0,0,1,.164-0.437,2.642,2.642,0,0,0,1.032-1.846,0.584,0.584,0,0,1,.5-0.386l0.377-1.51a6.328,6.328,0,0,0,.3-0.722,1.59,1.59,0,0,0-.441-0.94,1.737,1.737,0,0,0-1.422-.537,0.878,0.878,0,0,0-.743.311,1.512,1.512,0,0,1-.466.428,1.006,1.006,0,0,0-.39.386,1.937,1.937,0,0,1-.478.511,5.565,5.565,0,0,0-.693.663l-0.528.588-0.3.352a2.509,2.509,0,0,0-.629.68,0.932,0.932,0,0,1-.3.378,6.992,6.992,0,0,0-1.448,1.644,9.6,9.6,0,0,1-.692,1.066,2.923,2.923,0,0,0-.3.42q-0.075.143-1.056,1.5a3.79,3.79,0,0,0-.979,1.41v0.151l-0.1.067-0.226.034-0.2.268a0.346,0.346,0,0,1-.3.235,5.917,5.917,0,0,1-.978,1.46q-0.126.051-1.315,0.806a8.957,8.957,0,0,0-1.264.873,1.312,1.312,0,0,1-.835.335l-0.2.185a1.844,1.844,0,0,0-.784,1.443h0Zm33.613,2.761a0.869,0.869,0,0,1,.29-0.176,0.4,0.4,0,0,0,.252-0.269,0.56,0.56,0,0,1,.252-0.318,1.363,1.363,0,0,0,.365-0.378,2.676,2.676,0,0,1,.215-0.294l0.151-.134a0.4,0.4,0,0,1,.226-0.168,0.43,0.43,0,0,0,.252-0.285l0.2-.47-0.076-.336a0.67,0.67,0,0,1,.277-0.218l0.05-.134-0.05-1.377-0.277-.587a8.487,8.487,0,0,1-.6-0.655,1.182,1.182,0,0,1-.58-0.2,3.325,3.325,0,0,1,.428-0.453,0.684,0.684,0,0,0-.491-0.688,7.836,7.836,0,0,0-.959-0.294,3.1,3.1,0,0,1-.516-0.143,8.736,8.736,0,0,0-.984-0.218l-0.732-.168a1.565,1.565,0,0,0-.529.126,3.757,3.757,0,0,1-.631.185c-0.2.039-.42,0.084-0.655,0.134a2.876,2.876,0,0,1-.555.076,7.479,7.479,0,0,0-2.081.478,7.882,7.882,0,0,0-1.715.705,2.083,2.083,0,0,1-.858.344,3.576,3.576,0,0,0-.92.3,1.267,1.267,0,0,1-.782.436,3.594,3.594,0,0,0-1.046.63,1,1,0,0,1-.58.319,1.5,1.5,0,0,0-.744.453,1.227,1.227,0,0,0-.4.529l0.153,0.419-0.051.3q0,0.235.457,0.235a0.641,0.641,0,0,0,.608-0.31,1.523,1.523,0,0,1,.229-0.344l0.3,0.067a0.3,0.3,0,0,0,.292-0.185,0.446,0.446,0,0,1,.341-0.235,1,1,0,0,0,.5-0.3c0.168,0.09.235,0.162,0.2,0.218l-0.6,1.343v0.537a1.111,1.111,0,0,1-.252.285l0.05,0.37-0.05.319v0.067a1.619,1.619,0,0,0,.4.839,2.318,2.318,0,0,0,.831.738l0.353,0.2a1.025,1.025,0,0,0,.39.235,1.842,1.842,0,0,1,.516.3,0.991,0.991,0,0,0,.542.235,1.03,1.03,0,0,1,.491.159,0.818,0.818,0,0,0,.429.143,1.956,1.956,0,0,0,.428-0.1l0.4,0.034a2.306,2.306,0,0,0,.983-0.126,1.066,1.066,0,0,1,.516-0.143,2.61,2.61,0,0,0,.706-0.151,4.688,4.688,0,0,1,.667-0.184,3.973,3.973,0,0,0,.907-0.37l0.252,0.034a1.107,1.107,0,0,0,.517-0.3,1.058,1.058,0,0,1,.617-0.3,0.358,0.358,0,0,1,.2.067l1.185-.688A0.708,0.708,0,0,0,254.908,353.23Zm-8.364.059,0.1-.621,0.1-.218a0.382,0.382,0,0,0-.176-0.2,0.51,0.51,0,0,1-.176-0.167,0.335,0.335,0,0,1,.264-0.277,0.846,0.846,0,0,0,.34-0.21,1.445,1.445,0,0,1,.276-0.655l0.452-.755q0.4-.269.653-0.47l0.277-.218a0.71,0.71,0,0,0,.5-0.554l0.3-.2a1.1,1.1,0,0,0,.7-0.219,1.193,1.193,0,0,1,.326-0.218h0.327a1.015,1.015,0,0,0,.3-0.285,0.4,0.4,0,0,1,.3-0.2,5.669,5.669,0,0,1,.578.168,4.726,4.726,0,0,0,1.783-.621,4.515,4.515,0,0,1,.578-0.134c0.1,0,.151.034,0.151,0.1a1.824,1.824,0,0,1-.591.394,0.909,0.909,0,0,0-.59.713,0.771,0.771,0,0,0,.54.789,0.657,0.657,0,0,1,.541.554,2.1,2.1,0,0,1-.152.655l-0.477.6a0.285,0.285,0,0,1-.1.252l-0.2.2a0.772,0.772,0,0,1-.377.378,1.476,1.476,0,0,0-.49.419,1.463,1.463,0,0,1-.729.445,0.6,0.6,0,0,0-.514.554l-0.1.034h-0.351a0.687,0.687,0,0,0-.239.251,0.564,0.564,0,0,1-.465.252,1.668,1.668,0,0,0-.741.26,2.538,2.538,0,0,1-1.243.26,6.183,6.183,0,0,1-.754-0.067l-0.125-.033h-0.4l-0.051-.034-0.1-.386Zm17.945-13.377a2.381,2.381,0,0,0-.818.118,1.589,1.589,0,0,1-.416.117l-0.4.067a6.108,6.108,0,0,1-.893.126,3.419,3.419,0,0,0-.957.193,1.46,1.46,0,0,1-.566.135l-0.328-.034-1.032.185a9.408,9.408,0,0,0-1.46.31,1.536,1.536,0,0,1-.478.126h-0.1l-0.277-.067h-0.05l-1.033.268q-4.279.27-4.279,1.931a1.077,1.077,0,0,0,.34.679,0.91,0.91,0,0,0,.591.378l0.2-.034a6.969,6.969,0,0,1,1.359-.688l2.568-.47c0.168,0.023.269,0.034,0.3,0.034a4.044,4.044,0,0,0,1.183-.285l0.579,0.033a1.772,1.772,0,0,1,.605-0.168h0.226l1.032-.2a7.068,7.068,0,0,1,2.241-.4l1.108-.084,0.352,0.034a0.511,0.511,0,0,0,.277-0.151,2,2,0,0,1,.554-0.3,1.123,1.123,0,0,1,.5.151l1.083-.353a0.641,0.641,0,0,1,.151.134,1.787,1.787,0,0,1-.517.965,5.458,5.458,0,0,0-.643.814,8.7,8.7,0,0,1-1.613,1.385,12.68,12.68,0,0,1-1.978,1.318,0.851,0.851,0,0,0-.593.654l-0.125.067h-0.2l-0.151.067-0.051.135-0.252.1a0.43,0.43,0,0,0-.479.42l-0.1.067a0.869,0.869,0,0,0-.5.26,5.593,5.593,0,0,1-.957.613,1.449,1.449,0,0,0-.656.47,0.4,0.4,0,0,1-.378.218,0.757,0.757,0,0,0-.5.285,1.258,1.258,0,0,1-.6.386,0.608,0.608,0,0,0-.4.655,0.825,0.825,0,0,1,.252.2,0.456,0.456,0,0,1-.164.227,0.44,0.44,0,0,0-.164.294c0,0.313.11,0.47,0.328,0.47a0.42,0.42,0,0,0,.227-0.084,1.99,1.99,0,0,1,.416-0.185,0.9,0.9,0,0,0,.441-0.3,1.613,1.613,0,0,0,1.236-.688,0.968,0.968,0,0,0,.782-0.554l0.1-.034a0.618,0.618,0,0,0,.706-0.486l0.1-.034a1.037,1.037,0,0,0,.832-0.352,1.2,1.2,0,0,1,.833-0.4,4.471,4.471,0,0,1,.832-0.789,0.716,0.716,0,0,1,.2.067l0.2-.235a3.411,3.411,0,0,0,.63-0.386,0.742,0.742,0,0,1,.4-0.2c0.067,0,.1.011,0.1,0.033a1.475,1.475,0,0,0-.352.269v0.52l-0.581,1.444,0.1,0.352-0.152,1.477,0.152,0.336-0.051.654a5.355,5.355,0,0,0,.656,1.662,2.117,2.117,0,0,0,1.992,1.292,1.282,1.282,0,0,0,.618-0.218,0.683,0.683,0,0,0,.391-0.445,1.577,1.577,0,0,1,.1-0.419,0.911,0.911,0,0,0,.076-0.294,2.058,2.058,0,0,0-.745-1.754,1.489,1.489,0,0,1-.744-1.032,0.2,0.2,0,0,1,.1-0.1,1.92,1.92,0,0,1-.152-0.554l0.152-.755-0.051-.269a1.7,1.7,0,0,0,.4-0.923v-0.1a0.952,0.952,0,0,1-.05-0.185,8.957,8.957,0,0,1,.353-0.856l-0.1-.269a0.561,0.561,0,0,1,.3-0.453l0.076-.134a0.208,0.208,0,0,1,.075-0.185,0.94,0.94,0,0,0,.2-0.36,1.788,1.788,0,0,1,.4-0.588q0.276-.276.555-0.512l0.453-.453a2.541,2.541,0,0,0,.429-0.277,1.017,1.017,0,0,1,.5-0.21l0.1-.1a0.952,0.952,0,0,1,.731-0.437l1.134-1.376a0.6,0.6,0,0,0,.252-0.151,1.891,1.891,0,0,1,1.033-.822l1.285-.168a3.76,3.76,0,0,1,.478-0.067l0.6-.068q1.258-.251,1.335-0.251a2.058,2.058,0,0,0,.453-0.067,2.232,2.232,0,0,1,.529-0.068c0.066,0,.1.012,0.1,0.034a2.171,2.171,0,0,0,.63.453,1.779,1.779,0,0,0,1.158-.5l1.158-.974a2.136,2.136,0,0,1,.39-0.57,0.75,0.75,0,0,0,.239-0.353q0-.486-0.831-0.487h-0.1l-0.353.1a3.693,3.693,0,0,0-1.2.176,1.346,1.346,0,0,1-.415.143l-0.2-.05h-0.3a4.2,4.2,0,0,1-.6.134,7.937,7.937,0,0,0-.843.185c-0.445.112-.684,0.167-0.718,0.167a1.2,1.2,0,0,1-.428-0.1l-0.151.033a2.141,2.141,0,0,1-.554.135c-0.285,0-.427-0.045-0.427-0.135a0.39,0.39,0,0,1,.037-0.176,0.691,0.691,0,0,0,.025-0.3,0.831,0.831,0,0,1,.114-0.453,1.865,1.865,0,0,0,.126-0.244l-0.252-.637a0.938,0.938,0,0,0-.881-0.806,2.242,2.242,0,0,0-1.232.587,0.706,0.706,0,0,1-.6.319,0.347,0.347,0,0,0-.2.177,1.438,1.438,0,0,1-.226.26,2.527,2.527,0,0,1-.856.822,2.161,2.161,0,0,0-.767.7,0.933,0.933,0,0,1-.541.478l-0.407-.034a0.34,0.34,0,0,0-.127.034,2.843,2.843,0,0,1-.394.1,6.917,6.917,0,0,0-.787.226,3.318,3.318,0,0,1-1.074.16h-0.05l-0.227-.067h-0.05l-0.252.167-0.352.067a2.652,2.652,0,0,0-.378-0.067h0Zm18.193,13.318a0.863,0.863,0,0,1,.289-0.176,0.4,0.4,0,0,0,.253-0.269,0.562,0.562,0,0,1,.251-0.318,1.366,1.366,0,0,0,.366-0.378,2.726,2.726,0,0,1,.214-0.294l0.151-.134a0.4,0.4,0,0,1,.227-0.168,0.433,0.433,0,0,0,.252-0.285l0.2-.47-0.075-.336a0.67,0.67,0,0,1,.277-0.218l0.05-.134-0.05-1.377-0.277-.587a8.75,8.75,0,0,1-.606-0.655,1.182,1.182,0,0,1-.58-0.2,3.384,3.384,0,0,1,.429-0.453,0.684,0.684,0,0,0-.492-0.688,7.822,7.822,0,0,0-.958-0.294,3.171,3.171,0,0,1-.517-0.143,8.678,8.678,0,0,0-.984-0.218l-0.731-.168a1.569,1.569,0,0,0-.53.126,3.774,3.774,0,0,1-.63.185q-0.3.058-.656,0.134a2.857,2.857,0,0,1-.555.076,7.474,7.474,0,0,0-2.08.478,7.858,7.858,0,0,0-1.715.705,2.089,2.089,0,0,1-.858.344,3.563,3.563,0,0,0-.92.3,1.272,1.272,0,0,1-.782.436,3.579,3.579,0,0,0-1.046.63,1.006,1.006,0,0,1-.581.319,1.5,1.5,0,0,0-.743.453,1.218,1.218,0,0,0-.4.529l0.152,0.419-0.051.3c0,0.157.153,0.235,0.457,0.235a0.644,0.644,0,0,0,.609-0.31,1.537,1.537,0,0,1,.228-0.344l0.305,0.067a0.3,0.3,0,0,0,.291-0.185,0.447,0.447,0,0,1,.342-0.235,1.006,1.006,0,0,0,.5-0.3c0.168,0.09.235,0.162,0.2,0.218l-0.6,1.343v0.537a1.112,1.112,0,0,1-.251.285l0.05,0.37-0.05.319v0.067a1.624,1.624,0,0,0,.4.839,2.32,2.32,0,0,0,.832.738l0.352,0.2a1.029,1.029,0,0,0,.391.235,1.87,1.87,0,0,1,.516.3,0.991,0.991,0,0,0,.542.235,1.03,1.03,0,0,1,.491.159,0.813,0.813,0,0,0,.429.143,1.969,1.969,0,0,0,.428-0.1l0.4,0.034a2.3,2.3,0,0,0,.982-0.126,1.073,1.073,0,0,1,.517-0.143,2.6,2.6,0,0,0,.7-0.151,4.7,4.7,0,0,1,.668-0.184,3.973,3.973,0,0,0,.907-0.37l0.252,0.034a1.105,1.105,0,0,0,.516-0.3,1.063,1.063,0,0,1,.618-0.3,0.36,0.36,0,0,1,.2.067l1.184-.688A0.713,0.713,0,0,0,282.682,353.23Zm-8.365.059,0.1-.621,0.1-.218a0.381,0.381,0,0,0-.177-0.2,0.522,0.522,0,0,1-.176-0.167,0.335,0.335,0,0,1,.265-0.277,0.841,0.841,0,0,0,.339-0.21,1.45,1.45,0,0,1,.277-0.655l0.452-.755c0.268-.179.485-0.336,0.653-0.47l0.277-.218a0.714,0.714,0,0,0,.5-0.554l0.3-.2a1.1,1.1,0,0,0,.7-0.219,1.193,1.193,0,0,1,.326-0.218h0.327a1.013,1.013,0,0,0,.3-0.285,0.408,0.408,0,0,1,.3-0.2,5.615,5.615,0,0,1,.577.168,4.726,4.726,0,0,0,1.784-.621,4.475,4.475,0,0,1,.578-0.134c0.1,0,.151.034,0.151,0.1a1.824,1.824,0,0,1-.591.394,0.907,0.907,0,0,0-.59.713,0.77,0.77,0,0,0,.54.789,0.655,0.655,0,0,1,.54.554,2.088,2.088,0,0,1-.151.655l-0.477.6a0.282,0.282,0,0,1-.1.252l-0.2.2a0.772,0.772,0,0,1-.377.378,1.473,1.473,0,0,0-.489.419,1.473,1.473,0,0,1-.729.445,0.6,0.6,0,0,0-.515.554l-0.1.034h-0.352a0.7,0.7,0,0,0-.239.251,0.561,0.561,0,0,1-.464.252,1.66,1.66,0,0,0-.741.26,2.54,2.54,0,0,1-1.244.26,6.17,6.17,0,0,1-.753-0.067l-0.126-.033h-0.4l-0.05-.034-0.1-.386Zm10.442,11.866a2.376,2.376,0,0,0,.655-0.285l0.478-.286a3.336,3.336,0,0,0,1.486-.755,2.271,2.271,0,0,1,.78-0.369q1.359-.739,1.334-1.074l0.151-.1,0.252-.034a2.509,2.509,0,0,0,.667-0.377,1.488,1.488,0,0,0,.6-0.554c0.025-.118.041-0.19,0.05-0.218a1.61,1.61,0,0,1,.541-0.126,6.137,6.137,0,0,0,1.712-1.645l0.252,0.067a1.25,1.25,0,0,0,.478-0.688,0.776,0.776,0,0,1,.755-0.554,2.292,2.292,0,0,0,.631-0.6,2.55,2.55,0,0,0,.354-0.5q0.252-.168.4-0.251a0.223,0.223,0,0,1-.051-0.135c0-.089.067-0.134,0.2-0.134a0.99,0.99,0,0,1,.366.075,2.376,2.376,0,0,0,.517.126v0.068l0.152-.034a1.976,1.976,0,0,0,.731.218,3.593,3.593,0,0,0,1.537-.453,5.137,5.137,0,0,0,.277-0.655,1.1,1.1,0,0,0-.491-0.595,3.253,3.253,0,0,0-.881-0.537,3.708,3.708,0,0,1-.442-0.177,1.511,1.511,0,0,0,.4-0.621,1.258,1.258,0,0,1,.428-0.721l-0.05-.235a0.115,0.115,0,0,1,.1-0.1l0.251-.168q0.479-.789.605-0.973a8.727,8.727,0,0,0,1.007-2.048,3.256,3.256,0,0,1,.616-0.638,1.587,1.587,0,0,0,.517-1.259,5.648,5.648,0,0,0-.227-0.99l-0.1-.084V346.71a0.739,0.739,0,0,0-.755-0.336,1.74,1.74,0,0,0-.478.168l-0.353.168a1,1,0,0,1-.3.251,0.766,0.766,0,0,1-.289-0.553,0.677,0.677,0,0,0-.693-0.554h-0.478a3.006,3.006,0,0,0-.631.084l-0.909.168a2.791,2.791,0,0,1-1.085.369,1.118,1.118,0,0,1-.53.134l-0.353-.034a11.3,11.3,0,0,0-1.817.319l-0.454.135a5.592,5.592,0,0,0-.921.251,1.039,1.039,0,0,1-.315.109,5.49,5.49,0,0,0-.808.311l-1.287.571q-0.681.3-1.262,0.621t-2.271,1.443l-1.611,1.057-0.629.521a0.987,0.987,0,0,0-.856.99q0,0.336.6,0.336a1.054,1.054,0,0,0,.34-0.1,1.149,1.149,0,0,1,.441-0.1h0.05q0.3,1.511,1.032,1.637a6.219,6.219,0,0,1,1.082.26,2.969,2.969,0,0,0,1.03-.176,5.453,5.453,0,0,1,.6-0.244l0.427-.1,0.729-.335a1.216,1.216,0,0,0,.9-0.453h0.377a1.629,1.629,0,0,1,.5-0.1,0.539,0.539,0,0,0,.3-0.353c0-.178.176-0.268,0.528-0.268l0.252,0.033,0.2-.167a1.067,1.067,0,0,1,.49-0.177,1.953,1.953,0,0,0,.817-0.411,0.5,0.5,0,0,1,.252-0.335l0.3,0.033c0.352-.145.586-0.235,0.7-0.268a0.273,0.273,0,0,0,.176-0.084l0.151-.168,0.2-.034a0.86,0.86,0,0,1,.578-0.352,5.256,5.256,0,0,0,.553-0.4,7.279,7.279,0,0,0,1.561-.621c0.067,0,.1.023,0.1,0.067l-0.428.621,0.176,0.3a0.432,0.432,0,0,1-.214.126,1,1,0,0,0-.415.5l0.151,0.286q0,0.033-.051.033a3.521,3.521,0,0,0-.4.5,1.016,1.016,0,0,1-.29.328,0.356,0.356,0,0,0-.164.2q-0.075.168-.176,0.453-0.441.537-.55,0.7a4.16,4.16,0,0,1-.27.361,2.8,2.8,0,0,1-1.325.336,11.105,11.105,0,0,0-1.721.31l-0.68.134h-0.2q-0.78.387-.982,0.521l-1.46.268a3.576,3.576,0,0,0-.7.252l-0.252.235q-0.855.418-1.825,1.015a3.493,3.493,0,0,0-.969.7,2.255,2.255,0,0,0-.73.554l-0.1.134a9.1,9.1,0,0,1-.805.789,6.233,6.233,0,0,0-1.02,1.233q-0.542.815-.541,0.831a2.267,2.267,0,0,1-.365.663,2.687,2.687,0,0,0-.315,1.5,1.58,1.58,0,0,0,.592,1.141,1.78,1.78,0,0,0,1.221.554,1.408,1.408,0,0,0,.528-0.1l0.4-.185Zm7.755-13.83-0.277.3a2.838,2.838,0,0,0-1.133.47,0.985,0.985,0,0,1-.566.286,0.758,0.758,0,0,0-.516.285l-0.957-.034a0.671,0.671,0,0,0-.277.135,4.9,4.9,0,0,1-.893.377,3.548,3.548,0,0,1-.945.244c-0.117,0-.176-0.034-0.176-0.1a1.212,1.212,0,0,1,.265-0.529,1.359,1.359,0,0,1,.415-0.445l0.252-.134a1.785,1.785,0,0,1,.465-0.277,2.142,2.142,0,0,0,.592-0.4,1.6,1.6,0,0,1,.806-0.377,0.893,0.893,0,0,1,.541-0.285,3.035,3.035,0,0,0,.994-0.521,1.106,1.106,0,0,0,.315-0.184,2.576,2.576,0,0,1,.516-0.286,1.4,1.4,0,0,0,.579-0.067l0.2-.067a0.386,0.386,0,0,0,.327-0.176,0.514,0.514,0,0,1,.365-0.21,2.035,2.035,0,0,0,.541-0.168l0.453-.252q0.806-.234,1.259-0.4l0.5,0.033a1.013,1.013,0,0,0,.365-0.134,1.336,1.336,0,0,1,.617-0.134c0.1,0,.151.022,0.151,0.067a0.743,0.743,0,0,1-.227.428,0.845,0.845,0,0,1-.529.3,1.209,1.209,0,0,0-.679.529l-0.252.117a3.734,3.734,0,0,0-1.435.839,1.123,1.123,0,0,1-.592.286,1.085,1.085,0,0,0-.516.2l-0.3.285h-0.252Zm0.752,5.455a0.144,0.144,0,0,1-.1.151l-0.352.2a3.234,3.234,0,0,1-.982,1.024l-0.68.755a1.376,1.376,0,0,1-.541.546,1.691,1.691,0,0,0-.214.042l-0.1.218a1.059,1.059,0,0,0-.44.327,2.271,2.271,0,0,1-.617.487q-0.478.294-1.057,0.629a0.551,0.551,0,0,1-.34.336,1.706,1.706,0,0,0-.491.336,1.842,1.842,0,0,1-.667.3,3.139,3.139,0,0,0-.844.361c-0.319.184-.5,0.288-0.554,0.31l-1.485.4a0.858,0.858,0,0,0-.428.118,0.516,0.516,0,0,1-.3-0.42q0-.017.138-0.5a2.46,2.46,0,0,1,.214-0.579l0.151-.235a0.757,0.757,0,0,1,.24-0.562,0.945,0.945,0,0,0,.314-0.487,0.832,0.832,0,0,1,.491-0.512,1.609,1.609,0,0,0,.491-0.277,0.855,0.855,0,0,1,.3-0.193,1.578,1.578,0,0,0,.5-0.5h0.05a2.22,2.22,0,0,0,.252.033,1.369,1.369,0,0,0,.654-0.654,1.422,1.422,0,0,0,.529-0.177,2.16,2.16,0,0,1,.5-0.21,2.466,2.466,0,0,1,.377-0.234,0.293,0.293,0,0,1,.252-0.068,1.627,1.627,0,0,0,.617-0.209,5.465,5.465,0,0,1,1.4-.378,3.024,3.024,0,0,0,1.334-.453,0.162,0.162,0,0,1,.151-0.1,1.1,1.1,0,0,1,.428.134l0.756-.067Zm12.695-9.55a2.966,2.966,0,0,0-1.12.512,2.989,2.989,0,0,1-.907.487,0.816,0.816,0,0,0-.491.277,0.624,0.624,0,0,1-.5.2,3.754,3.754,0,0,0-1.271.52,1.467,1.467,0,0,0-.869,1.309,0.345,0.345,0,0,0,.378.4,1.351,1.351,0,0,0,.894-0.218,2.027,2.027,0,0,1,.441-0.319l0.5-.084a2.726,2.726,0,0,1,.528-0.134,5.6,5.6,0,0,1,.605-0.47,0.822,0.822,0,0,0,.579-0.185,1.246,1.246,0,0,1,.252-0.2q0.78-.134.932-0.168a0.734,0.734,0,0,0,.353-0.352l0.428-.135a1.9,1.9,0,0,1,.717-0.394,2.436,2.436,0,0,0,.542-0.21,3.385,3.385,0,0,1,.667-0.252,1.576,1.576,0,0,0,.692-0.344,0.406,0.406,0,0,1,.277-0.176c0.436,0,.655.163,0.655,0.487a0.8,0.8,0,0,1-.2.3,0.4,0.4,0,0,0-.251.26,0.767,0.767,0,0,1-.152.26l-0.327.3a1.475,1.475,0,0,1-.428.537,7.994,7.994,0,0,0-1.007,1.192,1.37,1.37,0,0,1-.39.63,0.813,0.813,0,0,0-.29.36,2.667,2.667,0,0,1-.251.512,2.4,2.4,0,0,0-.2,1.15,1.052,1.052,0,0,0,.277.478,4.181,4.181,0,0,1,.453.68,2.02,2.02,0,0,0,1.07.671q0.892,0.336.919,0.336l0.73-.034,0.4-.083a1.577,1.577,0,0,1,.377.117l0.6-.218,0.73-.1a6.584,6.584,0,0,1,1.611-.621c0.268,0,.4-0.078.4-0.235v-0.033l-0.151-.168c0-.1.1-0.151,0.3-0.151h0.1l0.151,0.033a2,2,0,0,0,.377-0.134l0.1-.168a0.232,0.232,0,0,1,.2-0.235,0.678,0.678,0,0,1,.2.067,0.651,0.651,0,0,0,.2.067,0.944,0.944,0,0,0,.39-0.209,8.412,8.412,0,0,1,1.07-.6,11.38,11.38,0,0,0,1.208-.671,2.144,2.144,0,0,1,.667-0.336,0.606,0.606,0,0,0,.39-0.42,0.547,0.547,0,0,0,.478-0.277,0.72,0.72,0,0,1,.265-0.344,0.383,0.383,0,0,0,.189-0.2,0.2,0.2,0,0,0-.051-0.151l-0.05-.269v-0.1a0.458,0.458,0,0,0,.252-0.353c0-.224-0.177-0.336-0.529-0.336a1.166,1.166,0,0,0-.894.445,2.223,2.223,0,0,1-.44.445,3.369,3.369,0,0,0-.831.352,10,10,0,0,1-1.359.806,5.965,5.965,0,0,0-.768.394,2.635,2.635,0,0,1-.73.311,3.281,3.281,0,0,0-.793.327,3.179,3.179,0,0,1-.844.328,4.512,4.512,0,0,0-.754.234,3.149,3.149,0,0,1-.731.2,2.041,2.041,0,0,0-.616.176,0.848,0.848,0,0,1-.252.109l-0.353-.067a2.591,2.591,0,0,1-.377.1q-0.982,0-.982-0.252a0.454,0.454,0,0,1,.189-0.269,1.178,1.178,0,0,0,.289-0.377,0.682,0.682,0,0,1,.2-0.277l0.2-.2a2.448,2.448,0,0,1,.315-0.387,0.317,0.317,0,0,0,.113-0.134v-0.3a0.6,0.6,0,0,1,.5-0.252,3.361,3.361,0,0,0,.528-0.6l0.252-.117a8.448,8.448,0,0,1,1.687-1.259,1.337,1.337,0,0,0,.428-0.906,3.241,3.241,0,0,0-.365-0.89,5.566,5.566,0,0,0-.567-0.957l-0.151-.251a1.342,1.342,0,0,0-1.611-1.226,3.9,3.9,0,0,0-2.215.621,1.368,1.368,0,0,1-.378.235,0.528,0.528,0,0,0-.227.135,6.885,6.885,0,0,1-1.762.923l-0.151.218-0.378.067Zm30.062,4-0.251.067a1.6,1.6,0,0,0-.515.344,2.432,2.432,0,0,1-1.167.445,0.445,0.445,0,0,1-.176-0.42l0.1-.47-0.051-.42a0.469,0.469,0,0,1,.214-0.31,0.479,0.479,0,0,0,.214-0.277V350.15l0.353-.688a0.962,0.962,0,0,1,.151-0.3,2.647,2.647,0,0,0,1.46-2.064,0.893,0.893,0,0,0-1.082-.923,2.425,2.425,0,0,0-1.978.612,1.29,1.29,0,0,1-.718.613,0.283,0.283,0,0,1-.252-0.3,1.5,1.5,0,0,0-1.714-1.444,0.816,0.816,0,0,0-.252.034l-0.4.134h-0.05a2.094,2.094,0,0,0-.479-0.134h-0.151a13.28,13.28,0,0,1-1.336.42h-0.2a2.675,2.675,0,0,0-.9.218,9.314,9.314,0,0,1-1.159.361,3.4,3.4,0,0,0-1.059.444,2.629,2.629,0,0,1-.617.336,8.222,8.222,0,0,0-1.916.94l-0.756.5a2.948,2.948,0,0,0-.857.521,2.918,2.918,0,0,1-.6.461,0.531,0.531,0,0,0-.353.428l-0.252.218a2.85,2.85,0,0,0-.591.529,2.272,2.272,0,0,0-.441.529l0.051,0.453q-0.479,0-.479.2l0.051,0.554v0.1a0.481,0.481,0,0,0-.051.268,0.906,0.906,0,0,0,.227.655l0.252,0.688a1.244,1.244,0,0,0,.981.6,6.037,6.037,0,0,0,1.587.252,8.534,8.534,0,0,0,2.845-.889l0.151-.1q0.579-.2.881-0.336l1.914-1.04a1.763,1.763,0,0,0,.579-0.428,2.594,2.594,0,0,1,.277-0.294l0.479,0.033,0.251-.167a1.006,1.006,0,0,1,.454-0.193,0.538,0.538,0,0,0,.377-0.193l0.1-.1a2.153,2.153,0,0,0,.5-0.3,0.751,0.751,0,0,1,.328-0.42,1.125,1.125,0,0,0,.617-0.168,0.907,0.907,0,0,1,.365-0.167,0.089,0.089,0,0,1,.1.1l-0.151.823a0.388,0.388,0,0,0,.05.167,0.429,0.429,0,0,1,.05.185,0.114,0.114,0,0,1-.05.1,0.112,0.112,0,0,0-.05.1,0.265,0.265,0,0,0,.126.167,0.271,0.271,0,0,1,.125.168l-0.1.319a0.658,0.658,0,0,0,.226.529,0.716,0.716,0,0,1,.252.31,0.364,0.364,0,0,0,.176.218,3.785,3.785,0,0,1,.83.16,2.94,2.94,0,0,0,.881.126,1.35,1.35,0,0,0,.365-0.093,6.167,6.167,0,0,1,.8-0.193,2.206,2.206,0,0,0,.793-0.268l0.051-.168a4.822,4.822,0,0,0,.6-0.151,1.539,1.539,0,0,1,.742-0.336,0.7,0.7,0,0,0,.528-0.3,1.176,1.176,0,0,1,.743-0.386l0.252-.235a1.682,1.682,0,0,0,.591-0.369,1.067,1.067,0,0,1,.491-0.285l0.176-.219,0.1-.469a1.785,1.785,0,0,0,.5-1.142,0.452,0.452,0,0,0-.2-0.268,0.588,0.588,0,0,0-.351-0.168,1.164,1.164,0,0,0-.828.411,2,2,0,0,1-.866.546,0.725,0.725,0,0,0-.54.36,0.413,0.413,0,0,1-.452.227l-0.4.235a2.017,2.017,0,0,0-.527.42h0Zm-8.337-.185a2.1,2.1,0,0,1-.679.285l-0.529.269q-0.957.353-1.385,0.52a1.223,1.223,0,0,1-.5.294,1.826,1.826,0,0,0-.453.2,0.544,0.544,0,0,1-.252.109,0.546,0.546,0,0,0-.226.084l-0.479.168a1.389,1.389,0,0,0-.4.134,4.116,4.116,0,0,1-.742.244,4.222,4.222,0,0,1-.844.176q-0.478,0-.478-0.822a0.611,0.611,0,0,1,.289-0.361,0.841,0.841,0,0,0,.34-0.5,0.428,0.428,0,0,1,.353-0.352,1.965,1.965,0,0,0,.5-0.193l0.176-.286a2.746,2.746,0,0,1,.655-0.4,0.99,0.99,0,0,1,.781-0.588,3.591,3.591,0,0,0,1.183-.722,2.52,2.52,0,0,0,.957-0.327,5.115,5.115,0,0,1,1.473-.461,6.862,6.862,0,0,0,1.108-.244,1.983,1.983,0,0,1,.692-0.109l0.5,0.067,0.327-.033,0.353,0.117,0.478-.033,0.454,0.033,0.2-.084h0.05c0.067,0,.1.017,0.1,0.051a2.706,2.706,0,0,1-.894.738,12.755,12.755,0,0,1-1.372.839,1.127,1.127,0,0,1-.617.395,0.89,0.89,0,0,0-.617.562A1.405,1.405,0,0,0,327.686,351.04Zm11.231,3.541a1.083,1.083,0,0,0-.541.37,1.7,1.7,0,0,1-.491.419l-0.251.285a0.531,0.531,0,0,1-.391.219,0.582,0.582,0,0,0-.44.444,0.7,0.7,0,0,1-.227.428,4.782,4.782,0,0,0-.529.4,3.371,3.371,0,0,0-.629.646,0.732,0.732,0,0,0-.529.436l-0.352.453a6.088,6.088,0,0,0-.73.924,1.359,1.359,0,0,0-.692.5,1.683,1.683,0,0,1-.265.386,0.74,0.74,0,0,0-.176.26l-0.3.453a2.385,2.385,0,0,0-.5,1.158l-0.226.688a1.857,1.857,0,0,0,.44,1.343,4.06,4.06,0,0,1,.491.554,1.71,1.71,0,0,0,1.662.856l1.082-.453a3.043,3.043,0,0,0,.957-0.6,3.925,3.925,0,0,1,.579-0.5,0.543,0.543,0,0,0,.252-0.235,1.312,1.312,0,0,0,.478-0.839l0.151-.068,0.051-.167a0.369,0.369,0,0,0,.151-0.135l0.151-.319,0.251-.3,0.227-.554a4.07,4.07,0,0,0,.869-1.082,1.423,1.423,0,0,1,.516-0.663l0.05-.353a3.678,3.678,0,0,0,.5-0.822v-0.235l0.1-.168a1.289,1.289,0,0,0,.479-0.839,1.085,1.085,0,0,0,.4-0.52,0.23,0.23,0,0,1,.1-0.168l0.328-.269a13.039,13.039,0,0,1,.695-1.284,1.163,1.163,0,0,0,.239-0.579,0.442,0.442,0,0,1,.189-0.218,0.737,0.737,0,0,0,.214-0.218l0.2-.067a1.46,1.46,0,0,0,.478.2l0.251,0.269a1.91,1.91,0,0,0,.667.487,1.957,1.957,0,0,0,.718.268l0.579-.1h0.3a2.108,2.108,0,0,0,.252.034c0.067,0,.1-0.011.1-0.034a0.713,0.713,0,0,1,.377-0.235l0.4,0.068,0.453-.034a0.874,0.874,0,0,1,.227.034l0.805-.2a1.6,1.6,0,0,1,.529-0.168l0.2-.084a1.084,1.084,0,0,1,.453-0.167l0.528,0.067c0.034,0,.051-0.011.051-0.034l0.78-.2a1.3,1.3,0,0,1,.654-0.269h0.051l0.377,0.1c0.034,0,.051-0.011.051-0.034a2.142,2.142,0,0,1,.755-0.285h0.528a3.853,3.853,0,0,1,.328-0.252,2.181,2.181,0,0,0,.314-0.277,0.659,0.659,0,0,1,.239-0.193l0.453,0.034a5.577,5.577,0,0,0,1.963-1.024l0.252,0.034a1.528,1.528,0,0,1,.428-0.1l0.3-.42,0.1-.033h0.151a1.443,1.443,0,0,0,.78-0.47l0.453,0.1a0.484,0.484,0,0,0,.427-0.227,2.09,2.09,0,0,1,.806-0.529,1.96,1.96,0,0,0,.742-0.461,0.908,0.908,0,0,1,.516-0.294,1.018,1.018,0,0,0,.68-0.26,0.7,0.7,0,0,0,.3-0.428l-0.076-.185v-0.168l0.328-.335a0.476,0.476,0,0,0-.427-0.353,0.179,0.179,0,0,0-.1.034l-0.3.067a3.382,3.382,0,0,0-1.331.621,0.3,0.3,0,0,1-.238.134,1.119,1.119,0,0,0-.464.26,1.1,1.1,0,0,1-.54.261,1.2,1.2,0,0,0-.465.151,0.721,0.721,0,0,1-.351.117l-0.251.185a2.929,2.929,0,0,0-.527.335,1.565,1.565,0,0,0-.653.235q-0.376.219-.728,0.386l-0.2-.067-1.183.487a1.332,1.332,0,0,1-.654.3,0.33,0.33,0,0,1-.177-0.067,5.141,5.141,0,0,1,.844-0.688,7.5,7.5,0,0,0,1.12-.957q0.227-.771.3-0.94l0.554-.956v-0.034l-0.151-.269a0.4,0.4,0,0,1,.075-0.2,0.415,0.415,0,0,0,.076-0.151,1.5,1.5,0,0,0-.718-1.175,2.843,2.843,0,0,0-1.752-.537c-0.068,0-.1.011-0.1,0.034a0.515,0.515,0,0,1-.2.1l-0.58-.167a0.806,0.806,0,0,1-.454.134,8.432,8.432,0,0,0-1.614.235l-0.6.319a9.264,9.264,0,0,0-.984.436l-0.1.252-0.252.1a2.943,2.943,0,0,0-1.173.378,9.534,9.534,0,0,1-1.034.5,2.168,2.168,0,0,0-.617.344,2.286,2.286,0,0,1-.694.361,1.017,1.017,0,0,0-.618.487,1.075,1.075,0,0,1-.429.268c-0.067,0-.1-0.022-0.1-0.067l0.05-.134-0.05-.151,0.73-2.165a1.344,1.344,0,0,0-.705-1.158,2.577,2.577,0,0,0-.907-0.453h-0.5a1.947,1.947,0,0,1-.491.226,0.673,0.673,0,0,0-.39.26,11.172,11.172,0,0,1-1.875,1.444q-0.541.268-.692,0.369a0.961,0.961,0,0,0-.629.218l0.05,0.235a0.971,0.971,0,0,0-.453.067l-0.428.1a0.571,0.571,0,0,0-.353.185l-0.251.235a3.97,3.97,0,0,0-1.082.528,2.754,2.754,0,0,1-.882.437,0.816,0.816,0,0,0-.679.713,0.7,0.7,0,0,0,.83.755,1.3,1.3,0,0,0,.982-0.369l0.1-.1a3.505,3.505,0,0,0,.83-0.554l0.252-.033a5.346,5.346,0,0,1,.83-0.353q0.252-.3.4-0.5a1.811,1.811,0,0,1,.264.05,1.732,1.732,0,0,0,.264.051q0.454,0,.454-0.252l0.176-.47a0.547,0.547,0,0,1,.5-0.134h0.2a0.141,0.141,0,0,1,.151.167v0.068l-0.2.369-0.05.252a4.846,4.846,0,0,0-.73,1.443l-0.1.436-0.3.386-0.1.336q-0.049.068-.377,0.7l-0.6,1.192a0.4,0.4,0,0,1-.151.3l-0.277.251a0.873,0.873,0,0,0-.605.4h0Zm6.13-2.1a5.978,5.978,0,0,0-.629.336,0.568,0.568,0,0,1-.277.117,0.089,0.089,0,0,1-.1-0.1l0.151-.4a1.113,1.113,0,0,1,.756-0.772h0.075l-0.126-.336a2.041,2.041,0,0,1,.252-0.05,0.529,0.529,0,0,0,.227-0.084l0.981-.839a1.445,1.445,0,0,0,.454-0.336l0.629-.168a1.841,1.841,0,0,1,.5-0.319,0.51,0.51,0,0,1,.378-0.369h0.353a2.413,2.413,0,0,1,.591-0.445,4.381,4.381,0,0,0,.743-0.495l0.3,0.051,0.177-.084,0.3,0.033a1.332,1.332,0,0,1,.642-0.251,0.917,0.917,0,0,0,.465-0.135,1,1,0,0,1,.416-0.151,0.621,0.621,0,0,0,.365-0.159,0.385,0.385,0,0,1,.277-0.126,1.181,1.181,0,0,1,.5.151v0.033l0.63-.184a1.519,1.519,0,0,1,.352.554,1.1,1.1,0,0,1-.1.235l-0.151.218a3.149,3.149,0,0,1-.553.789l-0.882.856-0.83.621a5.342,5.342,0,0,1-.894.73,1.054,1.054,0,0,0-.365.277q-0.076.117-.126,0.2a0.543,0.543,0,0,0-.151-0.033,0.822,0.822,0,0,0-.428.167,8.151,8.151,0,0,1-1.486.554,0.948,0.948,0,0,0-.466-0.369c-0.142-.034-0.273-0.067-0.39-0.1a1.166,1.166,0,0,0-.226-0.05q-0.077,0-.781.1l-0.881.1A2.189,2.189,0,0,0,345.047,352.483ZM333.61,363.007a2.187,2.187,0,0,1,.3-1.175l0.051-.3-0.051-.336a1.7,1.7,0,0,1,.34-0.31,0.831,0.831,0,0,0,.34-0.663l-0.1-.3h0.252a1.234,1.234,0,0,0,.353-0.486,1.106,1.106,0,0,0,.881-0.756v-0.234l0.428-.588a0.578,0.578,0,0,1,.5-0.268l0.1-.084a2.487,2.487,0,0,1,.4-0.605l0.377-.033a0.407,0.407,0,0,0,.252-0.21,0.552,0.552,0,0,1,.3-0.243q-0.6,1.175-.692,1.4a7.227,7.227,0,0,1-.39.764l-1.385,2.433a1.069,1.069,0,0,1-.252.252l-0.05.134a3.578,3.578,0,0,0-.428.437l-0.252.319a12.583,12.583,0,0,1-1.284,1.309v-0.453Zm23.829-12.538a0.419,0.419,0,0,0,.5.437,5.877,5.877,0,0,0,1.361-.5,2.567,2.567,0,0,1-.63,1.234,3.413,3.413,0,0,0-.718,1.04q-0.315.663-.315,0.68l0.05,0.3-0.151.353q0,0.016.328,0.52a0.985,0.985,0,0,0,.856.5,0.69,0.69,0,0,0,.29-0.1q0.189-.1.568-0.26a1.3,1.3,0,0,0,.592-0.487,0.934,0.934,0,0,1,.29-0.344,12.709,12.709,0,0,0,1.108-.739,6.191,6.191,0,0,0,1.034-.789,0.542,0.542,0,0,1,.6-0.553,0.62,0.62,0,0,1,.215.042,0.543,0.543,0,0,0,.164.042,0.62,0.62,0,0,0,.3-0.328,0.859,0.859,0,0,1,.731-0.361l0.252-.318a1.056,1.056,0,0,0,.832-0.437l0.4-.084,0.2-.268a3.61,3.61,0,0,0,.642-0.294,1.843,1.843,0,0,1,.693-0.26,2.445,2.445,0,0,1,1.084-.437,1.471,1.471,0,0,0,.68-0.52v-0.033l0.63,0.067a1.53,1.53,0,0,0,.4-0.378,0.433,0.433,0,0,1,.353-0.21,2.552,2.552,0,0,1,.378.1,0.456,0.456,0,0,0,.3.084,0.24,0.24,0,0,1,.251.268l-0.05.235,0.05,0.42a0.256,0.256,0,0,1-.05.2,7.855,7.855,0,0,0-.453,1.444l-0.252,1.024a0.8,0.8,0,0,0,.151.319l-0.226.234,0.125,0.353-0.05.336a0.488,0.488,0,0,0,.176.277,1.755,1.755,0,0,1,.327.486,0.733,0.733,0,0,0,.541.395,2.112,2.112,0,0,1,.591.2,0.684,0.684,0,0,0,.3.118,2.94,2.94,0,0,0,1.182-.151,6.393,6.393,0,0,1,.792-0.345,2.013,2.013,0,0,0,.515-0.226q0-.369.2-0.369l0.5,0.033a5.931,5.931,0,0,1,.779-0.487,0.791,0.791,0,0,1,.528-0.587l0.453,0.134a1.1,1.1,0,0,0,.628-0.5,3.33,3.33,0,0,0,1.195-.428,1.318,1.318,0,0,1,.54-0.277,0.661,0.661,0,0,0,.427-0.336l0.1-.168a2.211,2.211,0,0,0,.5-0.847,1.2,1.2,0,0,1,.176-0.479,0.634,0.634,0,0,0,.125-0.352q0-.252-0.351-0.252a1.43,1.43,0,0,0-.778.286l-0.15.134a9.7,9.7,0,0,0-1.681.764,4.246,4.246,0,0,0-.979.646,3.086,3.086,0,0,1-.9.394,0.416,0.416,0,0,0-.326.126,3.856,3.856,0,0,0-.678.487,0.64,0.64,0,0,1-.527.2,1.785,1.785,0,0,1-.552.3c-0.167,0-.251-0.056-0.251-0.168l0.05-.352-0.1-.436,0.1-.319a3.843,3.843,0,0,1,.352-0.789,5.9,5.9,0,0,0,.4-0.89l0.277-.822,0.2-1.041a0.9,0.9,0,0,0-.755-1.015,5.044,5.044,0,0,0-1.764-.327l-0.379.033-0.2-.033h-0.151a6.514,6.514,0,0,0-1.185.209,6.075,6.075,0,0,0-1.172.361,6.119,6.119,0,0,1-.883.344,2.415,2.415,0,0,0-.921.5,0.905,0.905,0,0,1-.529.31,0.465,0.465,0,0,0-.391.269,1.019,1.019,0,0,1-.82.319,0.4,0.4,0,0,0-.151.2,0.475,0.475,0,0,1-.252.235l-0.252-.033a4.061,4.061,0,0,1-.429.2l-0.252.117a1.733,1.733,0,0,1-.617.47,4.175,4.175,0,0,0-.932.672,1.962,1.962,0,0,1-.717.5c-0.1,0-.151-0.033-0.151-0.1a9.007,9.007,0,0,1,.5-0.789,2.052,2.052,0,0,0,.567-0.747,3.112,3.112,0,0,1,.742-0.948l0.353-.5a3.064,3.064,0,0,1,.352-0.655q1.863-1.745,1.863-1.762v-0.033a0.579,0.579,0,0,1-.1-0.269q0-.285.68-0.285l0.4,0.084a1.188,1.188,0,0,1,.352-0.286l0.2-.134,2.341-2.232a2.068,2.068,0,0,1,.68-0.789,0.878,0.878,0,0,0,.44-0.6,0.729,0.729,0,0,1,.164-0.437,2.642,2.642,0,0,0,1.032-1.846,0.584,0.584,0,0,1,.5-0.386l0.377-1.51a6.328,6.328,0,0,0,.3-0.722,1.59,1.59,0,0,0-.441-0.94,1.737,1.737,0,0,0-1.422-.537,0.878,0.878,0,0,0-.743.311,1.512,1.512,0,0,1-.466.428,1.006,1.006,0,0,0-.39.386,1.937,1.937,0,0,1-.478.511,5.565,5.565,0,0,0-.693.663l-0.528.588-0.3.352a2.509,2.509,0,0,0-.629.68,0.932,0.932,0,0,1-.3.378,6.992,6.992,0,0,0-1.448,1.644,9.6,9.6,0,0,1-.692,1.066,2.923,2.923,0,0,0-.3.42q-0.075.143-1.056,1.5a3.79,3.79,0,0,0-.979,1.41v0.151l-0.1.067-0.226.034-0.2.268a0.346,0.346,0,0,1-.3.235,5.917,5.917,0,0,1-.978,1.46q-0.126.051-1.315,0.806a8.957,8.957,0,0,0-1.264.873,1.312,1.312,0,0,1-.835.335l-0.2.185a1.841,1.841,0,0,0-.784,1.443h0Zm39.581,0.269-0.051-.386a2.432,2.432,0,0,0,.353-0.923,1.662,1.662,0,0,0,.629-1.309l0.05-.806a0.908,0.908,0,0,0-.6-0.646,2.609,2.609,0,0,0-1.258-.327,2.644,2.644,0,0,0-1.247.26,5,5,0,0,1-.881.377,5.355,5.355,0,0,0-.542.185,13.416,13.416,0,0,1-1.335.646q-1.008.445-2.167,0.9a3.754,3.754,0,0,1-1.814.755,2.8,2.8,0,0,1-.542.294,1.119,1.119,0,0,0-.39.243,1.764,1.764,0,0,1-.668.311q-0.516.159-.869,0.26l-0.479.168a0.88,0.88,0,0,0-.554.335l-0.63.185a4.511,4.511,0,0,1-.5.168l-0.226.067a2.738,2.738,0,0,1-1.084.3c-0.2,0-.3-0.056-0.3-0.168a1.216,1.216,0,0,1,.39-0.763,3.591,3.591,0,0,0,.516-0.672,3.436,3.436,0,0,1,.705-0.755,2.132,2.132,0,0,0,.667-0.822,1.744,1.744,0,0,1,.453-0.688,1.469,1.469,0,0,0,.366-1.066,0.665,0.665,0,0,0-.806-0.688,3.184,3.184,0,0,0-1.662.369l-1.356.789a4.28,4.28,0,0,0-.916.461q-0.515.327-.865,0.512l-0.15.235a5.012,5.012,0,0,0-1.555.823l-0.3.2a1.117,1.117,0,0,0-.728.487,0.383,0.383,0,0,0,.262.377,0.894,0.894,0,0,1,.386.277,1.115,1.115,0,0,0,.175.2,1.455,1.455,0,0,1,.349.1,0.423,0.423,0,0,0,.236-0.1,3.347,3.347,0,0,1,.436-0.252,1.353,1.353,0,0,0,.525-0.512,0.65,0.65,0,0,1,.552-0.361c0.1,0,.151.023,0.151,0.067v0.067a2.494,2.494,0,0,0-.629,1.41v0.135a0.409,0.409,0,0,1,.05.134,0.585,0.585,0,0,1-.2.285,0.907,0.907,0,0,0-.2.235l0.151,0.755a1.091,1.091,0,0,0,.732.63,2.838,2.838,0,0,0,1.084.361l0.832-.135,0.3,0.034h0.151a0.733,0.733,0,0,0,.492-0.218,0.726,0.726,0,0,1,.492-0.218l0.681,0.033a1.764,1.764,0,0,1,.984-0.386,0.792,0.792,0,0,1,.353-0.168l1.488-.688a2.251,2.251,0,0,0,.933-0.235,0.806,0.806,0,0,0,.605-0.344,0.62,0.62,0,0,1,.48-0.31c0.033,0,.134.011,0.3,0.033l0.782-.252a0.7,0.7,0,0,1,.3-0.4q0.126,0,.126.033l0.353,0.168h0.051l0.63-.269a0.864,0.864,0,0,0,.453-0.318l0.3-.034a1.167,1.167,0,0,0,.314-0.168,0.874,0.874,0,0,1,.416-0.168h0.1l0.4,0.067a1.265,1.265,0,0,0,.529-0.193,1.417,1.417,0,0,1,.453-0.193c0.067,0,.1.023,0.1,0.068a2.126,2.126,0,0,1-.3.688l-0.2.184a2.4,2.4,0,0,1-.151.437l-1.133,2.131a1.453,1.453,0,0,0-.276.134,1.421,1.421,0,0,1-.3.621l-0.05.068v0.218l-0.1.134,0.051,0.2v0.2a0.236,0.236,0,0,1-.2.151,0.963,0.963,0,0,0-.428.461,2.566,2.566,0,0,1-.3.462l0.1,0.369-0.05.084-0.454-.084v0.034a2.345,2.345,0,0,1-.479.654l-0.605.319a0.547,0.547,0,0,1-.3.067q-0.908,0-.882.521a1.069,1.069,0,0,1-.416.1,0.943,0.943,0,0,0-.618.47l-0.1.034h-0.151l-0.177.05a1.846,1.846,0,0,1-.579.369,3.61,3.61,0,0,0-.4.168l-0.856.554a0.5,0.5,0,0,1-.391.26,1.774,1.774,0,0,0-.441.16l-0.051.1a2.688,2.688,0,0,0-.441.445,1.656,1.656,0,0,1-.63.445,0.6,0.6,0,0,0-.441.52,1.378,1.378,0,0,0-.227.21,0.346,0.346,0,0,1-.277.092h-0.152a0.326,0.326,0,0,0-.1.286l-2.319,2.266a4.28,4.28,0,0,0-.579.788,1.753,1.753,0,0,1-.554.663,1.185,1.185,0,0,0-.428.621,6.432,6.432,0,0,0-.252.6v0.319l-0.05.134a0.6,0.6,0,0,0-.252.286,3.272,3.272,0,0,0,.164,1.166,2.382,2.382,0,0,0,1.309.881,11.237,11.237,0,0,0,1.549.554l0.983-.067,0.327-.134a3.241,3.241,0,0,0,.668-0.395,3.176,3.176,0,0,1,.667-0.394,0.52,0.52,0,0,0,.3-0.252l-0.1-.3H383.4a1.116,1.116,0,0,0,.453-0.134,0.478,0.478,0,0,0,.277-0.2L384,367.975c0-.124.218-0.185,0.655-0.185a0.764,0.764,0,0,0,.4-0.487,0.954,0.954,0,0,0-.151-0.235,1.8,1.8,0,0,0,.73-0.47,4.994,4.994,0,0,0,.668-0.629,1.156,1.156,0,0,1,.391-0.311l0.176-.318a0.64,0.64,0,0,1,.252-0.37l1.033-.923a1.479,1.479,0,0,0,.353-0.52,0.714,0.714,0,0,0,.378-0.352,0.064,0.064,0,0,0-.076-0.068l-0.151-.2v-0.1a1.562,1.562,0,0,0,.718-0.461,2.229,2.229,0,0,1,.466-0.47,0.711,0.711,0,0,0,.277-0.277l-0.1-.336a0.745,0.745,0,0,0,.4-0.386v-0.168a1.19,1.19,0,0,0,.832-0.889v-0.151a0.4,0.4,0,0,1-.051-0.135,0.272,0.272,0,0,1,.1-0.167l0.2-.235a2.809,2.809,0,0,1,.567-0.6,0.637,0.637,0,0,0,.29-0.353,0.959,0.959,0,0,1,.277-0.428,1.056,1.056,0,0,0,.681-0.889,0.433,0.433,0,0,1,.327-0.185,3.481,3.481,0,0,1,.744-0.134,7.324,7.324,0,0,0,.768-0.1l0.479-.168h1.034l0.756-.134h0.076a2.289,2.289,0,0,0,.453.1h0.1l0.353-.067,0.63,0.134a0.759,0.759,0,0,1,.731.487,1.793,1.793,0,0,0,.819.8,2.19,2.19,0,0,0,.971.319,0.553,0.553,0,0,0,.63-0.621,2.081,2.081,0,0,0-.24-1.141,2.39,2.39,0,0,0-1.186-.671,5.846,5.846,0,0,0-1.88-.319l-0.782.033a7.186,7.186,0,0,0-1.236.067l-0.934.151a2.694,2.694,0,0,0-.719.152,2.05,2.05,0,0,1-.366.117,0.512,0.512,0,0,1-.151-0.034,0.652,0.652,0,0,0-.2-0.033,0.77,0.77,0,0,0-.214.033,0.635,0.635,0,0,1-.164.034c-0.067,0-.1-0.022-0.1-0.067l0.579-.957q0.25-.453.428-0.856a1.085,1.085,0,0,1,.415-0.537,0.409,0.409,0,0,0,.239-0.369l0.3-.3a1.011,1.011,0,0,1,.428-0.755c0.067-.235.1-0.364,0.1-0.386v-0.068l-0.05-.134v-0.185a1.034,1.034,0,0,0,.554-0.335h0Zm-13.473,14.316a4.389,4.389,0,0,0-.943,1.158,0.37,0.37,0,0,1-.34.269,0.751,0.751,0,0,0-.491.453,0.61,0.61,0,0,0-.352.134l-0.4.521a2.053,2.053,0,0,1-1.082.637l-0.756.252c-0.067,0-.1-0.022-0.1-0.067a2.509,2.509,0,0,1,.327-0.973l-0.1-.068a0.3,0.3,0,0,1-.226-0.2,0.116,0.116,0,0,1,.1-0.1,23.425,23.425,0,0,0,.756-1.049,3.2,3.2,0,0,1,.327-0.528,2.073,2.073,0,0,0,.931-1.595l0.478-.168a1.724,1.724,0,0,1,.554-0.621,0.533,0.533,0,0,0,.289-0.2,1.737,1.737,0,0,1,.34-0.311,0.421,0.421,0,0,0,.2-0.209l-0.15-.4a0.174,0.174,0,0,1,.15-0.151,1.825,1.825,0,0,0,.252.084h0.1a0.835,0.835,0,0,0,.541-0.411,1.4,1.4,0,0,1,.528-0.487,2.953,2.953,0,0,0,.617-0.361l0.478-.336a6.631,6.631,0,0,1,.679-0.537l1.61-.906a1.811,1.811,0,0,0,.5-0.235c0.1,0,.151.078,0.151,0.235V359a2.192,2.192,0,0,0-.831.923,2.081,2.081,0,0,1-.277.412,4.418,4.418,0,0,0-.327.444l-0.981,1.108-0.352.218a0.892,0.892,0,0,0-.05.42,1.564,1.564,0,0,0-.68.94,0.616,0.616,0,0,0-.352.235l-0.126.235A9.266,9.266,0,0,1,383.547,365.054Z"/>
  <path id="Color_Fill_7" data-name="Color Fill 7" class="cls-3" d="M185,220c3.245,0.828,1.528-.49,3,2h-2a2.834,2.834,0,0,1-1,1v-3Zm13,7c2.542,1.455,1.128-.217,2,3h-2c-0.74-.872-1.26-1.128-2-2C197.754,227.369,196.971,227.807,198,227Zm-31,7c2.839,0.82,3.627-.74,5,2-2.966,1.562.012,1.174-2,4-1.988-2.207-1.507-1.409-5-2v-2C167.467,234.705,165.681,236.429,167,234Zm23,0c3.245,0.828,1.528-.49,3,2a2.834,2.834,0,0,0-1,1A11.568,11.568,0,0,1,190,234Zm-41,7c0.8,1.021.355,0.274,1,2h-1v-2Zm31,1c2.273,1,2.774.745,4,3h-2c-1.677-.906-2.975.181-5-1C179.389,243.158,178.645,243.6,180,242Zm7,1c0.8,1.021.355,0.274,1,2h-1v-2Zm-22,2h2a2.834,2.834,0,0,1-1,1,11.568,11.568,0,0,1-3,2v-2C164.754,245.369,163.971,245.807,165,245Zm29,2c0.8,1.021.355,0.274,1,2h-1v-2Zm-51,1a19.54,19.54,0,0,1,2,4h-4C141.708,249.653,142.025,249.766,143,248Zm34,0h2v2h-2v-2Zm-48,3h2a2.834,2.834,0,0,1-1,1v1C129.2,251.979,129.645,252.726,129,251Zm122,0c0.277,0.361,2,1.383,1,3C249.492,252.074,251.9,252.527,251,251Zm-80,1c1.36,1,1.806,1.929,3,3-0.652,2.079.138,2.254-1,4-1.073.752-.946,0.6-3,1-1.012-2.31-1.712-2.163-3-4h1v-1C171.741,254.883,170.442,256.206,171,252Zm19,0c0.8,1.021.355,0.274,1,2h-1v-2Zm52,0h2v1C242.246,252.369,243.029,252.807,242,252Zm-67,1c2.467,1.295.681-.429,2,2a2.834,2.834,0,0,0-1,1h-1v-3Zm78,1c-0.329,1.855.726,1.247-2,2v-1C252.754,254.369,251.971,254.807,253,254Zm-111,4c2.5,1.456,2.156.586,3,4h-2v-2C142.2,258.979,142.645,259.726,142,258Zm79,0c0.8,1.021.355,0.274,1,2h-1v-2Zm-71,1c2.467,1.3.681-.429,2,2h-1c-1.317,3.361-1.541,2.9-6,3v-2C148.281,262.478,148.046,262.145,150,259Zm17,0h2a2.834,2.834,0,0,1-1,1v1C167.2,259.979,167.645,260.726,167,259Zm18,0c0.8,1.021.355,0.274,1,2h-1v-2Zm53,0c2.467,1.3.681-.429,2,2h-2a2.834,2.834,0,0,1-1,1Zm-61,1c2.064,2.7,1.488,3.826,2,7h-5c-0.759-2.631-1.2-2.385-2-5C175.764,261.858,175.515,262.472,177,260Zm-50,4h2v1C127.246,264.369,128.029,264.807,127,264Zm55,0c2.076,0.372,1.924.242,3,1h-1c-1.021.8-.274,0.355-2,1v-2Zm-42,1h2v1C140.246,265.369,141.029,265.807,140,265Zm57,0h2v1C197.246,265.369,198.029,265.807,197,265Zm-59,2a17.682,17.682,0,0,1,4,2h-1c-0.713.566-.042,1.442-2,1v-1C138.2,267.979,138.645,268.726,138,267Zm69,3c0.8,1.021.355,0.274,1,2h-1v-2Zm5,0h2v1C212.246,270.369,213.029,270.807,212,270Zm-85,4c3.245,0.828,1.528-.49,3,2h-1C128.26,275.128,127.74,274.872,127,274Zm13,0h2v2h-2v-2Zm2,2a25.766,25.766,0,0,0,5,2v1h-3c-0.968-.251-0.379-0.784-1,0C142.248,277.927,142.4,278.054,142,276Zm79,3,3,1v1h-3v-2Zm-58,1,3,1v1C163.611,281.158,164.355,281.6,163,280Zm-13,1h2v1C150.246,281.369,151.029,281.807,150,281Zm266,0h4v1h-1v1l-3,1v-3Zm-247,3c1.394,1.275,4.288,4.124,3,5a10.925,10.925,0,0,1-2,3v-1c-1.829-1.568-1.4-.882-2-4C168.752,285.927,168.6,286.054,169,284Zm47,0,3,1v2h-2v-1C216.2,284.979,216.645,285.726,216,284Zm205,0c0.752,1.073.6,0.946,1,3h-1v-3Zm11,0c1.671,1.316,4.041,5.129,3,6-1.073.752-.946,0.6-3,1-1.153-.822-1.24-0.47-4-1l-1-3C431.163,286.67,430.676,287.185,432,284Zm4,1h2v2h-2v-2Zm-277,1a11.568,11.568,0,0,1,2,3c-1.754.631-.971,0.193-2,1-1.754-.631-0.971-0.193-2-1-1.3-.555-0.741-0.03-1-1C156.771,287.318,158.232,286.689,159,286Zm5,1h2v1C164.246,287.369,165.029,287.807,164,287Zm-18,1c0.35,0.3,2,.523,1,2C145.886,289.512,143.886,288.224,146,288Zm70,0h2v2h-2v-2Zm-66,1c0.35,0.3,2,.523,1,2C149.886,290.512,147.886,289.224,150,289Zm14,0h2c-0.88,2.4-.761,3.707-3,5v-1h-1v-1C164.542,290.545,163.128,292.217,164,289Zm9,1h2v2h-2v-2Zm263,0,4,2v1h-1v1C435.447,292.436,435.56,293.366,436,290Zm-279,1c2.076,0.372,1.924.242,3,1,2.586,2.54,1.866,4.938,4,6,0.631-1.754.193-.971,1-2v3c-1.754.631-.971,0.193-2,1h-2c-1.1-2.356-.959-1.78-3-3C158.083,293.159,158.066,294.908,157,291Zm-10,1h2v6h-1c-1.021-.8-0.274-0.355-2-1v-3C146.8,292.979,146.355,293.726,147,292Zm277,0h2v1C424.246,292.369,425.029,292.807,424,292Zm-281,1h2v1C143.246,293.369,144.029,293.807,143,293Zm8,0h2v1C151.246,293.369,152.029,293.807,151,293Zm280,0c0.8,1.021.355,0.274,1,2h-1v-2Zm-254,2c2.117,0.558,1.819-.174,3,1C177.54,297.387,178.723,296.384,177,295Zm275,1c0.752,1.073.6,0.946,1,3h-1v-3Zm-312,1h2v2h-2v-2Zm28,1c0.8,1.021.355,0.274,1,2h-1v-2Zm271,2h2v1h-1C439.309,301.132,438.056,301.053,439,300Zm-297,2,4,1v1h-4v-2Zm324,1c2.467,1.3.681-.429,2,2l-2,1v1h-1A12.662,12.662,0,0,1,466,303Zm-306,1c3.245,0.828,1.528-.49,3,2C160.611,305.158,161.355,305.6,160,304Zm27,0c0.8,1.021.355,0.274,1,2h-1v-2Zm-20,1h2v1C167.246,305.369,168.029,305.807,167,305Zm266,0c2.076,0.372,1.924.242,3,1C433.924,305.628,434.076,305.758,433,305Zm-259,1c1.624,1.35,1.121.64,2,3C172.726,307.489,174.032,308.8,174,306Zm8,0h2v1C182.246,306.369,183.029,306.807,182,306Zm205,0h2v1C387.246,306.369,388.029,306.807,387,306Zm-242,1h2v1C145.246,307.369,146.029,307.807,145,307Zm11,0h2c-0.15,3.922-2.246,2.594,2,4,0.555-1.3.03-.741,1-1,0.8,1.021.355,0.274,1,2-1.858,1.51-1.715,2.775-4,4-1.231-1.8-2.592-2.481-4-4,1.624-1.35,1.121-.64,2-3C154.343,307.88,155.384,308.9,156,307Zm68,1a5.291,5.291,0,0,1,0,6v-6Zm-44,1c0.752,1.073.6,0.946,1,3h-2v-1C179.8,309.979,179.355,310.726,180,309Zm-16,1,3,1-1,2C162.445,313.6,162.571,313.31,164,310Zm11,0c0.752,1.073.6,0.946,1,3h-1v-3Zm9,0c0.8,1.021.355,0.274,1,2h-1v-2Zm270,1c2.4,2.06.212,0.951,1,3C453.184,314.607,454.184,311.967,454,311Zm-273,1h2a2.834,2.834,0,0,1-1,1C181.309,313.132,180.056,313.053,181,312Zm252,0c0.8,1.021.355,0.274,1,2h-1v-2Zm14,0c2.467,1.3.681-.429,2,2,0,0,.423,4.426,0,5v1l-3-1c-0.018-3.366-.121-1.465-3-4h1C445,313.64,445.929,313.194,447,312Zm-296,1c0.35,0.3,2,.523,1,2C150.886,314.512,148.886,313.224,151,313Zm242,7c-3.958.829-5.572,2.529-8,1-0.752-1.073-.6-0.946-1-3h2c1.3,2.467-.429.681,2,2v-1c-1.829-1.568-1.395-.882-2-4,3.042-.075,2.744-0.756,4,0C392.733,316.585,392.514,315.9,393,320Zm-238-5c0.35,0.3,2,.523,1,2C154.886,316.512,152.886,315.224,155,315Zm21,1c0.8,1.021.355,0.274,1,2h-1v-2Zm-2,1c0.8,1.021.355,0.274,1,2h-1v-2Zm-4,2h2v1C170.246,319.369,171.029,319.807,170,319Zm295,6-5,1c-0.372,2.076-.242,1.924-1,3-0.372-2.076-.242-1.924-1-3-0.842,2.389-.4,1.645-2,3v-2c3.514-2.521,3.02-1.979,4-6,2.919,0.2,3.834-.538,5,0h1A14.124,14.124,0,0,0,465,325Zm25-5a11.725,11.725,0,0,1,2,5h-1c-1.021-.8-0.274-0.355-2-1-0.631-1.754-.193-0.971-1-2v-1C489.754,320.369,488.971,320.807,490,320Zm-335,1c0.35,0.3,2,.523,1,2C154.886,322.512,152.886,321.224,155,321Zm307,2c1.021,0.8.274,0.355,2,1C462.979,323.2,463.726,323.645,462,323Zm13,7c0.8,1.021.355,0.274,1,2h-1v-2Zm-78,3c1.734,2.225,1.711,2.451-2,4C395.708,334.653,396.025,334.766,397,333Zm5,0h6v1a6.1,6.1,0,0,0-2,2C402.646,334.942,402.016,336.779,402,333Zm23,0c2.076,0.372,1.924.242,3,1C425.924,333.628,426.076,333.758,425,333Zm15,0c3.245,0.828,1.528-.49,3,2C440.611,334.158,441.355,334.6,440,333Zm36,1c0.8,1.18.773,1.681,1,4l-3-1c0.392,2.933,1.636,1.253-1,3v-4A10.925,10.925,0,0,0,476,334Zm-258,2h2v1C218.246,336.369,219.029,336.807,218,336Zm-24,1h2v1C194.246,337.369,195.029,337.807,194,337Zm262,0h2v1h-1c-1.073.752-.946,0.6-3,1v-1C455.754,337.369,454.971,337.807,456,337Zm-72,5c0.372-2.076.242-1.924,1-3,1.073-.752.946-0.6,3-1v1h1v2h-1a6.1,6.1,0,0,0-2-2l1,3h-3Zm74-4c1.322,1.737,1.727,1.607,1,3-1.073.752-.946,0.6-3,1v-1C457.624,339.65,457.121,340.36,458,338Zm-37,1h2v1C421.246,339.369,422.029,339.807,421,339Zm21,0a11.568,11.568,0,0,1,2,3h-2v-3Zm-239,4c-2.328-.195-2.826-0.193-4-1h2a6.1,6.1,0,0,1,2-2v3Zm191-3c0.8,1.021.355,0.274,1,2h-1v-2Zm42,0,5,1v1C437.429,341.719,437.666,341.893,436,340Zm-216,1h2v1C220.246,341.369,221.029,341.807,220,341Zm22,1,4,1v1C242.864,343.448,243.567,343.79,242,342Zm153,0h2v1C395.246,342.369,396.029,342.807,395,342Zm17,0c0.8,1.18.773,1.681,1,4h-1C411.826,342.853,411.484,344.5,412,342Zm-199,1h2v1C213.246,343.369,214.029,343.807,213,343Zm204,2,3,1v1h-3v-2Zm-58,1h2v1C359.246,346.369,360.029,346.807,359,346Zm19,0c1.116,1.66,1.77,1.069,0,2v-2Zm83,3c0.8,1.021.355,0.274,1,2h-1v-2Zm6,0c0.8,1.021.355,0.274,1,2h-1v-2Zm-98,2c0.8,1.021.355,0.274,1,2h-1v-2Zm38,0c1.779,2.332,1.888,1.712-1,3Zm48,1a12.662,12.662,0,0,1,4,1v1C455.864,353.448,456.567,353.79,455,352Zm-34,1c3.207,1.174,4.15,2.538,5,3a6.1,6.1,0,0,1,2-2v4h-1v1h1c-1.073.752-.946,0.6-3,1v-1A13.213,13.213,0,0,1,421,353Zm-13,1,4,2v1c-3.883.115-1.144-.939-4,1v-4Zm27,0c3.245,0.828,1.528-.49,3,2h-1C436.26,355.128,435.74,354.872,435,354Zm35,0c0.8,1.021.355,0.274,1,2h-1v-2Zm-16,2a30.439,30.439,0,0,0,7-1v3c-2.387,1.777-.522,1.88-2,3v1c-1.754-.631-0.971-0.193-2-1-0.928-1.31.349-1.255-1-3-1.455,2.542.217,1.128-3,2v-1C453.752,357.927,453.6,358.054,454,356Zm-24,0c0.8,1.021.355,0.274,1,2h-1v-2Zm37,0c3.245,0.828,1.528-.49,3,2-1.3.555-.741,0.03-1,1,0.74,0.872,1.26,1.128,2,2h-7c-0.631-1.754-.193-0.971-1-2v-1h1C464.771,357.318,466.232,356.689,467,356Zm-98,1,4,1v1h-4v-2Zm107,1c0.8,1.021.355,0.274,1,2h-1v-2Zm-67,1h2v1C409.246,359.369,410.029,359.807,409,359Zm-35,2h2v1h-1v1C374.2,361.979,374.645,362.726,374,361Zm80,0c1.624,1.35,1.121.64,2,3C452.726,362.489,454.032,363.8,454,361Zm-63,1,2,2C390.318,364.9,389.661,363.386,391,362Zm74,0c1.116,1.66,1.77,1.069,0,2v-2Zm-90,1,3,1v1C375.611,364.158,376.355,364.6,375,363Zm19,2c0.752,1.073.6,0.946,1,3h-2Zm10,0c3.245,0.828,1.528-.49,3,2-2-.029-0.282-1.023-2,0h1c0.488,2.757-.558,1.18-2,2v-4Zm-5,1c2.651,1.182,1.794-.9,3,2,0.752,1.073.6,0.946,1,3h-2C399.841,367.563,399.628,371.348,399,366Zm56,1c1.116,1.66,1.77,1.069,0,2v-2Zm-4,1c1.116,1.66,1.77,1.069,0,2v-2Zm34,1h2C485.812,370.609,486.582,370.224,485,369Zm-87,1c0.8,1.021.355,0.274,1,2h-1v-2Zm67,0h2v1C465.246,370.369,466.029,370.807,465,370Zm-53,6c0.8,1.021.355,0.274,1,2h-1v-2Z"/>
  <path id="Color_Fill_2" data-name="Color Fill 2" class="cls-4" d="M332.632,299.694a18.2,18.2,0,0,1,5.5.99q2.537,0.9,4.088,6.365,0.984,4.9,2.607,12.023a18.211,18.211,0,0,0,8.458,11.5q6.835,4.386,18.254,4.385a48.334,48.334,0,0,0,13.6-1.834,25.391,25.391,0,0,0,9.656-4.8,13.288,13.288,0,0,0,4.228-5.69,25.574,25.574,0,0,0,.846-7.335h-2.255a20.173,20.173,0,0,1-1.2,7.194,4.708,4.708,0,0,1-4.864,3.151,5.535,5.535,0,0,1-4.369-1.746,26.19,26.19,0,0,1-3.524-5.947,31.911,31.911,0,0,0-5.145-7.738,21.483,21.483,0,0,0-7.119-5.333,39.359,39.359,0,0,0-8.81-2.738q-4.863-.942-12.052-1.982v-0.661q11.841,0,17.268-1.317a29.781,29.781,0,0,0,9.092-3.668,15.386,15.386,0,0,0,5.427-5.642,13.846,13.846,0,0,0,1.762-6.584,11.194,11.194,0,0,0-3.031-7.759,23.734,23.734,0,0,0-8.176-5.6,43.578,43.578,0,0,0-13.32-3.01q-8.178-.751-21.285-0.752l-63.009.094v1.5q1.971,0.1,4.228.142t5.357,0.329a9.633,9.633,0,0,1,4.792,1.5,5.97,5.97,0,0,1,2.115,4.233l0.282,4.326v44.578l-0.282,4.326a5.925,5.925,0,0,1-2.044,4.185,8.692,8.692,0,0,1-4.44,1.411q-2.821.236-5.921,0.517H274.98v1.505h67.66v-1.505l-7.189-.376q-4.37-.375-6.2-1.693a6.064,6.064,0,0,1-2.255-4.326l-0.282-4.326V299.6Q329.672,299.6,332.632,299.694Zm-1.127-1.787h-4.793V266.871q2.4,0.1,5.5.189a45.592,45.592,0,0,1,7.048.846q3.945,0.754,6.766,5.22a16.842,16.842,0,0,1,2.82,9.075,19.632,19.632,0,0,1-2.749,10.251,10.208,10.208,0,0,1-8.105,5.173,60.775,60.775,0,0,1-6.484.282h0Z"/>
  <path id="Color_Fill_3" data-name="Color Fill 3" class="cls-5" d="M373.017,310.415L385,287.28,397.4,310.415H373.017Zm25.513,1.975,5.075,9.969q1.972,3.858,1.973,5.925a2.486,2.486,0,0,1-1.55,2.587,21.308,21.308,0,0,1-5.075.987q-3.525.376-4.863,0.423t-3.031.047v1.505h66.956v-1.505l-5.779-.376a13.468,13.468,0,0,1-5.709-1.646,14.126,14.126,0,0,1-4.017-4.185l-4.37-7.335-29.743-53.8h-15.5l-26.923,53.8q-0.995,1.974-2.483,4.42t-2.693,4.232a8.948,8.948,0,0,1-3.617,2.962,20.5,20.5,0,0,1-7.087,1.552l-8.366.376v1.505h39.892v-1.505q-2.256-.091-4.652-0.188t-4.933-.423a12.47,12.47,0,0,1-4.159-1.176,3.094,3.094,0,0,1-1.621-3.009,15.051,15.051,0,0,1,1.41-5.361l4.37-9.781h26.5Z"/>
  <path id="Color_Fill_4" data-name="Color Fill 4" class="cls-6" d="M327.2,266.316H285.756v1.505q2.253,0.094,4.793.188t6.343,0.517a10.619,10.619,0,0,1,5.709,2.022,7.126,7.126,0,0,1,2.326,4.7l0.282,4.514v27.274l-0.141,4.42a27.84,27.84,0,0,1-2.185,8.84q-2.045,5.173-8.035,9.17t-17.831,4q-8.459,0-13.321-3.245t-5.638-6.583a39.455,39.455,0,0,1-.917-4.937Q257,317.1,257,315.973V278.26l0.282-4.326q0.423-3.2,1.833-4.232t5.074-1.364q3.664-.329,5.991-0.376t4.159-.141v-1.505h-65.97v1.505l5.921,0.376q4.367,0.378,5.849,1.552a6.254,6.254,0,0,1,1.9,4.185l0.282,4.326v37.055q0,8.841,12.687,14.765t36.085,5.925q17.762,0,26.219-5.125t10.572-18.1l0.282-4.7V280.141l0.282-4.514a7.9,7.9,0,0,1,2.467-4.89,9.925,9.925,0,0,1,5.92-2.258q3.874-.373,6.2-0.47t4.158-.188v-1.505Z"/>
  <path id="Color_Fill_5" data-name="Color Fill 5" class="cls-2" d="M220.07,298.471q6.083-7.24,12.376-14.53t9.829-10.909a19.51,19.51,0,0,1,6.791-4.844,23.107,23.107,0,0,1,8.063-1.222l3.678-.189v-1.5H227.118v1.5l5.638,0.189q6.2,0.471,6.2,3.009,0,2.164-2.748,5.6t-8.387,9.875q-5.64,6.442-10.431,11.991-5.921-6.207-12.334-13.073t-8.669-9.451a28.558,28.558,0,0,1-2.82-3.574,4.03,4.03,0,0,1-.563-2.022,1.673,1.673,0,0,1,1.268-1.787,21.535,21.535,0,0,1,4.229-.564l7.33-.189v-1.5H140.005v1.5l3.946,0.283a17.3,17.3,0,0,1,7.26,1.975,40.27,40.27,0,0,1,7.541,6.583l26.642,28.966v17.493l-0.282,4.326q-0.423,3.1-1.974,4.232t-5.779,1.411l-9.3.282v1.505H236.7v-1.505q-1.833-.091-4.37-0.188t-5.568-.329a8.23,8.23,0,0,1-4.51-1.411,6.245,6.245,0,0,1-1.9-4.185l-0.282-4.326V298.471Z"/>
</svg>
