<svg xmlns="http://www.w3.org/2000/svg" width="422" height="211" viewBox="0 0 422 211">
  <metadata><?xpacket begin="﻿" id="W5M0MpCehiHzreSzNTczkc9d"?>
<x:xmpmeta xmlns:x="adobe:ns:meta/" x:xmptk="Adobe XMP Core 5.6-c142 79.160924, 2017/07/13-01:06:39        ">
   <rdf:RDF xmlns:rdf="http://www.w3.org/1999/02/22-rdf-syntax-ns#">
      <rdf:Description rdf:about=""/>
   </rdf:RDF>
</x:xmpmeta>
                                                                                                    
                                                                                                    
                                                                                                    
                                                                                                    
                                                                                                    
                                                                                                    
                                                                                                    
                                                                                                    
                                                                                                    
                                                                                                    
                                                                                                    
                                                                                                    
                                                                                                    
                                                                                                    
                                                                                                    
                                                                                                    
                                                                                                    
                                                                                                    
                                                                                                    
                                                                                                    
                           
<?xpacket end="w"?></metadata>
<defs>
    <style>
      .cls-1 {
        fill: #c6c6bc;
      }

      .cls-1, .cls-2, .cls-3, .cls-4, .cls-5, .cls-6 {
        fill-rule: evenodd;
      }

      .cls-3 {
        fill: #919288;
      }

      .cls-4 {
        fill: #575850;
      }

      .cls-5 {
        fill: #6d6e65;
      }

      .cls-6 {
        fill: #1c1e1c;
      }
    </style>
  </defs>
  <path id="Color_Fill_1" data-name="Color Fill 1" class="cls-1" d="M36,0c0.752,1.073.6,0.946,1,3H36V0ZM46,0c0.752,1.073.6,0.946,1,3H46V0Zm7,2,2,2C52.318,4.9,51.661,3.386,53,2ZM36,3c-0.828,3.245.49,1.528-2,3V4a2.838,2.838,0,0,1-1-1h3Zm83,17c0.961,5.608,2.218,15.5,0,18-1.021.8-.274,0.355-2,1,0,0-.438-3.971-1-2v1a18.709,18.709,0,0,0-3,5h1V42c0.775-1.923,1,2,1,2-3.362,1.236-3.465,1.984-4,6,2.457-.287.482-0.659,3,0a17.687,17.687,0,0,1-2,4c-1.12-2.873-.174-1.842-3-3,0.245,4.412.533,4.436,0,8a2.832,2.832,0,0,1-1-1c-0.474-.917.089-2.294-1-4-2.29,2.374-2.758.675-5,2-0.752,1.073-.6.946-1,3a12.667,12.667,0,0,0,4-1v4c-0.8,1.021-.355.274-1,2-2.8.916-5.24,0.81-8,3,2.82,2.142-.843,6.661-2,11-3.09.094-6.33,0.14-8-1,2.873-1.12,1.842-.174,3-3-3.772.067-1.823,0.544-5-1-0.074,2.532-.121,3.716-1,5-0.115-3.676-.209-7.481-1-9-1.037,3.081-.966,2.918-4,4,0.126-3.486.381-10.782-1-12-1.821,3.087-4,3.926-5,5H71c1,2.748,1.44,2.2,3,4-3.042-.075-2.745-0.756-4,0h1c0.417,1.956-1.536.72,0,2v1c2.281-1.225,2.251-1.638,6-2v2c-1.314,2.773-.056,2.069,1,5H67c-0.835-.415-17.2-0.47-18,0-0.8,1.021-.355.274-1,2,12.12-.2,13.418,4.472,20,9-0.058,2.906-.964,1.389,0,3,1.845,1.138,1.87.2,4,1,0.9,3.481-.918,7.045,2,9,1.288,1.416,1.171-.095,3-1,0.828,3.245-.49,1.528,2,3,0.555-1.3.03-.741,1-1,2.6,3.077-.618,3.643,4,5a2.832,2.832,0,0,1,1-1c0.082,3.108.416,3.825,2,5v-1l2,1c1.667,3.3.411,4.121,4,5v5H91a24.963,24.963,0,0,1-4-2c0.518,2.206,1.128,1.984,0,4-1.021-.8-0.274-0.355-2-1,0.079-4.052,1.636-2.386-1-4-0.631,1.754-.193.971-1,2,1,6.394.872,5.914,1,14H82c-0.18-4.458-.19-7.161-1-10H79l-1,5c-3.33-.274-1.66-0.373-5,0,1.021,0.8.274,0.355,2,1,1.073,0.752.946,0.6,3,1l1-4h1v3c-1.128,1.874-.014,3.532-2,6-3.368-2.556-6.22,2.509-10,4-0.152.06-3.43-1.018-5-1-0.372,2.076-.242,1.924-1,3a24.534,24.534,0,0,1-3,3c-1.51-1.858-2.775-1.715-4-4,1.754-.631.971-0.193,2-1H54c-1.224,2.057-1.648,2.912-4,4-0.9-4.2-2.273-5.791-5-8-1.073.752-.946,0.6-3,1-0.933-4.5-2.261-3.1-3-8H36c1.05-4.8,2.884-3.225,4-8H38v1c-2.031,1.638.7,1.166-2,2-1.179.8-1.681,0.773-4,1v-3c3.642-1.45,3.218-3.568,7-5,1.624,1.5,2.023,1.552,5,2-0.372-2.076-.242-1.925-1-3-2.009-1.186-3.327-.129-5-1-0.872-.74-1.128-1.26-2-2,0.74-.872,1.26-1.128,2-2-1.647-1.432-2.693-4.292-2-6,1.295-2.468-.429-0.681,2-2,0.771,0.682,2.232,1.311,3,2-1.042,1.733-.776,2.592-1,6a16.888,16.888,0,0,0,6-2c1.635-1.546-.859-2.106,4-3,1.455,2.542-.217,1.128,3,2v-6h1c1.35,1.624.64,1.121,3,2v-1c-2.389-.842-1.645-0.4-3-2a10.931,10.931,0,0,0,3-2H53v3c-2.424.906-1.59,1.069-4,2-2.384-4.695-7.619-4.366-10-6-0.961-1.418-.977-3.273-1-6,3.508-1.722,2.665-3.833,7-5,0.066,4.352.272,1.991,2,6-2.076.372-1.925,0.242-3,1,3.245,0.828,1.528-.49,3,2l-3-1v3l5-1v1c-1.664,1.493-1.017.725-1,2,0.9,0.643,1.976.3,4,1a52.715,52.715,0,0,0-3-8h1V93l4,2c0.9-2.189.862-1.443,2-3-6.157-2.564-4.684-3.609-7-9H48c-0.2,2.328-.193,2.826-1,4V86c-0.682-.771-1.311-2.232-2-3v1c-1.5,1.552-.777,1.838-3,3,0.029-2,1.023-.282,0-2-1.065.778-3.692,1.489-5,2a14.145,14.145,0,0,1,1,4H36c-4.373-2.419-12.391,3.3-17,4V93h1c0.771-.682,2.232-1.311,3-2-6.026.522-8.213,0.579-14,1,0.881-5.128.415-4.491-2-8,3.568-.593,3.367-0.733,5-3a6.108,6.108,0,0,1-2-2h1V78c2.281,1.225,2.251,1.638,6,2,0.017-2.845-.788-0.391,1-3l-6,1V73a10.971,10.971,0,0,0,5-2c-5.666.173-7.446,1.847-12,3V73c3.856-2.616,4.147-3.236,4-8-2.467-1.295-.681.429-2-2,3.182,0.007,2.409,1.2,3-3-0.877-1.295-.894-2.467-1-5-2.962-.639-3.69-0.595-5-3,0.877-1.295.894-2.467,1-5,3.245-.828,1.528.49,3-2-0.877-1.295-.894-2.467-1-5H8c1.5,4.078,6.282,5.164,10,4,0.239,3.377-.085,4.312,1,6,0.595-1.649,2.224-2.862,5-4-1.133-1.546-1.085-.843-2-3,3.081-1.038,2.918-.967,4-4-2.326-1.135-3.316-2.138-6-3-1.295,2.468.429,0.681-2,2a12.67,12.67,0,0,0-1-4c3.817-.048,4.212.919,6,0,0.542-1.214.553-4.811,2-7H24V26c-1.9,1.34-.874,1.283-4,2a7.674,7.674,0,0,0,0-6H19c-0.828,3.245.49,1.528-2,3-2.044-3.813-2.335.18-4-3,1.546-1.133.843-1.085,3-2,1.607,2.743-.051.971,4,1a12.666,12.666,0,0,1,1-4H20c-1.073.752-.946,0.6-3,1V13h1V12c4.18-.233,10.8-0.449,12-3-2.356-1.1-1.78-.959-3-3h2c1.32,0.064,4.926,1.664,9,1-0.392,2.933-1.636,1.253,1,3V9a2.838,2.838,0,0,0,1-1c-2.224-2-.944-1.961-2-5h4c0,2.883,2.074,6.144,7,7,1.35-1.624.64-1.121,3-2v2h1c0.417,1.956-1.536.72,0,2,2.4,1.5,2.376-1.236,4,2-1.624,1.35-1.121.64-2,3,3.764,0.142,3.515-.471,5,2-3.517,3.785-2.735,8.867-4,14h1c1.9-.933,1.169-0.379,4,0,1.119-5.638,2.476-1.873,4-5,0,0-3.908-.195-2-1h2c2.035-1.934,9.015-9.094,11-10,4.826-2.2,4.838,2.412,7-1a2.838,2.838,0,0,0,1-1c-3.245-.828-1.528.49-3-2l5-1c1.323-.024,3.755,1.639,8,2-0.212-3.346-2.153-2.4,1-4,0.629-.282,4.181.152,6-1a6.107,6.107,0,0,1-2-2h2a6.1,6.1,0,0,0,2,2l-3,4a13.167,13.167,0,0,1,5,1c1.221,2.141.388,2.77,0,6h1c1.021-.8.274-0.355,2-1,0.142-3.764-.472-3.515,2-5-0.768,3.751,1.348,6.9,2,11,2.364-1.383,4.251-.3,5-1a2.832,2.832,0,0,0,1-1c-2.305-1.345-1.823-1.219-2-2C117.073,20.248,116.946,20.4,119,20ZM23,5c3.245,0.828,1.528-.49,3,2H25V8A11.572,11.572,0,0,1,23,5ZM54,5c0.859,1.883.474,0.738,0,3H53ZM88,9a17.689,17.689,0,0,1,4,2H88V9Zm17,2c0.8,1.021.355,0.274,1,2h-1V11ZM50,12c0.372,2.076.242,1.925,1,3C50.628,12.924,50.758,13.076,50,12ZM20,14v2h1C20.369,14.246,20.807,15.029,20,14Zm7,0c0.737,3.366-.614,2.874,2,4V14H27Zm59,1v2h1C86.369,15.246,86.807,16.029,86,15ZM222,77c-15.964-.087-34.181-1.352-46,1V77c2.083-2.183,2.488-4.188-1-6-0.195,2.328-.193,2.826-1,4-2.377-2.252-.35-1.092-4-1,0.392,2.933,1.636,1.253-1,3-4.949,3.067-41.439,1.431-47-2v1a6.106,6.106,0,0,1,2,2h-2c-0.632-.249-3.8-0.088-7,0v3c1.766,0.962,1.68,1.257,4,2V82a10.943,10.943,0,0,1-3-2,59.273,59.273,0,0,1,11,1q1,3.5,2,7c-3.081,1.037-2.918.966-4,4h3c-0.392-2.933-1.636-1.253,1-3v14h-1v1h-1v-1c-3.04-3.7-2.864-7.415-4-11h-2v1a6.106,6.106,0,0,1,2,2,12.667,12.667,0,0,0-4,1c0.788,1.725,2.627,1.84,1,3q-0.5,1-1,2h-1v-1c-4.419-2.868-5.089-6.265-7-9-0.555,1.3-.03.741-1,1-4.258-3.073-7.261-7.428-8-12h2v2c0.668,0.6,2.532-3.2,5-2l1,3h2c0.667-3.3,1-2.339,2-5H103q-0.5-2.5-1-5h1a10.312,10.312,0,0,0,5,4V74c-3.245-.828-1.528.49-3-2,6.014-3.763,11.768-12.15,19-13,1.183,2.067.684,1.882,3,3V60h1c0.417-1.956-1.536-.72,0-2V57c2.424,0.906,1.59,1.069,4,2,0.422-1.27,7.717-9.515,10-11,2.036-1.325,3.456,2.854,6-1-3.1-1.224-2.261-.375-3-4,4.638-1.43,6.457-4.605,10-7v3c-1.665,1.493-1.017.725-1,2,1.021,0.8.274,0.355,2,1,1.183-2.639,4.022-1.165,6-5h-2c-1.35,1.624-.64,1.121-3,2V36c3.122-.722,7.85-5.793,12-4,0.331,0.143,1.284,2.19,4,3,0.315-2.724,8.6-8.576,13-7V27c-0.8-1.021-.355-0.274-1-2,2.606-1.191,7.6-4.375,10-5,4.885-1.272,4.187,3.147,9,0,1.43-2.085.627-3.564,3-5,5.3,4.816,8.873,6.767,16,5-0.147,3.31-.044,4.3,5,5-0.392-2.933-1.636-1.253,1-3,1.295,2.468-.429.681,2,2-0.312,3.314,1.951,4.848,1,8h-1a7.233,7.233,0,0,0-1,4c0,0.046,1.594,3.22,1,5-0.223.668-2.9,1.792-3,2-1.221,2.459,1.76,1.45,2,3-3.649,9.829-4.909,10.6-2,20C226.281,69.927,222.946,72.465,222,77ZM97,16v2h1C97.369,16.246,97.807,17.029,97,16Zm15,0c2.305,1.345,1.823,1.22,2,2-1.021.8-.274,0.355-2,1V16Zm87,0a14.347,14.347,0,0,1,5,1v1h-5V16ZM23,17c-0.708,2.347-1.025,2.234-2,4,2.61,1.256,2.109,1.063,3,4,0.8-1.021.355-.274,1-2,1.4-2.239.545-3.276,0-6H23Zm185,0a21.42,21.42,0,0,0,2,5h1C210.407,18.432,210.267,18.633,208,17ZM53,18v2h1V18H53ZM30,21v2h1V21H30Zm183,0v2h1C213.369,21.246,213.807,22.029,213,21ZM53,22c1.021,0.8.274,0.355,2,1C53.979,22.2,54.726,22.645,53,22Zm21,0v2h3V23Zm5,1v1H78c-1.923.775,2,1,2,1a2.837,2.837,0,0,1,1-1C79.979,23.2,80.726,23.645,79,23Zm118,0c0.586,0.8-.6,1.282,1,3C199.7,24.043,198.333,24.27,197,23Zm-95,2v2h1V25h-1Zm15,1v2h1V26h-1Zm71,0v2h1V26h-1ZM48,28v1H47c-1.923.775,2,1,2,1C48.369,28.246,48.807,29.029,48,28Zm177,0c0.558,2.117-.174,1.819,1,3C227.387,28.54,226.383,29.723,225,28ZM18,29c3.245,0.828,1.528-.49,3,2-0.8,1.021-.355.274-1,2-5.912.264-2.86,1.06-6,2-0.741-.872-1.259-1.128-2-2h2C15.271,31.316,16.729,30.684,18,29Zm9,0c1.021,0.8.274,0.355,2,1C27.979,29.2,28.726,29.645,27,29Zm63,0-2,5h2c1.552-1.5,1.838-.777,3-3C89.566,29.9,93.5,29.87,90,29ZM24,30l1,3h2V31H26C24.979,30.2,25.726,30.645,24,30Zm171,1c1.021,0.8.274,0.355,2,1C195.979,31.2,196.726,31.645,195,31Zm28,0v2C224.609,31.812,224.224,32.582,223,31ZM84,33v2a2.838,2.838,0,0,0,1-1h1C84.979,33.2,85.726,33.645,84,33ZM4,34c2.61,1.257,2.109,1.063,3,4H6V37A11.573,11.573,0,0,1,4,34Zm273,0h2v2h-2V34ZM9,35c1.624,1.35,1.121.64,2,3H10V37C9.2,35.979,9.645,36.726,9,35Zm42,0c-0.328,1.384,1.419,1.451,2,2C53.7,35.937,51.276,35.3,51,35Zm56,0c1.021,0.8.274,0.355,2,1C107.979,35.2,108.726,35.645,107,35Zm164,1a12.662,12.662,0,0,0,1,4,2.832,2.832,0,0,0,1-1c1.5-1.552.777-1.838,3-3v1h1l-1,3c4.376,0.516,3.437,1.216,6,3V40c-2.467-1.295-.681.429-2-2a2.832,2.832,0,0,0,1-1c1.754,0.631.971,0.193,2,1,2.485,1.348,2.757,3.376,5,5-0.212-3.346-2.153-2.4,1-4,1.3,2.375,2.88,5.352,5,7-1.225,2.281-1.638,2.251-2,6,2.588,0.278,1.775-.467,2,4-2.446,2.886-1.024,5.5-2,9,2.076,0.372,1.924.242,3,1-5.592,4.071-4.678,18.588-9,21-10.441-8.8-28.716-10.012-48-10-1.551-2.874-2.454-2.728-3-7,4.262-2.251,7.521-8.216,9-13,1.546,1.133.843,1.085,3,2V57a6.107,6.107,0,0,1-2-2,9.255,9.255,0,0,0,4-3,6.107,6.107,0,0,1-2-2c2.779-1.582,2.057-3.478,5-5,3.012-2.183,7.632-1.6,8-2,0.565-.713,1.442-0.042,1-2h-1c-0.631-1.754-.193-0.971-1-2a6.1,6.1,0,0,1-2,2V39c2.056-1.441,1.3-1.553,5-2,1.464,1.739.391,2.725,3,1V36A43.3,43.3,0,0,0,271,36ZM74,37v2h1V37H74Zm28,0c-0.771.682-2.232,1.311-3,2h1c1.359,1.261,1.768,1.365,4,2C103.448,37.864,103.79,38.567,102,37ZM15,38c0.8,1.021.355,0.274,1,2H15V38Zm5,0h2v1H21v1H20V38Zm23,0c1.021,0.8.274,0.355,2,1C43.979,38.2,44.726,38.645,43,38Zm121,0c0.372,2.076.242,1.925,1,3V40a2.832,2.832,0,0,0,1-1Zm104,0v4h1V41c0.8-1.021.355-.274,1-2ZM35,39c1.021,0.8.274,0.355,2,1C35.979,39.2,36.726,39.645,35,39Zm3,1-1,2C38.744,40.6,38,40,38,40Zm216,0h2v1h-1v1C254.2,40.979,254.645,41.726,254,40Zm19,1v2h2V42ZM27,43c-0.667,3.3-.995,2.339-2,5h2V47c2.553-1.041,2.925-1.483,4-4H27Zm66,0a21.425,21.425,0,0,0,2,5h2V45C94.653,44.292,94.766,43.975,93,43Zm184,0c-0.328,1.384,1.419,1.451,2,2C279.7,43.937,277.276,43.3,277,43ZM69,44c1.133,1.546,1.085.843,2,3H69v2h1c0.483,1.287,4.066,3.179,7,4V52c-2.679-2.984-1.607-3.958,0-7a2.837,2.837,0,0,1-1-1c-1.766.962-1.68,1.257-4,2C70.65,44.376,71.36,44.879,69,44Zm86,0c1.021,0.8.274,0.355,2,1C155.979,44.2,156.726,44.645,155,44Zm76,0h2c-1,2.273-.745,2.774-3,4V46C230.8,44.979,230.355,45.726,231,44ZM3,45c1.4,2.239.545,3.276,0,6H1V49C2.828,47.432,2.4,48.118,3,45Zm79,0c-0.058,2.906-.964,1.389,0,3v1a2.838,2.838,0,0,0,1-1c0.8-1.021.355-.274,1-2ZM33,46c0.759,2.631,1.2,2.385,2,5,0.8-1.021.355-.274,1-2,0.8-1.021.355-.274,1-2A12.666,12.666,0,0,1,33,46Zm32,0v2h1V46H65Zm14,1-1,2C79.744,47.6,79,47,79,47Zm207,0v2h1C286.369,47.246,286.807,48.029,286,47ZM7,48c1.183,2.067.684,1.882,3,3V49Zm144,0q-0.5,2.5-1,5h1c0.506-3.188.872-2.92,2-5h-2Zm100,0c1.021,0.8.274,0.355,2,1C251.979,48.2,252.726,48.645,251,48Zm7,0c1.72,0.881,1.278.889,3,0h-3ZM27,50c0.842,2.389.4,1.645,2,3v1c1.01,0.99.988-.986,1-1h1c-1.021-.8-0.274-0.355-2-1C27.705,49.533,29.429,51.319,27,50Zm55,0-1,3h1V52c0.775-1.923,1,2,1,2a6.1,6.1,0,0,0-2,2h3c0.644-.439,3.056-0.352,5-1V54C84.529,53.141,85.334,51.587,82,50Zm170,0v2h1V50h-1ZM23,52c0.095,1.51-1.926,1.46,0,2h2C25.167,52.39,23.451,52.791,23,52Zm11,0v2h1V52H34Zm18,0c0.372,2.076.242,1.925,1,3V54c0.8-1.021.355-.274,1-2H52Zm41,0c1.021,0.8.274,0.355,2,1C93.979,52.2,94.726,52.645,93,52Zm48,1-1,2C141.744,53.6,141,53,141,53ZM64,54c1.021,0.8.274,0.355,2,1C64.979,54.2,65.726,54.645,64,54Zm26,0c1.66,1.116,1.069,1.77,2,0H90Zm246,1c0.8,1.021.355,0.274,1,2l-4,1V57h1C334.74,56.128,335.259,55.872,336,55ZM68,56c-1.922,3.144-2.518,1.713-4,3,0.8,1.021.355,0.274,1,2a2.838,2.838,0,0,0,1-1l5-3V56H68ZM41,57c0.842,2.389.4,1.645,2,3A10.95,10.95,0,0,0,41,57Zm32,0c1.021,0.8.274,0.355,2,1C73.979,57.2,74.726,57.645,73,57Zm8,4c2.076-.372,1.924-0.242,3-1-2.072-1.283-2.3-2.077-5-3v1C81.543,59.456,80.128,57.783,81,61Zm168-4c1.021,0.8.274,0.355,2,1C249.979,57.2,250.726,57.645,249,57ZM6,58c0.35,0.3,2,.523,1,2C5.886,59.512,3.886,58.224,6,58Zm91,0c1.66,1.116,1.069,1.77,2,0H97ZM12,59l1,3h1V59H12Zm34,0a14.145,14.145,0,0,0-1,4,2.837,2.837,0,0,1,1,1l3-1V62C47.5,60.448,48.223,60.162,46,59Zm11,1v2h1V60H57Zm270,0c3.245,0.828,1.528-.49,3,2h-2Zm5,0h3c-0.786,3.758-1.649,3.309-2,8h2V66a19.563,19.563,0,0,0,2-4,17.682,17.682,0,0,1,4,2,35.256,35.256,0,0,1,3,5c2.906-.058,1.389-0.964,3,0,0.649-.86,1.338-3.144,2-4,0.86,0.649,3.144,1.338,4,2-2.648,1.478-2.892,4.176-4,7h2a26.165,26.165,0,0,1,7-5c0.631,1.754.193,0.971,1,2-0.528,3.123-2.869,10.959-2,12-0.73.823-2.5,0.816-3,2l1,3c-1.511,1.4-4.441-.2-6,6,2.327,0.2,2.826.193,4,1h-3c0.075,3.042.756,2.744,0,4-2.125,1.4-1.477,1.421-4,0v2c1.5,1.552.777,1.838,3,3,2.449-4.91,8.674.77,10-3-2.729-1.6-.824.157-1-3,3.95,0.023,2.169.719,4-3h1v1c0.546,1.771-1.992,4.5-1,5,0.944,0.532,3.662-.407,6,1v2l5-1c0.492,0.22,1.1,2.187,4,3v2c-3.686-.351-1.36-0.565-4,2-0.416-3.58.472-2.516-2-4,0.552,3.119.453,2.128-1,5,2.014,0.035,2.961.641,6,2a10.965,10.965,0,0,1,2-5v1c1.745,2.188,1.207,3.591,4,5,1.012-2.31,1.712-2.163,3-4a17.682,17.682,0,0,1,4,2c-2.468,1.3-.681-0.429-2,2h3c1.567-1.243.51-.642,2,0a11.568,11.568,0,0,1,2,3c-2.906-.058-1.389-0.964-3,0-0.752,1.073-.6.946-1,3,1.049,1.549,1.031,4.085,1,7,2.316,0.914,2.9,1.858,5,3-1.021.8-.274,0.355-2,1-1.216.745-.992,0.137-4,0v4c2.635,1.627,5.414,3.451,6,5,0.8,1.18.773,1.681,1,4h5v1h-1c-1.85,1.445-2.684.714-4,3,3.841-.083,2.092-0.066,6,1v-4c0.028-.595-0.693-1.6-1-5h2c0.39,3.511,2.85,8.246,4,9,1.18-.8,1.681-0.773,4-1,0.88-2.431,1.746-3.859,4-5v1c2.115,3.19,2.658,8.361,4,12-4.395-.241-3.23,0-7,2v1h2c1.073-.752.946-0.6,3-1-0.4,4.155-.125,3.055,1,7-3.063,2.338-5.939,6.72-8,10l-4-1v3c-7.088,1.022-6.433,2.65-14,2v1h2v2h-1c-0.631,1.754-.193.971-1,2-1.021-.8-0.274-0.355-2-1v-3a16.094,16.094,0,0,0,4-5h-1c-1.471,2-5.876,4.848-7,4-0.8-1.021-.355-0.274-1-2,2.067-1.183,1.882-.684,3-3h-1c-2.062,2.805-3.59,1.919-5,3,3.44,3.759.208,2.621-1,8h2c0.542-1.537,4.347-1.561,6,2a8.459,8.459,0,0,0-4,3h-2c-0.007-2.616.771-1.958-2-4-0.327,2.212,1.038,1.079-1,2-0.771-.682-2.232-1.311-3-2,2.467-1.295.681,0.429,2-2-3.634,1-2.445-1.488-4,1-2.547.686-4.361,1.341-5,2-0.8-1.021-.355-0.274-1-2h1l-1-2h-1v1c-1.025,1.117-2.12,2.832-3,4,3.162-.008,1.345-1.694,3,1,0.752,1.073.6,0.946,1,3-3.668,1.13-3.116,2.493-6,4v-2c0.747-.982.81-1.852,2-4h-4c-1.624,1.5-2.023,1.552-5,2v-1c1.624-1.35,1.121-.64,2-3h-1v-1c-2.568.683-5.225,3.1-6,2-0.8-1.021-.355-0.274-1-2a10.925,10.925,0,0,0,3-2l-3-2c-0.372,2.076-.242,1.924-1,3-1.021-.8-0.274-0.355-2-1,1.191-4.484.087-3.974-1-9h-4v-3c-3.245.828-1.528-.49-3,2a18.068,18.068,0,0,1,4,3h-3c-1.021-.8-0.274-0.355-2-1-0.27-4.127-.92-5.02-3-6v1h-1c0.774,3.083.012,8.045-2,9v-2c-0.994-1.68-.1-2.29-1-4-1.687,3.695-2.464-.773-4,3,2.389,0.842,1.645.4,3,2-5.238,1.954-5.012,4.61-11,6-1.35-1.624-.64-1.121-3-2-0.728,2.859-.932,4.484-2,6-0.345-.1-0.233-1.493-2-1v1a20.52,20.52,0,0,1-4,2c-0.918.239-4.545-2.017-7-1l-2,3h-1v-1c-3.471-.886-4.2.258-8,0v-2c2.525-1.466,1.544-.44,2-4h-1c-1.455,2.542.217,1.128-3,2v-1c1.809-1.587,2.352-3.277,3-7h-1a6.1,6.1,0,0,1-2,2v-2c2.124-1.457,2.785-2.624,4-5,2.464,1.533,2.276,2.291,6,3v-1h1c-1.291-2.688-2.883-4.313-4-7a18.324,18.324,0,0,1,6-1c1.35,1.624.64,1.121,3,2,0.716-3.535,1.229-2.481,2-6h-7v-2l5-6a14.124,14.124,0,0,0-4-1c-2.274-.313-8.367,2.405-12,4,0.177-4.006,1.951-3.3-3-4-2.111,1.207-2.232.483-5,0v1a6.1,6.1,0,0,1,2,2c-2.493.684-1.856,2.358-3,1-0.745-1.216-.137-0.992,0-4h-7v-1c4.935-4.214,2.717-10.695,12-11,1.725-1.353,4.847-2.128,7-3,1.507,2.6,4.972,3.833,7,6,3.325-1.177,3.069-2.621,6-4,0.416,3.58-.472,2.516,2,4,3.088-2.429,14.628-6.062,20-4,1.207,0.463-1.228,1.806,1,2,2.25,0.2,5.173-1.967,9-2-0.054,2.612,1.186,5.228,6,6v-1a23,23,0,0,1-5-3v-2h6c1.051,2.939,2.213,3.868,4,3h1c-1.133-1.546-1.085-.843-2-3,4.648,0.268,10.209.9,12-2h-9c-1.021-.8-0.274-0.355-2-1-0.485-2.876-2.774-1.832-5-5-2.927-4.166-2.351-8.118-5-13l-3-1c-2.788-3.092-12.75-24.857-13-27a8.893,8.893,0,0,0,3-3c-4.5.158-4.623,1.251-6-1a17.332,17.332,0,0,1-5-10c3.152,0.674,2.1.666,4,2V79c-3.287-.923-4.82-1.859-6-5h5c1.35,1.624.64,1.121,3,2V75c-0.752-1.073-.6-0.946-1-3-2.707.02-1.61,1.327-3-2h1c1.091-3.156,2.116-2.967,4-5,2.189,0.9,1.443.862,3,2V64h4c-0.828,3.245.49,1.528-2,3V66h-1v4h1C328.915,65.661,330.868,65.662,332,60ZM33,61a12.667,12.667,0,0,0,1,4h1C34.448,61.864,34.79,62.567,33,61Zm18,0,1,3h1C52.158,61.611,52.6,62.355,51,61Zm34,0c0.828,3.245-.49,1.528,2,3V63c0.8-1.021.355-.274,1-2H85Zm35,0c0.384,2.617-.743,1.31,2,2V61h-2Zm203,0h1c0.488,2.757-.558,1.18-2,2ZM149,62c-0.771.682-2.232,1.311-3,2C147.516,63.727,152.019,62.882,149,62Zm7,3V62h-5v1h1c2.167,2.3,2.978,4.031,5,5,1.35-1.624.64-1.121,3-2V65h-4ZM80,63a14.145,14.145,0,0,0-1,4h2C80.983,63.449,82.452,65.267,80,63Zm10,0c1.021,0.8.274,0.355,2,1C90.979,63.2,91.726,63.645,90,63Zm3,0,1,3a2.838,2.838,0,0,0,1-1c0.8-1.021.355-.274,1-2H93Zm154,0c1.72,0.881,1.278.889,3,0h-3ZM86,65v1H85c-1.923.775,2,1,2,1C86.369,65.246,86.807,66.029,86,65Zm253,0c0.372,2.076.242,1.924,1,3V65h-1ZM45,66v2h1V66H45ZM11,67c-0.328,1.384,1.419,1.451,2,2C13.7,67.937,11.276,67.3,11,67Zm107,0v2C119.609,67.812,119.224,68.582,118,67Zm60,0c0.372,2.076.242,1.924,1,3V69c0.8-1.021.355-.274,1-2h-2ZM5,68H7v2H5V68Zm86,0c-0.328,1.384,1.419,1.451,2,2C93.7,68.937,91.276,68.3,91,68Zm35,0-1,3h2C126.628,68.924,126.758,69.076,126,68Zm119,0c0.372,2.076.242,1.924,1,3V70c0.8-1.021.355-.274,1-2h-2ZM46,69c0.97,3.457,2.46,4.243,4,7,3.672-.85,4.958-1.778,8-1V72c-2.266.4-1.084,0.918-3,0h1c0.489-2.757-.558-1.18-2-2a35.243,35.243,0,0,1-5,3C48.189,69.539,48.459,70.5,46,69Zm45,3c0.372,2.076.242,1.924,1,3V74h1c0.99-1.01-.985-0.989-1-1-1.257-2.61-1.063-2.109-4-3v2h3Zm23-2c1.66,1.116,1.069,1.77,2,0h-2Zm28,0-1,3h1c1.133-1.546,1.085-.843,2-3h-2ZM3,71H5v1C3.246,71.369,4.029,71.807,3,71Zm64,0c1.021,0.8.274,0.355,2,1C67.979,71.2,68.726,71.645,67,71Zm268,0v2h1V71h-1ZM97,73c0.8,1.021.355,0.274,1,2H97V73Zm19,0c0.108,0.133,3,3,3,3C119.524,74.735,116.508,73.537,116,73Zm206,3c2.076-.372,1.924-0.242,3-1l-3-2v3ZM34,74c-0.86.649-3.144,1.338-4,2l5,1C34.628,74.924,34.758,75.076,34,74Zm36,1v2h2V76Zm260,0v2h1V75h-1ZM8,76c2.468,1.295.681-.429,2,2H9c-1.021.8-.274,0.355-2,1Zm17,0v4h2V78h1V77Zm17,2v3h2c1.073,0.752.946,0.6,3,1a16.977,16.977,0,0,0-1-6H44C43.616,78.617,44.743,77.31,42,78Zm55-2a14.349,14.349,0,0,1,5,1v1C97.046,78.024,97.2,78.61,97,76Zm136,0h2v1C233.246,76.369,234.029,76.807,233,76Zm102,0c-0.771.682-2.232,1.311-3,2h1c1.18,0.8,1.681.773,4,1C336.158,76.611,336.6,77.355,335,76Zm18,0c0.327,2.212-1.038,1.079,1,2C353.369,76.246,353.807,77.029,353,76ZM30,78c-0.149,2.726.269,4.975,1,9h3V85C33.179,84.151,32.143,80.223,30,78Zm282,0h2v2h-2V78ZM0,80H2v1H1v1C0.2,80.979.645,81.726,0,80Zm172,21V96c3.245-.828,1.528.49,3-2-3.245-.828-1.528.49-3-2,2.4,0.374,1.538.63,4,0a47.223,47.223,0,0,1-4-5l3-1V85h1c0.828,3.245-.49,1.528,2,3V87c-1.28-2.043-.686-2.833,0-5-2,.029-0.282,1.023-2,0-0.8-1.021-.355-0.274-1-2h17c1.021,0.8.274,0.355,2,1l1,3c1.891,2.925,1,10.389,1,15,0,13,2.287,32.435-2,42a66.528,66.528,0,0,1-26-2,24.935,24.935,0,0,0-4-5c-0.6-7.507-.655-11.541,1-16-2.468-1.3-.681.429-2-2h2v-1l2,1c-2.192-3.812-2.913-.273-4-5,0.928-1.31-.349-1.255,1-3q0.5-1.5,1-3c1.8,1.565,1.281,1.966,4,3v-1c-0.911-1.571-.541-3.207-1-6h4Zm59-21a48.729,48.729,0,0,1,15,2l5,7c0.473,7.711.279,16.513-7,19-2.405,1.546-9.923,1.693-13,2C230.864,96.2,231,90.847,231,80Zm121,0v2h1V81h1C352.979,80.2,353.726,80.645,352,80ZM236,81v2h1V81h-1Zm85,0c1.35,1.624.64,1.121,3,2V82ZM3,82c0.8,1.18.773,1.681,1,4H3V85C2.292,83.455,2.871,84.865,3,82Zm35,0c0.327,2.212-1.038,1.079,1,2C38.369,82.246,38.807,83.029,38,82Zm141,1,1,3h1V83h-2Zm3,3c1.021,0.8.274,0.355,2,1C182.979,86.2,183.726,86.645,182,86ZM16,87l1,3h1V88Zm8,0v2c1.754,0.631.971,0.193,2,1l4-1V88Zm262,1c0.8,1.021.355,0.274,1,2h-1V88Zm44,1c0.372,2.076.242,1.924,1,3,1.133-1.546,1.085-.843,2-3h-3ZM181,90c-0.328,1.384,1.419,1.451,2,2C183.7,90.937,181.276,90.3,181,90Zm161,0,1,3h2V91ZM177,91a17.687,17.687,0,0,0,2,4,12.661,12.661,0,0,1,1-4h-3ZM35,92h2v1C35.246,92.369,36.029,92.807,35,92Zm311,0c0.842,2.389.4,1.645,2,3A10.929,10.929,0,0,0,346,92Zm15,0c0.8,1.021.355,0.274,1,2h-1V92ZM32,94c0.35,0.3,2,.523,1,2C31.886,95.512,29.886,94.224,32,94Zm34,0c0.3,4.232,1.7-1.038,3,3C69.605,95.918,66.464,94.4,66,94Zm275,0a14.124,14.124,0,0,0-1,4h2C341.805,95.673,341.807,95.174,341,94Zm28,0c1.624,1.35,1.121.64,2,3h-1V96C369.2,94.979,369.645,95.726,369,94ZM65,109c0.372,2.076.242,1.924,1,3,2.111-1.207,2.231-.483,5,0v-1c-1.754-.631-0.971-0.193-2-1,0.752-1.073.6-.946,1-3H67v-2c3.092-1.475,2.951-2.544,3-7H68a14.349,14.349,0,0,1-1,5c-1.754-.631-0.972-0.193-2-1-1.754-.631-0.972-0.193-2-1,2.941-1.842,1.585-1.586,1-5l-4-1v1c2.389,0.842,1.645.4,3,2a12.667,12.667,0,0,0-4,1c1.441,2.056,1.553,1.3,2,5H60c-0.372-2.076-.242-1.924-1-3v3c3.144,1.922,1.713,2.518,3,4C63.073,108.752,62.946,108.6,65,109ZM325,95a14.124,14.124,0,0,0-1,4h2V97h1V96h-1V95h-1Zm11,0-1,3c-3.33-.274-1.66-0.373-5,0v2h1c2.883,2.3,8.1,4,12,5a6.1,6.1,0,0,1,2-2v-1C339.677,100.487,340.092,97.133,336,95Zm20,0c2.542,1.456,1.128-.217,2,3h-1V97C356.2,95.979,356.645,96.726,356,95ZM40,96v2h2V96H40ZM22,97a12.667,12.667,0,0,1,4,1v1H22V97Zm147,0h2v2h-2V97Zm183,0,3,1C353.766,100.911,353.6,98.9,352,97ZM178,98v1c-0.639,1.024-2.169.2-1,1v1h1v-1C179.243,98.433,178.642,99.49,178,98Zm194,4h-4V99h2V98h1v1C371.752,100.073,371.6,99.946,372,102ZM35,99h2v2H35V99Zm5,1c2.468,1.3.681-.429,2,2H41c-1.456,2.542.217,1.128-3,2C38.708,101.653,39.025,101.766,40,100Zm133,0c1.021,0.8.274,0.355,2,1C173.979,100.2,174.726,100.645,173,100Zm-53,2c2.542,1.455,1.128-.217,2,3h-1Q120.5,103.5,120,102Zm256,0,3,1v1C376.611,103.158,377.355,103.6,376,102Zm-202,1c-0.631,1.754-.193.971-1,2q0.5,1.5,1,3h1v-1A4.559,4.559,0,0,0,174,103Zm154,0v2h1v-1h1C328.979,103.2,329.726,103.645,328,103Zm-148,1q-0.5,1-1,2C180.744,104.6,180,104,180,104Zm155,0-1,2h1c0.152,1.406,1,1,1,1v-3h-1Zm-213,1h2v1C122.246,105.369,123.029,105.807,122,105Zm163,0h4c1.689,6.755,6.111,10.3,8,17H283c-1.021-.8-0.274-0.355-2-1-0.961-1.766-1.257-1.68-2-4C281.911,114.385,283.912,109.286,285,105Zm95,0h2v1C380.246,105.369,381.029,105.807,380,105Zm12,3c-2.076-.372-1.925-0.242-3-1h1a6.1,6.1,0,0,1,2-2v3Zm-52-2c1.021,0.8.274,0.355,2,1C340.979,106.2,341.726,106.645,340,106ZM72,107c-0.34,2.422-.327.883,0,4h2C73.448,107.864,73.79,108.567,72,107Zm281,4c2.076-.372,1.924-0.242,3-1,0.752-1.073.6-.946,1-3-2.105.788-1.806-.032-3,1C353.248,109.073,353.4,108.946,353,111Zm32-4h2v1C385.246,107.369,386.029,107.807,385,107ZM55,108c1.72,0.881,1.278.889,3,0H55Zm222,0c1.138,2.116-.983,6.036-3,8-4.079-3.475-12.316-1.921-17-5C264.6,111.276,272.891,111.329,277,108Zm10,0c1.021,0.8.274,0.355,2,1C287.979,108.2,288.726,108.645,287,108Zm-122,1v2l4-1v-1h-4Zm120,0c0.372,2.076.242,1.924,1,3C285.628,109.924,285.758,110.075,285,109Zm56,0v2h1C341.369,109.246,341.807,110.029,341,109ZM53,110v2h1C53.369,110.246,53.807,111.029,53,110Zm291,0c-1.243,2.908-1.97,1.915,1,3l1-3h-2Zm18,0c1.021,0.8.274,0.355,2,1C362.979,110.2,363.726,110.645,362,110Zm-11,1-1,3h1v-1C352.243,111.433,351.642,112.49,351,111Zm-223,1c1.077,1.737,1.035,2.271,0,4v-4Zm103,0h10c1.544,2.633,4.006,5.76,5,9q1,6.5,2,13c1.6,3.144,5.609,5.5,8,8H236c-0.771-.682-2.232-1.311-3-2C229.041,135.52,230.833,119.99,231,112Zm132,0c1.183,2.067.684,1.882,3,3v-2h-1C363.979,112.2,364.726,112.645,363,112ZM31,113l3,1a2.832,2.832,0,0,1-1,1c-1.021.8-.274,0.355-2,1v-3Zm15,0v2h4a2.832,2.832,0,0,1,1-1v-1H46Zm36,0c1.021,0.8.274,0.355,2,1C82.979,113.2,83.726,113.645,82,113Zm289,0c-1.225,2.281-1.638,2.251-2,6h1v-2C371.865,115.234,372.266,115.4,371,113ZM62,114c0.327,2.212-1.038,1.079,1,2C62.369,114.246,62.807,115.029,62,114Zm2,0c0.174,3.147.516,1.5,0,4h1c1.133-1.546,1.085-.843,2-3Zm-11,1-1,2C53.744,115.6,53,115,53,115Zm17,0c1.35,1.624.64,1.121,3,2A11.565,11.565,0,0,0,70,115Zm214,0c1.345,2.305,1.219,1.823,2,2h1A11.568,11.568,0,0,0,284,115Zm56,0a19.54,19.54,0,0,1-4,2v1h3c1.552-1.5,1.838-.777,3-3h-2ZM35,116h2a2.833,2.833,0,0,1-1,1v1C35.2,116.979,35.645,117.726,35,116Zm51,0v2C87.609,116.811,87.224,117.582,86,116Zm257,0v2h2v-2h-2Zm36,0c0.372,2.076.242,1.924,1,3a11.568,11.568,0,0,1,3-2v-1h-4ZM78,117c-0.332,2.794-.383,5.994,2,7-0.2-3.916-.378-2.64,0-6Zm211,0a4.017,4.017,0,0,0,5,0h-5Zm65,0-1,2h1c-0.216,1.4,1,1,1,1C356.224,118.764,354,117,354,117ZM49,118v2h2v-2H49Zm5,6c0.828,3.245-.49,1.528,2,3,1.1-2.356.959-1.78,3-3-0.42,3.1-.713,2.383,0,5h2c-0.518-2.206-1.128-1.984,0-4a8.892,8.892,0,0,0,3,3v-4c4.17,0.69,5.149,3.28,7-2H70v-1c-2.347.708-2.234,1.025-4,2a12.667,12.667,0,0,0-1-4c-2.105,1.75-1.463,1.972-3,2-1.52-1.714,1.175-1.292-2-3-1.021.8-.274,0.355-2,1,1.683,2.956,1.018.012,1,4Zm340-6c1.828,1.568,1.395.882,2,4a11.568,11.568,0,0,0-2,3h-1v-1c-0.757-1.078-.668-1.727-1-5C394.212,118.673,393.079,120.038,394,118Zm-104,1v2h1v-2h-1Zm52,0c0.372,2.076.242,1.924,1,3v-1c0.8-1.021.355-.274,1-2h-2Zm45,0c1.021,0.8.274,0.355,2,1C387.979,119.2,388.726,119.645,387,119Zm-28,1q-0.5,2.5-1,5h2C360.072,120.877,361.4,122.219,359,120Zm-11,1c-0.85,2.816-.561,2.817-1,6,2.683,0.955,3.445,2.1,5,4h2a33.561,33.561,0,0,1,0-7h-1v-1C347.642,123.541,351.777,123.339,348,121Zm33,0c-1.021.8-.274,0.355-2,1,1.141,1.672,1.368,3.447,2,4v-1C382.077,123.262,382.035,122.729,381,121Zm8,0-1,2C389.744,121.6,389,121,389,121Zm-221,1c1.021,0.8.274,0.355,2,1C168.979,122.2,169.726,122.645,168,122Zm-76,1c0.8,1.021.355,0.274,1,2H92v-2Zm-41,1-1,2C51.744,124.6,51,124,51,124Zm233,0c5.361-.121,12.175-0.326,16,1-1.021.8-.274,0.355-2,1-2.848,1.4-3.656-.867-6,0-2.665,1.154-2.1,1.916-5,3v-1A19.089,19.089,0,0,1,284,124Zm-156,1c0.8,1.021.355,0.274,1,2h-1v-2Zm255,1v2h1v-2h-1Zm6,1c-1.041,2.814-2.516,1.367,0,3C389.058,127.094,389.964,128.611,389,127ZM35,130c0.8,1.021.355,0.274,1,2H35v-2Zm94,0c0.752,1.073.6,0.946,1,3,3.181,1.076,4.942,3.544,9,6v1c-3.2.937-3.5,1.739-8,2-1.838-2.919-2.739-2.905-3-8C128.643,133.1,128.3,132.024,129,130Zm235,7h4c1.554-2.026,3.5-2.858,5-5h-1a6.1,6.1,0,0,1-2,2,12.662,12.662,0,0,0-1-4,30.978,30.978,0,0,0-5,3c-2.413,2.008-3.378,2.961-4,7l4,1v-4Zm-69-6c2.467,1.295.681-.429,2,2-2.281,1.225-2.251,1.638-6,2l-1-2C294.123,133.2,292.743,134.431,295,131Zm7,0c2.085,2.019,4.257,6.714,3,9-2.395,2.2-6.127,2.141-11,2v-1h1C298.058,137.69,300,135.684,302,131ZM41,132c1.021,0.8.274,0.355,2,1C41.979,132.2,42.726,132.645,41,132Zm13,0c0.995,1.36,1.929,1.806,3,3a17.689,17.689,0,0,0,4-2H60v-1C55.553,133.034,58.9,133.165,54,132Zm300,1v2h1C354.369,133.246,354.807,134.029,354,133ZM37,134c1.828,1.568,1.4.882,2,4H37v-4Zm53,0c3.245,0.828,1.528-.49,3,2-0.649.86-1.338,3.144-2,4a11.565,11.565,0,0,0-3-2Zm306,0c2.4,2.06.212,0.951,1,3C395.184,137.607,396.184,134.967,396,134ZM50,136c0.372,2.076.242,1.924,1,3v-1h1v-1Zm253,0v2h1v-2h-1Zm81,0c1.021,0.8.274,0.355,2,1C384.979,136.2,385.726,136.645,384,136Zm18,1c2.076,0.372,1.924.242,3,1h-2l-1,1v-2ZM41,138c1.116,1.66,1.77,1.069,0,2v-2Zm364,0c2.542,1.455,1.128-.217,2,3h-1Zm-273,1c1.021,0.8.274,0.355,2,1C132.979,139.2,133.726,139.645,132,139Zm-46,1c1.116,1.66,1.77,1.069,0,2v-2Zm289,0c1.021,0.8.274,0.355,2,1C375.979,140.2,376.726,140.645,375,140Zm12,0v2h2v-2h-2Zm-8,1c0.327,2.212-1.038,1.079,1,2C379.369,141.246,379.807,142.029,379,141Zm15,0c1.021,0.8.274,0.355,2,1C394.979,141.2,395.726,141.645,394,141ZM263,156c-0.372,2.076-.242,1.924-1,3v-3c-4.23-.082-7.137,1.741-9,2-2.208.307-1.864-.157-2-2-4.307-.794-7.209,2.627-10,4v-3a71.9,71.9,0,0,0-17,1c-1-3.011.4-2.657-2-4-0.166,3.813.668,5.3-2,7v-1c-0.752-1.073-.6-0.946-1-3,1.78-2.173,2.111-6.1,3-10a14.124,14.124,0,0,0-4-1v1c2.467,1.295.681-.429,2,2-6.6.808-5.516,4.047-13,5v3c-8.711-1.087-9.319,1.262-15,2-3.236.421-2.657-2.358-4-3-4.278-2.045-10.271,1.352-13,2v-1h1c2.773-3.636,9.055-2.816,11-7h-1v-1c-4.4-.217-6.957-2.672-10-2-1.554.343-4.13,3.443-6,4-5.193,1.546-10.522,1.064-15,2-0.117,3.741,1.206,2.442-3,3-2.09,1.721-4.632,2.534-8,3-1.156-2.249-1.453-1.486-3-3,2.624-2.013,3.623-4.721,5-8,0.872,0.74,1.128,1.259,2,2v-5h-2c-2.431,1.57-4.163.7-6-1,5.078-.131,5.2-1.148,9-2-0.007,2.616-1.3.883,1,3a2.834,2.834,0,0,0,1,1c0.828-3.245-.49-1.528,2-3,4.876,3.862,24.839,2,36,2,30.691,0,56.484.081,86,0v1C270.459,149.122,269.265,154.716,263,156Zm132-4c-0.406-3.064-1.389-1.738-2-3-1.369-2.828,4.406-2.943,0-6-1.073-.752-0.946-0.6-3-1v2c2.583,2.588,2.216,2.509,2,6h-1a11.568,11.568,0,0,0-3-2v1c2.347,2.144,1.245,2.442,2,5C392.091,152.879,391.832,152.565,395,152ZM64,143c2.543,1.455,1.128-.217,2,3H64v-3Zm22,1v4a12.662,12.662,0,0,1,4,1v1H88c-1.153-.822-1.24-0.47-4-1-1.193-3.776-.959-1.012-1-5h3Zm2,0c0.8,1.021.355,0.274,1,2H88v-2Zm49,4c-3.2.257-3.191,0.994-5,0-0.842-1.205-.361-0.919-1-3h-2c1.039,4.164-.213,6.37-3,11h-2v-1a11.568,11.568,0,0,0,2-3h-2c-1.949,2.88-4.6,3.681-7,6-2.8-1.03-2.1-1.518-6-2-1.749,2.267-3.766,3.177-7,4v2h3c1.021-.8.274-0.355,2-1v1c-4.788,4.392-9.545,8.813-14,11v-3c-0.16-1.675,1.037-2.955,2-6H93a6.107,6.107,0,0,1-2,2v-2c1.9-3.972-1.31-9,0-16,9.063-4.671,19.723-4.132,34-4,1.986,1.089,8.358.144,13,0v1C137.248,146.073,137.4,145.946,137,148Zm161-4c2.076,0.372,1.924.242,3,1h-1c-1.021.8-.274,0.355-2,1v-2Zm111,0c0.8,1.021.355,0.274,1,2h-1v-2Zm-32,1a20.14,20.14,0,0,0,1,7h2c0.284-4.237-.871-1.168,2-4-0.752-1.073-.6-0.946-1-3h-4Zm-25,1c-1.021.8-.274,0.355-2,1v1h2l1-2h-1ZM62,147h2v2H63Zm38,0c-0.771.682-2.232,1.311-3,2h1c1.18,0.8,1.681.773,4,1C102.033,146.4,102.981,149.028,100,147Zm21,0a19.54,19.54,0,0,0,4,2C123.432,147.171,124.118,147.6,121,147Zm169,1c-1.121,2.091-1.435,1.832-2,5h1v1c5.265-2.494,7.452,1.664,12-1C297.087,151.276,295.412,148.838,290,148Zm69,0c-1.021.8-.274,0.355-2,1v1c2.532,0.074,3.716.12,5,1-2.467,1.295-.681-0.429-2,2h4v-2C365.973,149.96,361.855,148.168,359,148Zm-228,2c2.076,0.372,1.924.242,3,1h-2v2h-1v-3Zm188,0c-1.667,2.919-4.224,1.968-3,5v2h1c0.968-4.026,2.076-2.764,3-7h-1Zm6,0v2h1v-1h1C325.979,150.2,326.726,150.645,325,150Zm21,0v2c-2.756-.5-3.723-1.4-6,0h1c1.677,1.382,8.639,2.666,9,2C350.315,153.949,346.406,150.274,346,150Zm55,0c1.35,1.624.64,1.121,3,2v-2h-3Zm9,0c-0.34,2.422-.327.883,0,4h2v-1C411.318,152.229,410.689,150.768,410,150Zm11,0c1.116,1.66,1.77,1.069,0,2v-2ZM79,151l3,1v1H79v-2Zm28,3c-0.828-3.245.49-1.528-2-3q-0.5,1-1,2h-1v1h4Zm247-3v2C355.609,151.811,355.224,152.582,354,151Zm12,0-1,3h3v-2Zm31,0v2h2v-2h-2Zm17,0c1.021,0.8.274,0.355,2,1C414.979,151.2,415.726,151.645,414,151Zm-268,4a12.662,12.662,0,0,1,4,1v-2c-2.347-.708-2.234-1.025-4-2v3Zm80,0c3.245-.828,1.528.49,3-2h-1v-1h-2v3Zm84-3v2h1v-2h-1Zm23,0v2h2v-1ZM94,153v2h2a2.832,2.832,0,0,1,1-1v-1H94Zm23,1c1.021,0.8.274,0.355,2,1C117.979,154.2,118.726,154.645,117,154Zm11,0c1.116,1.66,1.77,1.069,0,2v-2Zm157,0c1.021,0.8.274,0.355,2,1C285.979,154.2,286.726,154.645,285,154Zm137,0c0.571,2.131-2,5-2,5C417.759,157.583,421.117,155.452,422,154Zm-43,1c1.72,0.881,1.278.889,3,0h-3Zm8,0c-1.1,3.434-1.13-.5-2,3h2v1h1a12.662,12.662,0,0,1,1-4h-2Zm-225,1h4v1h-1c-1.295.877-2.467,0.894-5,1v-1C161.754,156.369,160.971,156.807,162,156Zm159,0v2a12.662,12.662,0,0,1,4,1v-2h-1v-1h-3Zm-50,1h2v1C271.246,157.369,272.029,157.807,271,157ZM88,158h2c-0.34,2.422-.326.883,0,4C86.023,160.916,87.309,161.021,88,158Zm31,1h2v1C119.246,159.369,120.029,159.807,119,159Zm267,5v-5h-1v1a19.54,19.54,0,0,0-2,4h3ZM80,164v-3l4-1v3H83v1H80Zm84-4h2v1h-2v-1Zm201,0v2h1C365.369,160.246,365.807,161.029,365,160Zm6,0v2h2v-1Zm-59,1c-1.34,1.9-1.283.874-2,4,2.64,2.309,2.739,5.066,6,7l-2-3,3-1c-3.186-3.768-1.992-2.385-5-5,0.74-.872,1.259-1.128,2-2h-2Zm20,0v2h1C332.369,161.246,332.807,162.029,332,161ZM169,193h-4v1c3.336,2.208.784,1.584,0,4-0.806,2.484,1.652-.071,1,4h-2a14.338,14.338,0,0,0-1-5h-1v1c-1.577,2.065-1.264,4.129-2,5-1.295.877-2.467,0.894-5,1v-1a10.925,10.925,0,0,0,3-2c-1.834-1.285-1.712-1.968-4-3-0.766,4.978-6.51,6.765-9,7,0.421-4.541.961-3.634,3-6a21.812,21.812,0,0,1-6,0v2c1.507,1.261,1.721,3.223-1,4-2.279-2.324-3.59-.975-7-2,1.222-3.766,1.681-9.367,3-13-5.275-1.033-10.77-2.2-11-9,2.181-2.637,1.309-5.805,2-10h1c0.074,2.532.12,3.716,1,5,0.711-4.764,2.42-4.6,4-8-1.3-.555-0.741-0.03-1-1,2.651-3.421,4.275-2.626,9-2v3c7.294-.633,7.532-2.711,12,2,5.805-2.093,9.141-5.216,14-7,0.874,4.115,1.208,5.473,6,6-0.539-3.444-1.12-3.117-2-6h1v-1c5.572,5.652,5.845,8.08,15,6v1c-0.334.249-9,11-9,11-0.777,2.437,1.277,2.676,0,5-1.295-2.468.429-.681-2-2-1.322,2.458-2.042,2.287-5,3a16.987,16.987,0,0,1-1,6c-0.872-.74-1.128-1.26-2-2v3Zm47-11a12.662,12.662,0,0,1,1-4h1v1h1q-0.5,1-1,2h1a6.1,6.1,0,0,1,2-2v-1c-3.245-.828-1.528.49-3-2,1.546-1.133.843-1.085,3-2,0.372,2.076.242,1.924,1,3v-2c0.8-1.021.355-.274,1-2-3.2-.257-3.191-0.994-5,0-0.682.771-1.311,2.232-2,3v-2c-0.757-1.078-.668-1.727-1-5,3.784-.316,4.466-1.3,7-2,1.414,0.556,2.246,3.038,6,2,5.287-1.462,5.65-5.428,12-1-3.1,1.333-4.351,3.125-5,7,1.061,1.755.6,2.183,1,5h4c1.021-.8.274-0.355,2-1,1.132-4.547,3.609-6.834,5-11,9.036,2.9,13.34-2.874,19,1v-4c3.652-.577,4.32-1.639,7-3v2c1.87,3.251-.8,3.946,2,6,1.021,0.8.274,0.355,2,1,0.117-3.741-1.206-2.442,3-3,0.555,1.3.03,0.741,1,1h1c-0.74-.872-1.26-1.128-2-2,8.331,0.215,9.338-1.116,16-4v2c-4.171,2.457-11.151,6.24-13,11-2.031-1.9-1.868-2.872-5-4v1h-1c1.487,1.523,3.524,2.465,5,4-2.184,2.211-1.142,3-5,4-0.437-2.812.116-3.262-1-5v1h-1l-4,7c2.212,0.327,1.079-1.038,2,1h-2c-3.738,4.32-16.242,8.657-15,18-3.733-.472-4.323,1.048-8,3-0.416-3.58.472-2.516-2-4v2c-1.322,1.737-1.727,1.607-1,3,1.638,2.031,1.166-.7,2,2h-3c-1.224-2.057-1.649-2.912-4-4,0.029,2,1.023.282,0,2-2.115,1.611-6.877,2.464-8,2-1.754-.631-0.971-0.193-2-1,0.859-1.883.474-.738,0-3,2.327-.195,2.826-0.193,4-1h-1v-1c-3.783,1.871-8.784,5.485-11,6-1.406-1.211-2.79-1.52-4-3,4.052,0.079,2.386,1.636,4-1h1v-1h-4v1h-1v-1c-0.708-1.545-.129-0.135,0-3,3.57-.44,6.353.465,8-2-3.668-.692-2.733.044-4-3h1c1.35,1.624.64,1.121,3,2v-1h1c-2.064-2.764.095-3.744-6-4-1.456,2.5-.586,2.156-4,3q-0.5-2-1-4h1c0.087,0.1,1.313,2.886,2,2v-1h1v-1c-3.162-.4-3.795-0.985-6-2q0.5-1.5,1-3c-2.212-.327-1.079,1.038-2-1,1.861-1.008,3.829-2.058,6-3v-1h-3Zm163-20v2h2v-1Zm16,0v2h1v-2h-1Zm-45,1c-1.013,3.532-2.12,3.3-3,7h1c1.143-2.967,3.142-3.938,6-5v-1A12.662,12.662,0,0,1,350,163Zm14,10c0.731-4.487,2.631-4.465,0-8-1.021.8-.274,0.355-2,1,0.007-3.182,1.2-2.409-3-3v1h-1c0.7,3.143-.069,3.374-1,7,2.076,0.372,1.924.242,3,1-3.245.828-1.528-.49-3,2,0.872,0.74,1.128,1.259,2,2C360.663,174.075,360.83,173.708,364,173Zm23-10a14.338,14.338,0,0,0,1,5h1v-5h-2ZM85,164h2c-0.029,2-1.023.282,0,2C84.972,167.971,85.121,164.964,85,164Zm73,0h2q-0.5,1-1,2c-2.252.877-2.58,1.779-4,1h-1v-1C156.245,165.413,156.655,165.252,158,164Zm61,0h2v1C219.246,164.369,220.029,164.807,219,164Zm113,7q0.5-2.5,1-5a21.509,21.509,0,0,0-7-1v-1h-1v2C327.908,168.3,327.31,170.054,332,171Zm7-7v2c2.906,0.058,1.389.964,3,0h1c-1.021-.8-0.274-0.355-2-1C339.979,164.2,340.726,164.645,339,164Zm34,0,1,3c-3.122-.091-6.54.1-7,6h1c2.358-1.461,3.768-.44,7,0a26.945,26.945,0,0,1,0-6C374.158,164.611,374.6,165.355,373,164Zm40,0c0.327,2.212-1.038,1.079,1,2,1.021-.8.274-0.355,2-1v-1h-3ZM79,165l3,1v1C79.611,166.158,80.355,166.6,79,165Zm32,0c0.8,1.021.355,0.274,1,2h-1v-2Zm73,0h2v1h-1c-1.737,1.322-1.607,1.727-3,1h-1v-1C183.076,165.628,182.924,165.758,184,165Zm33,0h2v1C217.246,165.369,218.029,165.807,217,165Zm10,0h2v1C227.246,165.369,228.029,165.807,227,165Zm92,0,1,3h2v-1C319.811,166.1,320.557,166.138,319,165Zm41,1h2v1h-2v-1Zm-60,1a14.338,14.338,0,0,1,5,1v1h-2C302.229,168.318,300.768,167.689,300,167Zm34,0c0.372,2.076.242,1.924,1,3v-1c0.8-1.021.355-.274,1-2h-2Zm-219,1c2.067,1.183,1.882.684,3,3h-2a2.834,2.834,0,0,1-1,1v-4Zm226,0c1.66,1.116,1.069,1.77,2,0h-2Zm38,0,1,3h1C380.158,168.611,380.6,169.355,379,168Zm-191,3h2v1C188.246,171.369,189.029,171.807,188,171Zm136,0c1.021,0.8.274,0.355,2,1C324.979,171.2,325.726,171.645,324,171Zm67,0,1,3h1v-2Zm-41,1c1.183,2.067.684,1.882,3,3v-1C351.454,172.867,352.157,172.915,350,172Zm51,0c0.074,2.532.12,3.716,1,5,0.81-3.514,1.4-2.7,3-5h-4Zm-55,1c1.021,0.8.274,0.355,2,1C346.979,173.2,347.726,173.645,346,173Zm23,0c-0.1,2.45.413,2.882,2,3,0.8-1.021.355-.274,1-2Zm-20,1c0.372,2.076.242,1.924,1,3v-3h-1Zm24,0c1.35,1.624.64,1.121,3,2A11.568,11.568,0,0,0,373,174Zm-102,1v2h1v-2h-1Zm65,0h2C336.812,176.609,337.582,176.224,336,175Zm61,0-1,3h1v-2h1v-1h-1Zm-89,1c-1.3.877-2.467,0.894-5,1v2c-0.8,1.179-.773,1.681-1,4h1c2.675-2.707,5.779.648,7-5,0.8-1.021.355-.274,1-2h-3Zm-96,1,3,1v1h-3v-2Zm50,0c0.045,2.7-.169.661,1,4h1C263.448,177.864,263.79,178.567,262,177Zm96,1c-0.372,2.076-.242,1.924-1,3-1.3-2.468.429-.681-2-2v2c1.754,0.631.971,0.193,2,1,1.754-.631.971-0.193,2-1,2.542-1.456,1.128.217,2-3h-3Zm14,1c0.372,2.076.242,1.924,1,3a6.1,6.1,0,0,1,2-2v-1h-3Zm32,1c0.752,1.073.6,0.946,1,3h-2Zm-68,1c2.076,0.372,1.924.242,3,1h-2C336.309,182.132,335.056,182.053,336,181Zm33,0c1.021,0.8.274,0.355,2,1C369.979,181.2,370.726,181.645,369,181Zm18,3c0.372-2.076.242-1.925,1-3v1h1l1,2h-3Zm-258-2v2h2v-1Zm134,1c1.737,1.322,1.607,1.727,3,1h1v-1h-4Zm20,2c3.188-.506,2.92-0.872,5-2v2c-3.6,4.2,2.568,4.108,0,6v1h-1c-0.828-3.245.49-1.528-2-3-1.18.8-1.681,0.773-4,1v-2C283.542,186.544,282.128,188.217,283,185Zm47-2h2v1h-2v-1Zm-197,1c0.327,2.212-1.038,1.079,1,2a2.834,2.834,0,0,1,1-1C133.979,184.2,134.726,184.645,133,184Zm199,0h3v3h-3v-3Zm14,1h2v4c-3.012-.965-1.541,1.806-3-1-1.754-.631-0.971-0.193-2-1C345.389,186.158,344.645,186.6,346,185Zm-44,1v2h1C302.369,186.246,302.807,187.029,302,186Zm15,0,3,1v1h-1v1A11.568,11.568,0,0,1,317,186Zm19,0c1.766,0.961,1.68,1.257,4,2v1h-3v-1C336.2,186.979,336.645,187.726,336,186Zm-115,1c-1.021.8-.274,0.355-2,1v1C220.146,188.563,223.7,187.846,221,187Zm151,1c0.8,1.021.355,0.274,1,2h-1v-2Zm-24,1h3c1.3,2.467-.429.681,2,2v1c-4.165.555-4.307,2.271-7,1C348.692,191.753,347.1,192.443,348,189Zm-219,1,4,1v1c-3.444.539-3.117,1.12-6,2C127.708,191.653,128.025,191.766,129,190Zm168,0v2h1C297.369,190.246,297.807,191.029,297,190Zm24,0c0.8,1.021.355,0.274,1,2h-1v-2Zm54,0c2.076,0.372,1.924.242,3,1h-3v-1Zm-61,1h2v2h-2v-2Zm-11,1c2.245,0.587,2.655.748,4,2-1.061,1.755-.6,2.183-1,5h-1v-1C304.552,197.062,304.007,194.316,303,192Zm50,1c0.8,1.021.355,0.274,1,2h-1v-2Zm-140,1c0.35,0.3,2,.523,1,2C212.886,195.512,210.886,194.224,213,194Zm95,0c0.35,0.3,2,.523,1,2C307.886,195.512,305.886,194.224,308,194Zm47,0c1.28,2.043.686,2.833,0,5C352.835,196.07,353.572,197.033,355,194Zm-223,1h2v2h-2v-2Zm-5,1h2C127.811,197.609,128.582,197.224,127,196Zm235,2c2.532,0.074,3.716.12,5,1-3.3.667-2.339,1-5,2v-3Zm-224,1v2h2a2.834,2.834,0,0,1,1-1v-1h-3Zm102,12c0.372-2.076.242-1.924,1-3v1h1q0.5,1,1,2h-3Z"/>
  <path id="Color_Fill_6" data-name="Color Fill 6" class="cls-2" d="M106.773,165.581a1.087,1.087,0,0,0-.541.369,1.69,1.69,0,0,1-.491.42l-0.251.285a0.531,0.531,0,0,1-.391.219,0.582,0.582,0,0,0-.44.444,0.7,0.7,0,0,1-.227.428,4.782,4.782,0,0,0-.529.395,3.371,3.371,0,0,0-.629.646,0.732,0.732,0,0,0-.529.436l-0.352.453a6.088,6.088,0,0,0-.73.924,1.367,1.367,0,0,0-.693.5,1.653,1.653,0,0,1-.264.386,0.74,0.74,0,0,0-.176.26l-0.3.453a2.387,2.387,0,0,0-.5,1.158l-0.227.688a1.855,1.855,0,0,0,.441,1.343,4.071,4.071,0,0,1,.491.554,1.71,1.71,0,0,0,1.662.856l1.082-.453a3.043,3.043,0,0,0,.957-0.6,3.925,3.925,0,0,1,.579-0.5,0.543,0.543,0,0,0,.252-0.235,1.312,1.312,0,0,0,.478-0.84l0.151-.067,0.051-.167a0.369,0.369,0,0,0,.151-0.135l0.151-.319,0.251-.3,0.227-.554a4.07,4.07,0,0,0,.869-1.082,1.423,1.423,0,0,1,.516-0.663l0.05-.353a3.678,3.678,0,0,0,.505-0.822v-0.235l0.1-.168a1.289,1.289,0,0,0,.479-0.839,1.085,1.085,0,0,0,.4-0.52,0.227,0.227,0,0,1,.1-0.168l0.328-.269a13.039,13.039,0,0,1,.695-1.284,1.163,1.163,0,0,0,.239-0.579,0.442,0.442,0,0,1,.189-0.218,0.737,0.737,0,0,0,.214-0.218l0.2-.067a1.46,1.46,0,0,0,.478.2l0.251,0.269a1.91,1.91,0,0,0,.667.487,1.957,1.957,0,0,0,.718.268l0.579-.1h0.3a2.108,2.108,0,0,0,.252.034c0.067,0,.1-0.011.1-0.034a0.713,0.713,0,0,1,.377-0.235l0.4,0.068,0.453-.034a0.874,0.874,0,0,1,.227.034l0.805-.2a1.6,1.6,0,0,1,.529-0.168l0.2-.084a1.084,1.084,0,0,1,.453-0.167l0.528,0.067c0.034,0,.051-0.011.051-0.034l0.78-.2a1.3,1.3,0,0,1,.654-0.269h0.051l0.377,0.1c0.034,0,.051-0.011.051-0.034a2.142,2.142,0,0,1,.755-0.285h0.528a3.853,3.853,0,0,1,.328-0.252,2.181,2.181,0,0,0,.314-0.277,0.659,0.659,0,0,1,.239-0.193l0.453,0.034a5.577,5.577,0,0,0,1.963-1.024l0.252,0.034a1.528,1.528,0,0,1,.428-0.1l0.3-.42,0.1-.033h0.151a1.443,1.443,0,0,0,.78-0.47l0.453,0.1a0.484,0.484,0,0,0,.427-0.227,2.09,2.09,0,0,1,.806-0.529,1.96,1.96,0,0,0,.742-0.461,0.9,0.9,0,0,1,.516-0.294,1.018,1.018,0,0,0,.68-0.26,0.7,0.7,0,0,0,.3-0.428l-0.076-.185v-0.168l0.328-.335a0.476,0.476,0,0,0-.427-0.353,0.179,0.179,0,0,0-.1.034l-0.3.067a3.382,3.382,0,0,0-1.331.621,0.3,0.3,0,0,1-.238.134,1.119,1.119,0,0,0-.464.26,1.1,1.1,0,0,1-.54.261,1.2,1.2,0,0,0-.465.151,0.721,0.721,0,0,1-.351.117l-0.251.185a2.929,2.929,0,0,0-.527.335,1.565,1.565,0,0,0-.653.235q-0.377.219-.728,0.386l-0.2-.067-1.183.487a1.332,1.332,0,0,1-.654.3,0.33,0.33,0,0,1-.177-0.067,5.141,5.141,0,0,1,.844-0.688,7.5,7.5,0,0,0,1.12-.957q0.226-.771.3-0.94l0.554-.956v-0.034l-0.151-.269a0.4,0.4,0,0,1,.075-0.2,0.415,0.415,0,0,0,.076-0.151,1.5,1.5,0,0,0-.718-1.175,2.843,2.843,0,0,0-1.752-.537c-0.068,0-.1.011-0.1,0.034a0.515,0.515,0,0,1-.2.1l-0.58-.167a0.806,0.806,0,0,1-.454.134,8.432,8.432,0,0,0-1.614.235l-0.605.319a9.264,9.264,0,0,0-.984.436l-0.1.252-0.252.1a2.943,2.943,0,0,0-1.173.378,9.534,9.534,0,0,1-1.034.5,2.168,2.168,0,0,0-.617.344,2.286,2.286,0,0,1-.694.361,1.017,1.017,0,0,0-.618.487,1.075,1.075,0,0,1-.429.268c-0.067,0-.1-0.022-0.1-0.067l0.05-.134-0.05-.151,0.73-2.165a1.344,1.344,0,0,0-.705-1.158,2.577,2.577,0,0,0-.907-0.453h-0.5a1.947,1.947,0,0,1-.491.226,0.673,0.673,0,0,0-.39.26,11.172,11.172,0,0,1-1.875,1.444q-0.541.269-.692,0.369a0.961,0.961,0,0,0-.629.218l0.05,0.235a0.971,0.971,0,0,0-.453.067l-0.428.1a0.571,0.571,0,0,0-.353.185l-0.251.235a3.97,3.97,0,0,0-1.082.528,2.754,2.754,0,0,1-.882.437,0.816,0.816,0,0,0-.679.713,0.7,0.7,0,0,0,.83.755,1.3,1.3,0,0,0,.982-0.369l0.1-.1a3.505,3.505,0,0,0,.83-0.554l0.252-.033a5.346,5.346,0,0,1,.83-0.353q0.252-.3.4-0.5a1.811,1.811,0,0,1,.264.05,1.732,1.732,0,0,0,.264.051q0.454,0,.454-0.252l0.176-.47a0.547,0.547,0,0,1,.5-0.134h0.2a0.141,0.141,0,0,1,.151.167v0.068l-0.2.369-0.05.252a4.846,4.846,0,0,0-.73,1.443l-0.1.436-0.3.386-0.1.336q-0.049.067-.377,0.7l-0.6,1.192a0.4,0.4,0,0,1-.151.3l-0.277.251a0.873,0.873,0,0,0-.605.4h0Zm6.13-2.1a5.978,5.978,0,0,0-.629.336,0.568,0.568,0,0,1-.277.117,0.089,0.089,0,0,1-.1-0.1l0.151-.4a1.113,1.113,0,0,1,.756-0.772h0.075l-0.126-.336a2.041,2.041,0,0,1,.252-0.05,0.529,0.529,0,0,0,.227-0.084l0.981-.839a1.445,1.445,0,0,0,.454-0.336l0.629-.168a1.841,1.841,0,0,1,.5-0.319,0.51,0.51,0,0,1,.378-0.369h0.353a2.413,2.413,0,0,1,.591-0.445,4.381,4.381,0,0,0,.743-0.5l0.3,0.051,0.177-.084,0.3,0.033a1.345,1.345,0,0,1,.642-0.252,0.917,0.917,0,0,0,.465-0.134,1,1,0,0,1,.416-0.151,0.621,0.621,0,0,0,.365-0.159,0.385,0.385,0,0,1,.277-0.126,1.181,1.181,0,0,1,.5.151v0.033l0.63-.184a1.535,1.535,0,0,1,.352.554,1.1,1.1,0,0,1-.1.235l-0.151.218a3.149,3.149,0,0,1-.553.789l-0.882.856-0.83.621a5.342,5.342,0,0,1-.894.73,1.054,1.054,0,0,0-.365.277q-0.077.117-.126,0.2a0.543,0.543,0,0,0-.151-0.033,0.822,0.822,0,0,0-.428.167,8.151,8.151,0,0,1-1.486.554,0.948,0.948,0,0,0-.466-0.369c-0.142-.034-0.273-0.067-0.39-0.1a1.166,1.166,0,0,0-.226-0.05c-0.051,0-.311.033-0.781,0.1l-0.881.1A2.189,2.189,0,0,0,112.9,163.483Zm-11.437,10.524a2.187,2.187,0,0,1,.3-1.175l0.051-.3-0.051-.336a1.7,1.7,0,0,1,.34-0.31,0.831,0.831,0,0,0,.34-0.663l-0.1-.3H102.6a1.227,1.227,0,0,0,.352-0.486,1.107,1.107,0,0,0,.882-0.756v-0.234l0.428-.588a0.578,0.578,0,0,1,.5-0.268l0.1-.084a2.487,2.487,0,0,1,.4-0.605l0.377-.033a0.407,0.407,0,0,0,.252-0.21,0.552,0.552,0,0,1,.3-0.243q-0.6,1.174-.692,1.4a7.227,7.227,0,0,1-.39.764l-1.385,2.433a1.069,1.069,0,0,1-.252.252l-0.05.134a3.578,3.578,0,0,0-.428.437l-0.252.319a12.583,12.583,0,0,1-1.284,1.309v-0.453ZM125.3,161.469a0.419,0.419,0,0,0,.5.437,5.877,5.877,0,0,0,1.361-.5,2.567,2.567,0,0,1-.63,1.234,3.4,3.4,0,0,0-.718,1.04q-0.315.663-.315,0.68l0.05,0.3-0.151.353q0,0.016.328,0.52a0.985,0.985,0,0,0,.856.5,0.69,0.69,0,0,0,.29-0.1q0.189-.1.568-0.26a1.3,1.3,0,0,0,.592-0.487,0.934,0.934,0,0,1,.29-0.344,12.709,12.709,0,0,0,1.108-.739,6.191,6.191,0,0,0,1.034-.789,0.542,0.542,0,0,1,.6-0.553,0.62,0.62,0,0,1,.215.042,0.543,0.543,0,0,0,.164.042,0.62,0.62,0,0,0,.3-0.328,0.859,0.859,0,0,1,.731-0.361l0.252-.318a1.056,1.056,0,0,0,.832-0.437l0.4-.084,0.2-.268a3.61,3.61,0,0,0,.642-0.294,1.843,1.843,0,0,1,.693-0.26,2.445,2.445,0,0,1,1.084-.437,1.471,1.471,0,0,0,.68-0.52v-0.033l0.63,0.067a1.53,1.53,0,0,0,.4-0.378,0.433,0.433,0,0,1,.353-0.21,2.552,2.552,0,0,1,.378.1,0.456,0.456,0,0,0,.3.084,0.24,0.24,0,0,1,.251.268l-0.05.235,0.05,0.42a0.256,0.256,0,0,1-.05.2,7.855,7.855,0,0,0-.453,1.444l-0.252,1.024a0.8,0.8,0,0,0,.151.318l-0.226.235,0.125,0.353-0.05.336a0.488,0.488,0,0,0,.176.277,1.777,1.777,0,0,1,.327.486,0.733,0.733,0,0,0,.541.4,2.112,2.112,0,0,1,.591.2,0.7,0.7,0,0,0,.3.118,2.94,2.94,0,0,0,1.182-.151,6.393,6.393,0,0,1,.792-0.345,2.013,2.013,0,0,0,.515-0.226q0-.369.2-0.369l0.5,0.033a5.931,5.931,0,0,1,.779-0.487,0.791,0.791,0,0,1,.528-0.587l0.453,0.134a1.1,1.1,0,0,0,.628-0.5,3.33,3.33,0,0,0,1.195-.428,1.318,1.318,0,0,1,.54-0.277,0.661,0.661,0,0,0,.427-0.336l0.1-.168a2.211,2.211,0,0,0,.5-0.847,1.2,1.2,0,0,1,.176-0.479,0.634,0.634,0,0,0,.125-0.352q0-.252-0.351-0.252a1.43,1.43,0,0,0-.778.286l-0.15.134a9.768,9.768,0,0,0-1.681.763,4.269,4.269,0,0,0-.979.647,3.086,3.086,0,0,1-.9.394,0.416,0.416,0,0,0-.326.126,3.856,3.856,0,0,0-.678.487,0.64,0.64,0,0,1-.527.2,1.81,1.81,0,0,1-.552.3c-0.167,0-.251-0.056-0.251-0.168l0.05-.352-0.1-.436,0.1-.319a3.843,3.843,0,0,1,.352-0.789,5.9,5.9,0,0,0,.4-0.89l0.277-.822,0.2-1.041a0.9,0.9,0,0,0-.756-1.015,5.035,5.035,0,0,0-1.763-.327l-0.379.033-0.2-.033H140.27a6.514,6.514,0,0,0-1.185.209,6.075,6.075,0,0,0-1.172.361,6.119,6.119,0,0,1-.883.344,2.415,2.415,0,0,0-.921.5,0.905,0.905,0,0,1-.529.31,0.465,0.465,0,0,0-.391.269,1.021,1.021,0,0,1-.82.319,0.4,0.4,0,0,0-.151.2,0.475,0.475,0,0,1-.252.235l-0.252-.033a4.061,4.061,0,0,1-.429.2l-0.252.117a1.733,1.733,0,0,1-.617.47,4.175,4.175,0,0,0-.932.672,1.971,1.971,0,0,1-.717.5c-0.1,0-.151-0.033-0.151-0.1a9.007,9.007,0,0,1,.5-0.789,2.052,2.052,0,0,0,.567-0.747,3.112,3.112,0,0,1,.742-0.948l0.353-.5a3.064,3.064,0,0,1,.352-0.655Q135,156.217,135,156.2v-0.033a0.579,0.579,0,0,1-.1-0.269q0-.285.68-0.285l0.4,0.084a1.188,1.188,0,0,1,.352-0.286l0.2-.134,2.341-2.232a2.068,2.068,0,0,1,.68-0.789,0.878,0.878,0,0,0,.44-0.6,0.729,0.729,0,0,1,.164-0.437,2.642,2.642,0,0,0,1.032-1.846,0.584,0.584,0,0,1,.5-0.386l0.377-1.51a6.328,6.328,0,0,0,.3-0.722,1.59,1.59,0,0,0-.441-0.94,1.737,1.737,0,0,0-1.422-.537,0.878,0.878,0,0,0-.743.311,1.512,1.512,0,0,1-.466.428,1.006,1.006,0,0,0-.39.386,1.937,1.937,0,0,1-.478.511,5.565,5.565,0,0,0-.693.663l-0.528.588-0.3.352a2.509,2.509,0,0,0-.629.68,0.94,0.94,0,0,1-.3.378,6.992,6.992,0,0,0-1.448,1.644,9.6,9.6,0,0,1-.692,1.066,2.923,2.923,0,0,0-.3.42q-0.075.142-1.056,1.5a3.79,3.79,0,0,0-.979,1.41v0.151l-0.1.067-0.226.034-0.2.268a0.346,0.346,0,0,1-.3.235,5.917,5.917,0,0,1-.978,1.46q-0.126.051-1.315,0.806a8.957,8.957,0,0,0-1.264.873,1.312,1.312,0,0,1-.835.335l-0.2.185a1.841,1.841,0,0,0-.784,1.443h0Zm33.613,2.761a0.869,0.869,0,0,1,.29-0.176,0.4,0.4,0,0,0,.252-0.269,0.56,0.56,0,0,1,.252-0.318,1.363,1.363,0,0,0,.365-0.378,2.882,2.882,0,0,1,.214-0.294l0.152-.134a0.4,0.4,0,0,1,.226-0.168,0.432,0.432,0,0,0,.252-0.285l0.2-.47-0.076-.336a0.67,0.67,0,0,1,.277-0.218l0.05-.134-0.05-1.377-0.277-.587a8.487,8.487,0,0,1-.605-0.655,1.182,1.182,0,0,1-.58-0.2,3.325,3.325,0,0,1,.428-0.453,0.684,0.684,0,0,0-.491-0.688,7.836,7.836,0,0,0-.959-0.294,3.171,3.171,0,0,1-.517-0.143,8.637,8.637,0,0,0-.983-0.218l-0.732-.168a1.565,1.565,0,0,0-.529.126,3.757,3.757,0,0,1-.631.185c-0.2.039-.42,0.084-0.655,0.134a2.876,2.876,0,0,1-.555.076,7.479,7.479,0,0,0-2.081.478,7.882,7.882,0,0,0-1.715.705,2.083,2.083,0,0,1-.858.344,3.576,3.576,0,0,0-.92.3,1.267,1.267,0,0,1-.782.436,3.594,3.594,0,0,0-1.046.63,1,1,0,0,1-.58.319,1.5,1.5,0,0,0-.744.453,1.227,1.227,0,0,0-.4.529l0.153,0.419-0.051.3q0,0.235.457,0.235a0.641,0.641,0,0,0,.608-0.31,1.523,1.523,0,0,1,.229-0.344l0.3,0.067a0.3,0.3,0,0,0,.292-0.185,0.446,0.446,0,0,1,.341-0.235,1.006,1.006,0,0,0,.5-0.3c0.168,0.09.235,0.162,0.2,0.218l-0.6,1.343v0.537a1.111,1.111,0,0,1-.252.285l0.05,0.37-0.05.318v0.068a1.619,1.619,0,0,0,.4.839,2.318,2.318,0,0,0,.831.738l0.353,0.2a1.025,1.025,0,0,0,.39.235,1.818,1.818,0,0,1,.516.3,0.991,0.991,0,0,0,.542.235,1.03,1.03,0,0,1,.491.159,0.816,0.816,0,0,0,.429.143,1.956,1.956,0,0,0,.428-0.1l0.4,0.034a2.306,2.306,0,0,0,.983-0.126,1.066,1.066,0,0,1,.516-0.143,2.61,2.61,0,0,0,.706-0.151,4.848,4.848,0,0,1,.667-0.185,3.909,3.909,0,0,0,.907-0.369l0.252,0.034a1.107,1.107,0,0,0,.517-0.3,1.058,1.058,0,0,1,.617-0.3,0.358,0.358,0,0,1,.2.067l1.185-.688A0.708,0.708,0,0,0,158.908,164.23Zm-8.364.059,0.1-.621,0.1-.218a0.382,0.382,0,0,0-.176-0.2,0.5,0.5,0,0,1-.176-0.168,0.336,0.336,0,0,1,.264-0.276,0.846,0.846,0,0,0,.34-0.21,1.441,1.441,0,0,1,.276-0.655l0.452-.755q0.4-.268.653-0.47l0.277-.218a0.71,0.71,0,0,0,.5-0.554l0.3-.2a1.1,1.1,0,0,0,.7-0.219,1.193,1.193,0,0,1,.326-0.218h0.327a1.015,1.015,0,0,0,.3-0.285,0.4,0.4,0,0,1,.3-0.2,5.669,5.669,0,0,1,.578.168,4.726,4.726,0,0,0,1.783-.621,4.515,4.515,0,0,1,.578-0.134c0.1,0,.151.034,0.151,0.1a1.824,1.824,0,0,1-.591.394,0.909,0.909,0,0,0-.59.713,0.771,0.771,0,0,0,.54.789,0.655,0.655,0,0,1,.54.554,2.088,2.088,0,0,1-.151.655l-0.477.6a0.285,0.285,0,0,1-.1.252l-0.2.2a0.772,0.772,0,0,1-.377.378,1.476,1.476,0,0,0-.49.419,1.468,1.468,0,0,1-.729.445,0.6,0.6,0,0,0-.514.554l-0.1.033h-0.351a0.7,0.7,0,0,0-.239.252,0.564,0.564,0,0,1-.465.252,1.668,1.668,0,0,0-.741.26,2.538,2.538,0,0,1-1.243.26,6.183,6.183,0,0,1-.754-0.067l-0.125-.033h-0.4l-0.051-.034-0.1-.386Zm17.945-13.377a2.381,2.381,0,0,0-.818.118,1.589,1.589,0,0,1-.416.117l-0.4.067a6.108,6.108,0,0,1-.893.126,3.419,3.419,0,0,0-.957.193,1.46,1.46,0,0,1-.566.135l-0.328-.034-1.032.185a9.408,9.408,0,0,0-1.46.31,1.536,1.536,0,0,1-.478.126h-0.1l-0.277-.067h-0.05l-1.033.268q-4.279.27-4.279,1.931a1.08,1.08,0,0,0,.339.679,0.913,0.913,0,0,0,.592.378l0.2-.034a6.969,6.969,0,0,1,1.359-.688l2.568-.47c0.168,0.023.269,0.034,0.3,0.034a4.044,4.044,0,0,0,1.183-.285l0.579,0.033a1.774,1.774,0,0,1,.6-0.168h0.227l1.032-.2a7.068,7.068,0,0,1,2.241-.4l1.108-.084,0.352,0.034a0.511,0.511,0,0,0,.277-0.151,2,2,0,0,1,.554-0.3,1.123,1.123,0,0,1,.5.151l1.083-.353a0.641,0.641,0,0,1,.151.134,1.787,1.787,0,0,1-.517.965,5.458,5.458,0,0,0-.643.814,8.7,8.7,0,0,1-1.613,1.385,12.624,12.624,0,0,1-1.979,1.318,0.851,0.851,0,0,0-.592.654l-0.125.067h-0.2l-0.151.067-0.051.135-0.252.1a0.43,0.43,0,0,0-.479.42l-0.1.067a0.869,0.869,0,0,0-.5.26,5.593,5.593,0,0,1-.957.613,1.449,1.449,0,0,0-.656.47,0.4,0.4,0,0,1-.378.218,0.757,0.757,0,0,0-.5.285,1.258,1.258,0,0,1-.6.386,0.608,0.608,0,0,0-.4.655,0.825,0.825,0,0,1,.252.2,0.456,0.456,0,0,1-.164.227,0.44,0.44,0,0,0-.164.294c0,0.313.11,0.47,0.328,0.47a0.42,0.42,0,0,0,.227-0.084,1.965,1.965,0,0,1,.416-0.185,0.9,0.9,0,0,0,.441-0.3,1.613,1.613,0,0,0,1.236-.688,0.97,0.97,0,0,0,.782-0.554l0.1-.034a0.618,0.618,0,0,0,.706-0.486l0.1-.034a1.039,1.039,0,0,0,.832-0.352,1.2,1.2,0,0,1,.833-0.4,4.436,4.436,0,0,1,.832-0.789,0.716,0.716,0,0,1,.2.067l0.2-.235a3.411,3.411,0,0,0,.63-0.386,0.742,0.742,0,0,1,.4-0.2c0.067,0,.1.011,0.1,0.033a1.475,1.475,0,0,0-.352.269v0.52l-0.581,1.444,0.1,0.352-0.152,1.477,0.152,0.336-0.051.654a5.355,5.355,0,0,0,.656,1.662,2.117,2.117,0,0,0,1.992,1.292,1.282,1.282,0,0,0,.618-0.218,0.683,0.683,0,0,0,.391-0.445,1.577,1.577,0,0,1,.1-0.419,0.911,0.911,0,0,0,.076-0.294,2.058,2.058,0,0,0-.745-1.754,1.489,1.489,0,0,1-.744-1.032,0.2,0.2,0,0,1,.1-0.1,1.92,1.92,0,0,1-.152-0.554l0.152-.755-0.051-.269a1.7,1.7,0,0,0,.4-0.923v-0.1a0.952,0.952,0,0,1-.05-0.185,8.957,8.957,0,0,1,.353-0.856l-0.1-.269a0.561,0.561,0,0,1,.3-0.453l0.076-.134a0.208,0.208,0,0,1,.075-0.185,0.94,0.94,0,0,0,.2-0.36,1.8,1.8,0,0,1,.4-0.588q0.278-.276.556-0.512l0.453-.453a2.541,2.541,0,0,0,.429-0.277,1.017,1.017,0,0,1,.505-0.21l0.1-.1a0.952,0.952,0,0,1,.731-0.437l1.134-1.376a0.6,0.6,0,0,0,.252-0.151,1.891,1.891,0,0,1,1.033-.822l1.285-.168a3.76,3.76,0,0,1,.478-0.067l0.6-.068q1.258-.251,1.335-0.251a2.058,2.058,0,0,0,.453-0.067,2.232,2.232,0,0,1,.529-0.068c0.066,0,.1.012,0.1,0.034a2.171,2.171,0,0,0,.63.453,1.779,1.779,0,0,0,1.158-.5l1.158-.974a2.136,2.136,0,0,1,.39-0.57,0.75,0.75,0,0,0,.239-0.353q0-.486-0.831-0.487h-0.1l-0.353.1a3.693,3.693,0,0,0-1.2.176,1.346,1.346,0,0,1-.415.143l-0.2-.05h-0.3a4.2,4.2,0,0,1-.6.134,7.937,7.937,0,0,0-.843.185c-0.445.112-.684,0.167-0.718,0.167a1.2,1.2,0,0,1-.428-0.1l-0.151.033a2.125,2.125,0,0,1-.554.134c-0.285,0-.428-0.044-0.428-0.134a0.39,0.39,0,0,1,.038-0.176,0.691,0.691,0,0,0,.025-0.3,0.831,0.831,0,0,1,.114-0.453,1.865,1.865,0,0,0,.126-0.244l-0.252-.637a0.938,0.938,0,0,0-.881-0.806,2.242,2.242,0,0,0-1.232.587,0.706,0.706,0,0,1-.6.319,0.347,0.347,0,0,0-.2.177,1.438,1.438,0,0,1-.226.26,2.536,2.536,0,0,1-.856.822,2.161,2.161,0,0,0-.767.7,0.933,0.933,0,0,1-.541.478l-0.407-.034a0.34,0.34,0,0,0-.127.034,2.843,2.843,0,0,1-.394.1,6.917,6.917,0,0,0-.787.226,3.318,3.318,0,0,1-1.074.16h-0.05l-0.227-.067h-0.05l-0.252.167-0.353.067a2.624,2.624,0,0,0-.377-0.067h0Zm18.193,13.318a0.863,0.863,0,0,1,.289-0.176,0.4,0.4,0,0,0,.253-0.269,0.562,0.562,0,0,1,.251-0.318,1.366,1.366,0,0,0,.366-0.378,2.726,2.726,0,0,1,.214-0.294l0.151-.134a0.4,0.4,0,0,1,.227-0.168,0.435,0.435,0,0,0,.252-0.285l0.2-.47-0.075-.336a0.67,0.67,0,0,1,.277-0.218l0.05-.134-0.05-1.377-0.277-.587a8.75,8.75,0,0,1-.606-0.655,1.182,1.182,0,0,1-.58-0.2,3.384,3.384,0,0,1,.429-0.453,0.684,0.684,0,0,0-.492-0.688,7.822,7.822,0,0,0-.958-0.294,3.171,3.171,0,0,1-.517-0.143,8.678,8.678,0,0,0-.984-0.218l-0.731-.168a1.569,1.569,0,0,0-.53.126,3.774,3.774,0,0,1-.63.185q-0.3.059-.656,0.134a2.857,2.857,0,0,1-.555.076,7.474,7.474,0,0,0-2.08.478,7.858,7.858,0,0,0-1.715.705,2.089,2.089,0,0,1-.858.344,3.563,3.563,0,0,0-.92.3,1.272,1.272,0,0,1-.782.436,3.579,3.579,0,0,0-1.046.63,1.006,1.006,0,0,1-.581.319,1.5,1.5,0,0,0-.743.453,1.218,1.218,0,0,0-.4.529l0.152,0.419-0.051.3c0,0.157.153,0.235,0.457,0.235a0.644,0.644,0,0,0,.609-0.31,1.537,1.537,0,0,1,.228-0.344l0.305,0.067a0.3,0.3,0,0,0,.291-0.185,0.447,0.447,0,0,1,.342-0.235,1.006,1.006,0,0,0,.5-0.3c0.168,0.09.235,0.162,0.2,0.218l-0.6,1.343v0.537a1.092,1.092,0,0,1-.252.285l0.051,0.37-0.051.318v0.068a1.627,1.627,0,0,0,.4.839,2.32,2.32,0,0,0,.832.738l0.352,0.2a1.029,1.029,0,0,0,.391.235,1.845,1.845,0,0,1,.516.3,0.988,0.988,0,0,0,.542.235,1.03,1.03,0,0,1,.491.159,0.813,0.813,0,0,0,.429.143,1.969,1.969,0,0,0,.428-0.1l0.4,0.034a2.3,2.3,0,0,0,.982-0.126,1.073,1.073,0,0,1,.517-0.143,2.6,2.6,0,0,0,.7-0.151,4.856,4.856,0,0,1,.668-0.185,3.909,3.909,0,0,0,.907-0.369l0.252,0.034a1.105,1.105,0,0,0,.516-0.3,1.063,1.063,0,0,1,.617-0.3,0.361,0.361,0,0,1,.2.067l1.184-.688A0.713,0.713,0,0,0,186.682,164.23Zm-8.365.059,0.1-.621,0.1-.218a0.381,0.381,0,0,0-.177-0.2,0.51,0.51,0,0,1-.176-0.168,0.336,0.336,0,0,1,.265-0.276,0.841,0.841,0,0,0,.339-0.21,1.445,1.445,0,0,1,.277-0.655l0.452-.755c0.268-.179.485-0.336,0.653-0.47l0.276-.218a0.714,0.714,0,0,0,.5-0.554l0.3-.2a1.1,1.1,0,0,0,.7-0.219,1.193,1.193,0,0,1,.326-0.218h0.326a1.015,1.015,0,0,0,.3-0.285,0.408,0.408,0,0,1,.3-0.2,5.508,5.508,0,0,1,.578.168,4.726,4.726,0,0,0,1.784-.621,4.475,4.475,0,0,1,.578-0.134c0.1,0,.151.034,0.151,0.1a1.824,1.824,0,0,1-.591.394,0.907,0.907,0,0,0-.59.713,0.77,0.77,0,0,0,.54.789,0.655,0.655,0,0,1,.54.554,2.088,2.088,0,0,1-.151.655l-0.477.6a0.282,0.282,0,0,1-.1.252l-0.2.2a0.772,0.772,0,0,1-.377.378,1.473,1.473,0,0,0-.489.419,1.473,1.473,0,0,1-.729.445,0.6,0.6,0,0,0-.515.554l-0.1.033h-0.352a0.7,0.7,0,0,0-.239.252,0.561,0.561,0,0,1-.464.252,1.66,1.66,0,0,0-.741.26,2.54,2.54,0,0,1-1.244.26,6.17,6.17,0,0,1-.753-0.067l-0.126-.033h-0.4l-0.05-.034-0.1-.386Zm10.442,11.866a2.376,2.376,0,0,0,.655-0.285l0.478-.286a3.336,3.336,0,0,0,1.486-.755,2.271,2.271,0,0,1,.78-0.369q1.359-.739,1.334-1.074l0.151-.1,0.252-.034a2.509,2.509,0,0,0,.667-0.377,1.488,1.488,0,0,0,.6-0.554c0.025-.118.041-0.19,0.05-0.218a1.61,1.61,0,0,1,.541-0.126,6.137,6.137,0,0,0,1.712-1.645l0.252,0.067a1.25,1.25,0,0,0,.478-0.688,0.776,0.776,0,0,1,.755-0.554,2.292,2.292,0,0,0,.631-0.6,2.55,2.55,0,0,0,.354-0.5q0.252-.168.4-0.252a0.219,0.219,0,0,1-.051-0.134c0-.089.067-0.134,0.2-0.134a0.99,0.99,0,0,1,.366.075,2.376,2.376,0,0,0,.517.126v0.067l0.152-.033a1.976,1.976,0,0,0,.731.218,3.593,3.593,0,0,0,1.537-.453,5.137,5.137,0,0,0,.277-0.655,1.1,1.1,0,0,0-.491-0.595,3.285,3.285,0,0,0-.881-0.538,3.607,3.607,0,0,1-.442-0.176,1.511,1.511,0,0,0,.4-0.621,1.258,1.258,0,0,1,.428-0.721l-0.05-.235a0.115,0.115,0,0,1,.1-0.1l0.251-.168q0.478-.789.6-0.973a8.727,8.727,0,0,0,1.007-2.048,3.225,3.225,0,0,1,.616-0.638,1.587,1.587,0,0,0,.517-1.259,5.648,5.648,0,0,0-.227-0.99l-0.1-.084V157.71a0.739,0.739,0,0,0-.755-0.336,1.74,1.74,0,0,0-.478.168l-0.353.168a1,1,0,0,1-.3.251,0.766,0.766,0,0,1-.289-0.553,0.677,0.677,0,0,0-.693-0.554h-0.479a3.006,3.006,0,0,0-.63.084l-0.909.168a2.791,2.791,0,0,1-1.085.369,1.118,1.118,0,0,1-.53.134l-0.353-.034a11.3,11.3,0,0,0-1.817.319l-0.454.135a5.592,5.592,0,0,0-.921.251,1.067,1.067,0,0,1-.315.109,5.446,5.446,0,0,0-.808.311l-1.287.571q-0.681.3-1.262,0.621t-2.271,1.443l-1.611,1.057-0.629.521a0.987,0.987,0,0,0-.856.99q0,0.336.6,0.336a1.054,1.054,0,0,0,.34-0.1,1.149,1.149,0,0,1,.441-0.1h0.05q0.3,1.511,1.032,1.637a6.128,6.128,0,0,1,1.082.26,2.94,2.94,0,0,0,1.03-.177,5.644,5.644,0,0,1,.6-0.243l0.427-.1,0.729-.335a1.216,1.216,0,0,0,.905-0.453h0.377a1.629,1.629,0,0,1,.5-0.1,0.539,0.539,0,0,0,.3-0.353c0-.178.176-0.268,0.528-0.268l0.252,0.033,0.2-.167a1.056,1.056,0,0,1,.49-0.177,1.953,1.953,0,0,0,.817-0.411,0.5,0.5,0,0,1,.252-0.335l0.3,0.033c0.352-.145.586-0.235,0.7-0.268a0.273,0.273,0,0,0,.176-0.084l0.151-.168,0.2-.034a0.86,0.86,0,0,1,.578-0.352,5.256,5.256,0,0,0,.553-0.4,7.279,7.279,0,0,0,1.561-.621c0.067,0,.1.023,0.1,0.067l-0.428.621,0.176,0.3a0.432,0.432,0,0,1-.214.126,1,1,0,0,0-.415.5l0.151,0.286q0,0.033-.051.033a3.521,3.521,0,0,0-.4.5,1,1,0,0,1-.29.327,0.362,0.362,0,0,0-.164.2q-0.075.168-.176,0.453-0.441.537-.551,0.705a3.94,3.94,0,0,1-.269.361,2.8,2.8,0,0,1-1.325.335,11.2,11.2,0,0,0-1.721.311l-0.68.134h-0.2q-0.78.387-.982,0.521l-1.46.268a3.576,3.576,0,0,0-.705.252l-0.252.235q-0.855.418-1.825,1.015a3.493,3.493,0,0,0-.969.7,2.255,2.255,0,0,0-.73.554l-0.1.134a8.983,8.983,0,0,1-.806.789,6.268,6.268,0,0,0-1.019,1.233q-0.541.815-.541,0.831a2.267,2.267,0,0,1-.365.663,2.687,2.687,0,0,0-.315,1.5,1.582,1.582,0,0,0,.591,1.141,1.784,1.784,0,0,0,1.221.554,1.41,1.41,0,0,0,.529-0.1l0.4-.185Zm7.755-13.83-0.277.3a2.838,2.838,0,0,0-1.133.47,0.985,0.985,0,0,1-.566.286,0.758,0.758,0,0,0-.516.285l-0.957-.034a0.671,0.671,0,0,0-.277.135,4.9,4.9,0,0,1-.893.377,3.548,3.548,0,0,1-.945.244c-0.117,0-.176-0.034-0.176-0.1a1.212,1.212,0,0,1,.265-0.529,1.359,1.359,0,0,1,.415-0.445l0.252-.134a1.785,1.785,0,0,1,.465-0.277,2.142,2.142,0,0,0,.592-0.4,1.6,1.6,0,0,1,.806-0.377,0.89,0.89,0,0,1,.541-0.285,3.035,3.035,0,0,0,.994-0.521,1.106,1.106,0,0,0,.315-0.184,2.576,2.576,0,0,1,.516-0.286,1.4,1.4,0,0,0,.579-0.067l0.2-.067a0.386,0.386,0,0,0,.327-0.176,0.514,0.514,0,0,1,.365-0.21,2.035,2.035,0,0,0,.541-0.168l0.453-.252q0.805-.234,1.259-0.4l0.5,0.033a1.019,1.019,0,0,0,.365-0.134,1.336,1.336,0,0,1,.617-0.134c0.1,0,.151.022,0.151,0.067a0.743,0.743,0,0,1-.227.428,0.845,0.845,0,0,1-.529.3,1.209,1.209,0,0,0-.679.529l-0.252.117a3.734,3.734,0,0,0-1.435.839,1.123,1.123,0,0,1-.592.286,1.075,1.075,0,0,0-.516.2l-0.3.285h-0.252Zm0.752,5.455a0.144,0.144,0,0,1-.1.151l-0.352.2a3.234,3.234,0,0,1-.982,1.024l-0.68.755a1.376,1.376,0,0,1-.541.546,1.691,1.691,0,0,0-.214.042l-0.1.218a1.059,1.059,0,0,0-.44.327,2.271,2.271,0,0,1-.617.487q-0.478.294-1.057,0.629a0.551,0.551,0,0,1-.34.336,1.692,1.692,0,0,0-.491.336,1.842,1.842,0,0,1-.667.3,3.139,3.139,0,0,0-.844.361c-0.319.184-.5,0.288-0.554,0.31l-1.485.4a0.858,0.858,0,0,0-.428.118,0.516,0.516,0,0,1-.3-0.42q0-.017.138-0.5a2.46,2.46,0,0,1,.214-0.579l0.151-.235a0.755,0.755,0,0,1,.24-0.562,0.945,0.945,0,0,0,.314-0.487,0.832,0.832,0,0,1,.491-0.512,1.609,1.609,0,0,0,.491-0.277,0.855,0.855,0,0,1,.3-0.193,1.573,1.573,0,0,0,.5-0.5h0.05a2.082,2.082,0,0,0,.252.034,1.369,1.369,0,0,0,.654-0.654,1.422,1.422,0,0,0,.529-0.177,2.16,2.16,0,0,1,.5-0.21,2.466,2.466,0,0,1,.377-0.234,0.293,0.293,0,0,1,.252-0.068,1.627,1.627,0,0,0,.617-0.209,5.465,5.465,0,0,1,1.4-.378,3.024,3.024,0,0,0,1.334-.453,0.162,0.162,0,0,1,.151-0.1,1.1,1.1,0,0,1,.428.134l0.756-.067Zm12.7-9.55a2.966,2.966,0,0,0-1.12.512,2.989,2.989,0,0,1-.907.487,0.816,0.816,0,0,0-.491.277,0.624,0.624,0,0,1-.5.2,3.754,3.754,0,0,0-1.271.52,1.467,1.467,0,0,0-.869,1.309,0.345,0.345,0,0,0,.378.4,1.351,1.351,0,0,0,.894-0.218,2.027,2.027,0,0,1,.441-0.319l0.5-.084a2.726,2.726,0,0,1,.528-0.134,5.6,5.6,0,0,1,.6-0.47,0.822,0.822,0,0,0,.579-0.185,1.246,1.246,0,0,1,.252-0.2q0.78-.133.932-0.168a0.734,0.734,0,0,0,.353-0.352l0.428-.135a1.9,1.9,0,0,1,.717-0.394,2.458,2.458,0,0,0,.542-0.21,3.385,3.385,0,0,1,.667-0.252,1.576,1.576,0,0,0,.692-0.344,0.406,0.406,0,0,1,.277-0.176c0.436,0,.655.162,0.655,0.487a0.8,0.8,0,0,1-.2.3,0.4,0.4,0,0,0-.252.26,0.755,0.755,0,0,1-.151.26l-0.327.3a1.475,1.475,0,0,1-.428.537,7.994,7.994,0,0,0-1.007,1.192,1.36,1.36,0,0,1-.39.629,0.82,0.82,0,0,0-.29.361,2.667,2.667,0,0,1-.251.512,2.4,2.4,0,0,0-.2,1.15,1.052,1.052,0,0,0,.277.478,4.181,4.181,0,0,1,.453.68,2.02,2.02,0,0,0,1.07.671q0.892,0.336.919,0.336l0.73-.034,0.4-.083a1.577,1.577,0,0,1,.377.117l0.6-.218,0.73-.1a6.584,6.584,0,0,1,1.611-.621c0.268,0,.4-0.078.4-0.235v-0.033l-0.151-.168c0-.1.1-0.151,0.3-0.151h0.1l0.151,0.033a2,2,0,0,0,.377-0.134l0.1-.168a0.232,0.232,0,0,1,.2-0.235,0.678,0.678,0,0,1,.2.067,0.651,0.651,0,0,0,.2.067,0.944,0.944,0,0,0,.39-0.209,8.412,8.412,0,0,1,1.07-.6,11.182,11.182,0,0,0,1.208-.672,2.149,2.149,0,0,1,.667-0.335,0.606,0.606,0,0,0,.39-0.42,0.547,0.547,0,0,0,.478-0.277,0.72,0.72,0,0,1,.265-0.344,0.383,0.383,0,0,0,.189-0.2,0.2,0.2,0,0,0-.051-0.151l-0.05-.269v-0.1a0.458,0.458,0,0,0,.252-0.353c0-.224-0.177-0.336-0.529-0.336a1.166,1.166,0,0,0-.894.445,2.223,2.223,0,0,1-.44.445,3.328,3.328,0,0,0-.831.352,10.11,10.11,0,0,1-1.359.806,5.965,5.965,0,0,0-.768.394,2.635,2.635,0,0,1-.73.311,3.281,3.281,0,0,0-.793.327,3.142,3.142,0,0,1-.844.327,4.6,4.6,0,0,0-.754.235,3.149,3.149,0,0,1-.731.2,2.032,2.032,0,0,0-.616.176,0.848,0.848,0,0,1-.252.109l-0.353-.067a2.591,2.591,0,0,1-.377.1q-0.982,0-.982-0.252a0.454,0.454,0,0,1,.189-0.269,1.178,1.178,0,0,0,.289-0.377,0.682,0.682,0,0,1,.2-0.277l0.2-.2a2.476,2.476,0,0,1,.315-0.386,0.317,0.317,0,0,0,.113-0.134v-0.3a0.6,0.6,0,0,1,.5-0.252,3.4,3.4,0,0,0,.528-0.6l0.252-.117a8.448,8.448,0,0,1,1.687-1.259,1.337,1.337,0,0,0,.428-0.906,3.241,3.241,0,0,0-.365-0.89,5.566,5.566,0,0,0-.567-0.957l-0.151-.251a1.342,1.342,0,0,0-1.611-1.226,3.9,3.9,0,0,0-2.215.621,1.368,1.368,0,0,1-.378.235,0.528,0.528,0,0,0-.227.135,6.885,6.885,0,0,1-1.762.923l-0.151.218-0.378.067Zm30.061,4-0.25.067a1.6,1.6,0,0,0-.515.344,2.422,2.422,0,0,1-1.167.444,0.442,0.442,0,0,1-.176-0.419l0.1-.47-0.051-.42a0.469,0.469,0,0,1,.214-0.31,0.479,0.479,0,0,0,.214-0.277V161.15l0.353-.688a0.962,0.962,0,0,1,.151-0.3,2.647,2.647,0,0,0,1.46-2.064,0.893,0.893,0,0,0-1.082-.923,2.425,2.425,0,0,0-1.978.612,1.29,1.29,0,0,1-.718.613,0.283,0.283,0,0,1-.252-0.3,1.5,1.5,0,0,0-1.714-1.444,0.816,0.816,0,0,0-.252.034l-0.4.134h-0.05a2.094,2.094,0,0,0-.479-0.134h-0.151a13.28,13.28,0,0,1-1.336.42h-0.2a2.675,2.675,0,0,0-.9.218,9.314,9.314,0,0,1-1.159.361,3.4,3.4,0,0,0-1.059.444,2.629,2.629,0,0,1-.617.336,8.222,8.222,0,0,0-1.916.94l-0.756.5a2.948,2.948,0,0,0-.857.521,2.953,2.953,0,0,1-.605.461,0.531,0.531,0,0,0-.353.428l-0.252.218a2.85,2.85,0,0,0-.591.529,2.272,2.272,0,0,0-.441.529l0.051,0.453q-0.479,0-.479.2l0.051,0.554v0.1a0.481,0.481,0,0,0-.051.268,0.906,0.906,0,0,0,.227.655l0.252,0.688a1.246,1.246,0,0,0,.981.6,6.037,6.037,0,0,0,1.587.252,8.534,8.534,0,0,0,2.845-.889l0.151-.1q0.579-.2.881-0.336l1.914-1.04a1.763,1.763,0,0,0,.579-0.428,2.594,2.594,0,0,1,.277-0.294l0.479,0.033,0.251-.167a1.006,1.006,0,0,1,.454-0.193,0.538,0.538,0,0,0,.377-0.193l0.1-.1a2.153,2.153,0,0,0,.5-0.3,0.751,0.751,0,0,1,.328-0.42,1.125,1.125,0,0,0,.617-0.168,0.907,0.907,0,0,1,.365-0.167,0.089,0.089,0,0,1,.1.1l-0.151.823a0.388,0.388,0,0,0,.05.167,0.429,0.429,0,0,1,.05.185,0.115,0.115,0,0,1-.05.1,0.111,0.111,0,0,0-.05.1,0.265,0.265,0,0,0,.125.168,0.27,0.27,0,0,1,.126.168l-0.1.319a0.658,0.658,0,0,0,.226.529,0.716,0.716,0,0,1,.252.31,0.364,0.364,0,0,0,.176.218,3.785,3.785,0,0,1,.83.16,2.935,2.935,0,0,0,.881.126,1.35,1.35,0,0,0,.365-0.093,6.167,6.167,0,0,1,.805-0.193,2.206,2.206,0,0,0,.793-0.268l0.051-.168a4.822,4.822,0,0,0,.6-0.151,1.539,1.539,0,0,1,.742-0.336,0.7,0.7,0,0,0,.528-0.3,1.176,1.176,0,0,1,.743-0.386l0.252-.235a1.682,1.682,0,0,0,.591-0.369,1.067,1.067,0,0,1,.491-0.285l0.176-.219,0.1-.469a1.787,1.787,0,0,0,.5-1.142,0.452,0.452,0,0,0-.2-0.268,0.588,0.588,0,0,0-.351-0.168,1.164,1.164,0,0,0-.828.411,2,2,0,0,1-.866.546,0.725,0.725,0,0,0-.54.36,0.413,0.413,0,0,1-.452.227l-0.4.235a2.038,2.038,0,0,0-.528.42h0Zm-8.336-.185a2.1,2.1,0,0,1-.679.285l-0.529.269q-0.957.353-1.385,0.52a1.223,1.223,0,0,1-.5.294,1.826,1.826,0,0,0-.453.2,0.544,0.544,0,0,1-.252.109,0.546,0.546,0,0,0-.226.084l-0.479.168a1.389,1.389,0,0,0-.4.134,4.116,4.116,0,0,1-.742.244,4.222,4.222,0,0,1-.844.176q-0.478,0-.478-0.823a0.612,0.612,0,0,1,.289-0.36,0.841,0.841,0,0,0,.34-0.5,0.428,0.428,0,0,1,.353-0.352,1.965,1.965,0,0,0,.5-0.193l0.176-.286a2.746,2.746,0,0,1,.655-0.4,0.99,0.99,0,0,1,.781-0.588,3.591,3.591,0,0,0,1.183-.722,2.525,2.525,0,0,0,.957-0.327,5.115,5.115,0,0,1,1.473-.461,6.862,6.862,0,0,0,1.108-.244,1.983,1.983,0,0,1,.692-0.109l0.5,0.067,0.327-.033,0.353,0.117,0.478-.033,0.453,0.033,0.2-.084h0.05c0.067,0,.1.017,0.1,0.051a2.706,2.706,0,0,1-.894.738,12.755,12.755,0,0,1-1.372.839,1.131,1.131,0,0,1-.617.395,0.89,0.89,0,0,0-.617.562A1.405,1.405,0,0,0,231.686,162.04Zm11.231,3.541a1.087,1.087,0,0,0-.541.369,1.69,1.69,0,0,1-.491.42l-0.251.285a0.531,0.531,0,0,1-.391.219,0.582,0.582,0,0,0-.44.444,0.7,0.7,0,0,1-.227.428,4.782,4.782,0,0,0-.529.395,3.371,3.371,0,0,0-.629.646,0.732,0.732,0,0,0-.529.436l-0.352.453a6.088,6.088,0,0,0-.73.924,1.367,1.367,0,0,0-.693.5,1.653,1.653,0,0,1-.264.386,0.74,0.74,0,0,0-.176.26l-0.3.453a2.385,2.385,0,0,0-.5,1.158l-0.226.688a1.857,1.857,0,0,0,.44,1.343,4.06,4.06,0,0,1,.491.554,1.71,1.71,0,0,0,1.662.856l1.082-.453a3.043,3.043,0,0,0,.957-0.6,3.925,3.925,0,0,1,.579-0.5,0.543,0.543,0,0,0,.252-0.235,1.312,1.312,0,0,0,.478-0.84l0.151-.067,0.051-.167a0.369,0.369,0,0,0,.151-0.135l0.151-.319,0.251-.3,0.227-.554a4.07,4.07,0,0,0,.869-1.082,1.423,1.423,0,0,1,.516-0.663l0.05-.353a3.678,3.678,0,0,0,.5-0.822v-0.235l0.1-.168a1.289,1.289,0,0,0,.479-0.839,1.085,1.085,0,0,0,.4-0.52,0.227,0.227,0,0,1,.1-0.168l0.328-.269a13.039,13.039,0,0,1,.695-1.284,1.163,1.163,0,0,0,.239-0.579,0.442,0.442,0,0,1,.189-0.218,0.737,0.737,0,0,0,.214-0.218l0.2-.067a1.46,1.46,0,0,0,.478.2l0.251,0.269a1.91,1.91,0,0,0,.667.487,1.957,1.957,0,0,0,.718.268l0.579-.1h0.3a2.108,2.108,0,0,0,.252.034c0.067,0,.1-0.011.1-0.034a0.713,0.713,0,0,1,.377-0.235l0.4,0.068,0.453-.034a0.874,0.874,0,0,1,.227.034l0.805-.2a1.6,1.6,0,0,1,.529-0.168l0.2-.084a1.084,1.084,0,0,1,.453-0.167l0.528,0.067c0.034,0,.051-0.011.051-0.034l0.78-.2a1.3,1.3,0,0,1,.654-0.269h0.051l0.377,0.1c0.034,0,.051-0.011.051-0.034a2.142,2.142,0,0,1,.755-0.285h0.528a3.853,3.853,0,0,1,.328-0.252,2.181,2.181,0,0,0,.314-0.277,0.659,0.659,0,0,1,.239-0.193l0.453,0.034a5.586,5.586,0,0,0,1.963-1.024l0.252,0.034a1.528,1.528,0,0,1,.428-0.1l0.3-.42,0.1-.033h0.151a1.443,1.443,0,0,0,.78-0.47l0.453,0.1a0.484,0.484,0,0,0,.427-0.227,2.09,2.09,0,0,1,.806-0.529,1.96,1.96,0,0,0,.742-0.461,0.9,0.9,0,0,1,.516-0.294,1.018,1.018,0,0,0,.68-0.26,0.7,0.7,0,0,0,.3-0.428l-0.076-.185v-0.168l0.328-.335a0.476,0.476,0,0,0-.427-0.353,0.179,0.179,0,0,0-.1.034l-0.3.067a3.382,3.382,0,0,0-1.331.621,0.3,0.3,0,0,1-.238.134,1.119,1.119,0,0,0-.464.26,1.1,1.1,0,0,1-.54.261,1.2,1.2,0,0,0-.465.151,0.721,0.721,0,0,1-.351.117l-0.251.185a2.929,2.929,0,0,0-.527.335,1.565,1.565,0,0,0-.653.235q-0.376.219-.728,0.386l-0.2-.067-1.183.487a1.332,1.332,0,0,1-.654.3,0.33,0.33,0,0,1-.177-0.067,5.141,5.141,0,0,1,.844-0.688,7.5,7.5,0,0,0,1.12-.957q0.227-.771.3-0.94l0.554-.956v-0.034l-0.151-.269a0.4,0.4,0,0,1,.075-0.2,0.415,0.415,0,0,0,.076-0.151,1.5,1.5,0,0,0-.718-1.175,2.843,2.843,0,0,0-1.752-.537c-0.068,0-.1.011-0.1,0.034a0.515,0.515,0,0,1-.2.1l-0.58-.167a0.806,0.806,0,0,1-.454.134,8.432,8.432,0,0,0-1.614.235l-0.6.319a9.264,9.264,0,0,0-.984.436l-0.1.252-0.252.1a2.943,2.943,0,0,0-1.173.378,9.534,9.534,0,0,1-1.034.5,2.168,2.168,0,0,0-.617.344,2.286,2.286,0,0,1-.694.361,1.017,1.017,0,0,0-.618.487,1.075,1.075,0,0,1-.429.268c-0.067,0-.1-0.022-0.1-0.067l0.05-.134-0.05-.151,0.73-2.165a1.344,1.344,0,0,0-.7-1.158,2.577,2.577,0,0,0-.907-0.453h-0.5a1.947,1.947,0,0,1-.491.226,0.673,0.673,0,0,0-.39.26,11.172,11.172,0,0,1-1.875,1.444q-0.541.269-.692,0.369a0.961,0.961,0,0,0-.629.218l0.05,0.235a0.971,0.971,0,0,0-.453.067l-0.428.1a0.571,0.571,0,0,0-.353.185l-0.251.235a3.97,3.97,0,0,0-1.082.528,2.754,2.754,0,0,1-.882.437,0.816,0.816,0,0,0-.679.713,0.7,0.7,0,0,0,.83.755,1.3,1.3,0,0,0,.982-0.369l0.1-.1a3.505,3.505,0,0,0,.83-0.554l0.252-.033a5.346,5.346,0,0,1,.83-0.353q0.252-.3.4-0.5a1.811,1.811,0,0,1,.264.05,1.732,1.732,0,0,0,.264.051q0.454,0,.454-0.252l0.176-.47a0.547,0.547,0,0,1,.5-0.134h0.2a0.141,0.141,0,0,1,.151.167v0.068l-0.2.369-0.05.252a4.846,4.846,0,0,0-.73,1.443l-0.1.436-0.3.386-0.1.336q-0.05.067-.377,0.7l-0.6,1.192a0.4,0.4,0,0,1-.151.3l-0.277.251a0.873,0.873,0,0,0-.6.4h0Zm6.13-2.1a5.978,5.978,0,0,0-.629.336,0.568,0.568,0,0,1-.277.117,0.089,0.089,0,0,1-.1-0.1l0.151-.4a1.113,1.113,0,0,1,.756-0.772h0.075l-0.126-.336a2.041,2.041,0,0,1,.252-0.05,0.529,0.529,0,0,0,.227-0.084l0.981-.839a1.445,1.445,0,0,0,.454-0.336l0.629-.168a1.841,1.841,0,0,1,.5-0.319,0.51,0.51,0,0,1,.378-0.369h0.353a2.413,2.413,0,0,1,.591-0.445,4.381,4.381,0,0,0,.743-0.5l0.3,0.051,0.177-.084,0.3,0.033a1.345,1.345,0,0,1,.642-0.252,0.917,0.917,0,0,0,.465-0.134,1,1,0,0,1,.416-0.151,0.621,0.621,0,0,0,.365-0.159,0.385,0.385,0,0,1,.277-0.126,1.181,1.181,0,0,1,.5.151v0.033l0.63-.184a1.519,1.519,0,0,1,.352.554,1.1,1.1,0,0,1-.1.235l-0.151.218a3.149,3.149,0,0,1-.553.789l-0.882.856-0.83.621a5.342,5.342,0,0,1-.894.73,1.054,1.054,0,0,0-.365.277q-0.077.117-.126,0.2a0.543,0.543,0,0,0-.151-0.033,0.822,0.822,0,0,0-.428.167,8.151,8.151,0,0,1-1.486.554,0.948,0.948,0,0,0-.466-0.369c-0.142-.034-0.273-0.067-0.39-0.1a1.166,1.166,0,0,0-.226-0.05c-0.051,0-.311.033-0.781,0.1l-0.881.1A2.189,2.189,0,0,0,249.047,163.483ZM237.61,174.007a2.187,2.187,0,0,1,.3-1.175l0.051-.3-0.051-.336a1.7,1.7,0,0,1,.34-0.31,0.831,0.831,0,0,0,.34-0.663l-0.1-.3h0.252a1.227,1.227,0,0,0,.352-0.486,1.107,1.107,0,0,0,.882-0.756v-0.234l0.428-.588a0.578,0.578,0,0,1,.5-0.268l0.1-.084a2.487,2.487,0,0,1,.4-0.605l0.377-.033a0.407,0.407,0,0,0,.252-0.21,0.552,0.552,0,0,1,.3-0.243q-0.6,1.174-.692,1.4a7.227,7.227,0,0,1-.39.764l-1.385,2.433a1.069,1.069,0,0,1-.252.252l-0.05.134a3.578,3.578,0,0,0-.428.437l-0.252.319a12.583,12.583,0,0,1-1.284,1.309v-0.453Zm23.829-12.538a0.419,0.419,0,0,0,.5.437,5.877,5.877,0,0,0,1.361-.5,2.567,2.567,0,0,1-.63,1.234,3.4,3.4,0,0,0-.718,1.04q-0.315.663-.315,0.68l0.05,0.3-0.151.353q0,0.016.328,0.52a0.985,0.985,0,0,0,.856.5,0.69,0.69,0,0,0,.29-0.1q0.189-.1.568-0.26a1.3,1.3,0,0,0,.592-0.487,0.934,0.934,0,0,1,.29-0.344,12.709,12.709,0,0,0,1.108-.739,6.191,6.191,0,0,0,1.034-.789,0.542,0.542,0,0,1,.6-0.553,0.62,0.62,0,0,1,.215.042,0.543,0.543,0,0,0,.164.042,0.62,0.62,0,0,0,.3-0.328,0.859,0.859,0,0,1,.731-0.361l0.252-.318a1.056,1.056,0,0,0,.832-0.437l0.4-.084,0.2-.268a3.61,3.61,0,0,0,.642-0.294,1.843,1.843,0,0,1,.693-0.26,2.445,2.445,0,0,1,1.084-.437,1.471,1.471,0,0,0,.68-0.52v-0.033l0.63,0.067a1.53,1.53,0,0,0,.4-0.378,0.433,0.433,0,0,1,.353-0.21,2.552,2.552,0,0,1,.378.1,0.456,0.456,0,0,0,.3.084,0.24,0.24,0,0,1,.251.268l-0.05.235,0.05,0.42a0.256,0.256,0,0,1-.05.2,7.855,7.855,0,0,0-.453,1.444l-0.252,1.024a0.8,0.8,0,0,0,.151.318l-0.226.235,0.125,0.353-0.05.336a0.488,0.488,0,0,0,.176.277,1.777,1.777,0,0,1,.327.486,0.733,0.733,0,0,0,.541.4,2.112,2.112,0,0,1,.591.2,0.7,0.7,0,0,0,.3.118,2.94,2.94,0,0,0,1.182-.151,6.393,6.393,0,0,1,.792-0.345,2.013,2.013,0,0,0,.515-0.226q0-.369.2-0.369l0.5,0.033a5.931,5.931,0,0,1,.779-0.487,0.791,0.791,0,0,1,.528-0.587l0.453,0.134a1.1,1.1,0,0,0,.628-0.5,3.33,3.33,0,0,0,1.195-.428,1.318,1.318,0,0,1,.54-0.277,0.661,0.661,0,0,0,.427-0.336l0.1-.168a2.211,2.211,0,0,0,.5-0.847,1.2,1.2,0,0,1,.176-0.479,0.634,0.634,0,0,0,.125-0.352q0-.252-0.351-0.252a1.43,1.43,0,0,0-.778.286l-0.15.134a9.768,9.768,0,0,0-1.681.763,4.269,4.269,0,0,0-.979.647,3.086,3.086,0,0,1-.9.394,0.416,0.416,0,0,0-.326.126,3.856,3.856,0,0,0-.678.487,0.64,0.64,0,0,1-.527.2,1.81,1.81,0,0,1-.552.3c-0.167,0-.251-0.056-0.251-0.168l0.05-.352-0.1-.436,0.1-.319a3.843,3.843,0,0,1,.352-0.789,5.9,5.9,0,0,0,.4-0.89l0.277-.822,0.2-1.041a0.9,0.9,0,0,0-.756-1.015,5.035,5.035,0,0,0-1.763-.327l-0.379.033-0.2-.033h-0.151a6.514,6.514,0,0,0-1.185.209,6.075,6.075,0,0,0-1.172.361,6.119,6.119,0,0,1-.883.344,2.415,2.415,0,0,0-.921.5,0.905,0.905,0,0,1-.529.31,0.465,0.465,0,0,0-.391.269,1.021,1.021,0,0,1-.82.319,0.4,0.4,0,0,0-.151.2,0.475,0.475,0,0,1-.252.235l-0.252-.033a4.061,4.061,0,0,1-.429.2l-0.252.117a1.733,1.733,0,0,1-.617.47,4.175,4.175,0,0,0-.932.672,1.971,1.971,0,0,1-.717.5c-0.1,0-.151-0.033-0.151-0.1a9.007,9.007,0,0,1,.5-0.789,2.052,2.052,0,0,0,.567-0.747,3.112,3.112,0,0,1,.742-0.948l0.353-.5a3.064,3.064,0,0,1,.352-0.655q1.863-1.745,1.863-1.762v-0.033a0.579,0.579,0,0,1-.1-0.269q0-.285.68-0.285l0.4,0.084a1.188,1.188,0,0,1,.352-0.286l0.2-.134,2.341-2.232a2.068,2.068,0,0,1,.68-0.789,0.878,0.878,0,0,0,.44-0.6,0.729,0.729,0,0,1,.164-0.437,2.642,2.642,0,0,0,1.032-1.846,0.584,0.584,0,0,1,.5-0.386l0.377-1.51a6.328,6.328,0,0,0,.3-0.722,1.59,1.59,0,0,0-.441-0.94,1.737,1.737,0,0,0-1.422-.537,0.878,0.878,0,0,0-.743.311,1.512,1.512,0,0,1-.466.428,1.006,1.006,0,0,0-.39.386,1.937,1.937,0,0,1-.478.511,5.565,5.565,0,0,0-.693.663l-0.528.588-0.3.352a2.509,2.509,0,0,0-.629.68,0.94,0.94,0,0,1-.3.378,6.992,6.992,0,0,0-1.448,1.644,9.6,9.6,0,0,1-.692,1.066,2.923,2.923,0,0,0-.3.42q-0.075.142-1.056,1.5a3.79,3.79,0,0,0-.979,1.41v0.151l-0.1.067-0.226.034-0.2.268a0.346,0.346,0,0,1-.3.235,5.917,5.917,0,0,1-.978,1.46q-0.126.051-1.315,0.806a8.957,8.957,0,0,0-1.264.873,1.312,1.312,0,0,1-.835.335l-0.2.185a1.841,1.841,0,0,0-.784,1.443h0Zm39.581,0.269-0.051-.386a2.432,2.432,0,0,0,.353-0.923,1.662,1.662,0,0,0,.629-1.309l0.05-.806a0.908,0.908,0,0,0-.6-0.646,2.611,2.611,0,0,0-1.259-.328,2.642,2.642,0,0,0-1.246.261,5,5,0,0,1-.881.377,5.355,5.355,0,0,0-.542.185,13.416,13.416,0,0,1-1.335.646q-1.008.446-2.167,0.9a3.764,3.764,0,0,1-1.814.755,2.8,2.8,0,0,1-.542.294,1.119,1.119,0,0,0-.39.243,1.764,1.764,0,0,1-.668.311q-0.516.159-.869,0.26l-0.479.168a0.878,0.878,0,0,0-.554.335l-0.63.185a4.511,4.511,0,0,1-.5.168l-0.226.067a2.738,2.738,0,0,1-1.084.3c-0.2,0-.3-0.056-0.3-0.168a1.216,1.216,0,0,1,.39-0.763,3.591,3.591,0,0,0,.516-0.672,3.436,3.436,0,0,1,.705-0.755,2.132,2.132,0,0,0,.667-0.822,1.744,1.744,0,0,1,.453-0.688,1.469,1.469,0,0,0,.365-1.066,0.665,0.665,0,0,0-.8-0.688,3.184,3.184,0,0,0-1.662.369l-1.356.789a4.28,4.28,0,0,0-.916.461q-0.515.327-.865,0.512l-0.15.235a5.012,5.012,0,0,0-1.555.823l-0.3.2a1.117,1.117,0,0,0-.728.487,0.383,0.383,0,0,0,.262.377,0.894,0.894,0,0,1,.386.277,1.115,1.115,0,0,0,.175.2,1.455,1.455,0,0,1,.349.1,0.423,0.423,0,0,0,.236-0.1,3.347,3.347,0,0,1,.436-0.252,1.353,1.353,0,0,0,.525-0.512,0.648,0.648,0,0,1,.552-0.361c0.1,0,.151.023,0.151,0.067v0.067a2.494,2.494,0,0,0-.629,1.41v0.135a0.409,0.409,0,0,1,.05.134,0.585,0.585,0,0,1-.2.285,0.907,0.907,0,0,0-.2.235l0.151,0.755a1.091,1.091,0,0,0,.732.63,2.838,2.838,0,0,0,1.084.361l0.832-.135,0.3,0.034h0.151a0.733,0.733,0,0,0,.492-0.218,0.728,0.728,0,0,1,.492-0.219l0.681,0.034a1.764,1.764,0,0,1,.984-0.386,0.792,0.792,0,0,1,.353-0.168l1.488-.688a2.251,2.251,0,0,0,.933-0.235,0.806,0.806,0,0,0,.605-0.344,0.618,0.618,0,0,1,.48-0.31c0.033,0,.134.011,0.3,0.033l0.782-.252a0.7,0.7,0,0,1,.3-0.4q0.126,0,.126.033l0.353,0.168h0.051l0.63-.269a0.862,0.862,0,0,0,.453-0.319l0.3-.033a1.167,1.167,0,0,0,.314-0.168,0.874,0.874,0,0,1,.416-0.168h0.1l0.4,0.067a1.265,1.265,0,0,0,.529-0.193,1.417,1.417,0,0,1,.453-0.193c0.067,0,.1.023,0.1,0.068a2.126,2.126,0,0,1-.3.688l-0.2.184a2.4,2.4,0,0,1-.151.437l-1.133,2.131a1.453,1.453,0,0,0-.276.134,1.421,1.421,0,0,1-.3.621l-0.05.068v0.218l-0.1.134,0.051,0.2v0.2a0.236,0.236,0,0,1-.2.151,0.963,0.963,0,0,0-.428.461,2.566,2.566,0,0,1-.3.462l0.1,0.369-0.05.084-0.454-.084v0.034a2.345,2.345,0,0,1-.479.654l-0.605.319a0.547,0.547,0,0,1-.3.067q-0.908,0-.883.521a1.057,1.057,0,0,1-.415.1,0.943,0.943,0,0,0-.618.47l-0.1.034h-0.151l-0.177.05a1.846,1.846,0,0,1-.579.369,3.61,3.61,0,0,0-.4.168l-0.856.554a0.5,0.5,0,0,1-.391.26,1.774,1.774,0,0,0-.441.16l-0.051.1a2.688,2.688,0,0,0-.441.445,1.656,1.656,0,0,1-.63.445,0.6,0.6,0,0,0-.441.52,1.378,1.378,0,0,0-.227.21,0.346,0.346,0,0,1-.277.092h-0.152a0.326,0.326,0,0,0-.1.286l-2.319,2.266a4.244,4.244,0,0,0-.579.788,1.753,1.753,0,0,1-.554.663,1.179,1.179,0,0,0-.428.621,6.432,6.432,0,0,0-.252.6v0.319l-0.05.134a0.6,0.6,0,0,0-.252.286,3.272,3.272,0,0,0,.164,1.166,2.382,2.382,0,0,0,1.309.881,11.237,11.237,0,0,0,1.549.554l0.983-.067,0.327-.134a3.241,3.241,0,0,0,.668-0.4,3.176,3.176,0,0,1,.667-0.394,0.52,0.52,0,0,0,.3-0.252l-0.1-.3H287.4a1.116,1.116,0,0,0,.453-0.134,0.478,0.478,0,0,0,.277-0.2L288,178.975c0-.124.218-0.185,0.655-0.185a0.764,0.764,0,0,0,.4-0.487,0.954,0.954,0,0,0-.151-0.235,1.8,1.8,0,0,0,.73-0.47,4.994,4.994,0,0,0,.668-0.629,1.156,1.156,0,0,1,.391-0.311l0.176-.318a0.64,0.64,0,0,1,.252-0.37l1.033-.923a1.479,1.479,0,0,0,.353-0.52,0.711,0.711,0,0,0,.378-0.353,0.064,0.064,0,0,0-.076-0.067l-0.151-.2v-0.1a1.562,1.562,0,0,0,.718-0.461,2.229,2.229,0,0,1,.466-0.47,0.711,0.711,0,0,0,.277-0.277l-0.1-.336a0.745,0.745,0,0,0,.4-0.386v-0.168a1.19,1.19,0,0,0,.832-0.889v-0.151a0.4,0.4,0,0,1-.051-0.135,0.272,0.272,0,0,1,.1-0.167l0.2-.235a2.809,2.809,0,0,1,.567-0.6,0.637,0.637,0,0,0,.29-0.353,0.959,0.959,0,0,1,.277-0.428,1.056,1.056,0,0,0,.681-0.889,0.433,0.433,0,0,1,.327-0.185,3.481,3.481,0,0,1,.744-0.134,7.324,7.324,0,0,0,.768-0.1l0.479-.168h1.034l0.756-.134h0.076a2.289,2.289,0,0,0,.453.1h0.1l0.353-.067,0.63,0.134a0.759,0.759,0,0,1,.731.487,1.793,1.793,0,0,0,.819.805,2.19,2.19,0,0,0,.971.319,0.553,0.553,0,0,0,.63-0.621,2.081,2.081,0,0,0-.24-1.141,2.39,2.39,0,0,0-1.186-.671,5.846,5.846,0,0,0-1.88-.319l-0.782.033a7.178,7.178,0,0,0-1.236.067l-0.934.151a2.694,2.694,0,0,0-.719.152,2.05,2.05,0,0,1-.366.117,0.523,0.523,0,0,1-.152-0.034,0.641,0.641,0,0,0-.2-0.033,0.77,0.77,0,0,0-.214.033,0.635,0.635,0,0,1-.164.034c-0.067,0-.1-0.022-0.1-0.067l0.579-.957q0.25-.453.428-0.856a1.085,1.085,0,0,1,.415-0.537,0.409,0.409,0,0,0,.239-0.369l0.3-.3a1.011,1.011,0,0,1,.428-0.755c0.067-.235.1-0.364,0.1-0.386v-0.068l-0.05-.134v-0.185a1.034,1.034,0,0,0,.554-0.335h0Zm-13.473,14.316a4.389,4.389,0,0,0-.943,1.158,0.37,0.37,0,0,1-.34.269,0.751,0.751,0,0,0-.491.453,0.61,0.61,0,0,0-.352.134l-0.4.521a2.053,2.053,0,0,1-1.082.637l-0.756.252c-0.067,0-.1-0.022-0.1-0.067a2.509,2.509,0,0,1,.327-0.973l-0.1-.068a0.3,0.3,0,0,1-.226-0.2,0.116,0.116,0,0,1,.1-0.1,23.425,23.425,0,0,0,.756-1.049,3.1,3.1,0,0,1,.327-0.528,2.073,2.073,0,0,0,.931-1.6l0.478-.168a1.724,1.724,0,0,1,.554-0.621,0.533,0.533,0,0,0,.289-0.2,1.737,1.737,0,0,1,.34-0.311,0.421,0.421,0,0,0,.2-0.209l-0.15-.4a0.174,0.174,0,0,1,.15-0.151,1.825,1.825,0,0,0,.252.084h0.1a0.835,0.835,0,0,0,.541-0.411,1.4,1.4,0,0,1,.528-0.487,2.953,2.953,0,0,0,.617-0.361l0.478-.336a6.631,6.631,0,0,1,.679-0.537l1.61-.906a1.811,1.811,0,0,0,.5-0.235c0.1,0,.151.078,0.151,0.235V170a2.192,2.192,0,0,0-.831.923,2.125,2.125,0,0,1-.277.412,4.418,4.418,0,0,0-.327.444l-0.981,1.108-0.352.218a0.892,0.892,0,0,0-.05.42,1.564,1.564,0,0,0-.68.94,0.616,0.616,0,0,0-.352.235l-0.126.235A9.266,9.266,0,0,1,287.547,176.054Z"/>
  <path id="Color_Fill_7" data-name="Color Fill 7" class="cls-3" d="M89,31c3.245,0.828,1.528-.49,3,2H90a2.837,2.837,0,0,1-1,1V31Zm13,7c2.542,1.456,1.128-.217,2,3h-2c-0.74-.872-1.26-1.128-2-2C101.754,38.369,100.971,38.807,102,38ZM71,45c2.839,0.82,3.627-.74,5,2-2.966,1.562.012,1.174-2,4-1.988-2.207-1.507-1.409-5-2V47C71.468,45.705,69.681,47.429,71,45Zm23,0c3.245,0.828,1.528-.49,3,2a2.837,2.837,0,0,0-1,1A11.572,11.572,0,0,1,94,45ZM53,52c0.8,1.021.355,0.274,1,2H53V52Zm31,1c2.273,1,2.774.745,4,3H86c-1.677-.906-2.975.181-5-1C83.389,54.158,82.645,54.6,84,53Zm7,1c0.8,1.021.355,0.274,1,2H91V54ZM69,56h2a2.838,2.838,0,0,1-1,1,11.572,11.572,0,0,1-3,2V57C68.754,56.369,67.971,56.807,69,56Zm29,2c0.8,1.021.355,0.274,1,2H98V58ZM47,59a19.573,19.573,0,0,1,2,4H45C45.708,60.653,46.025,60.766,47,59Zm34,0h2v2H81V59ZM33,62h2a2.839,2.839,0,0,1-1,1v1C33.2,62.979,33.645,63.726,33,62Zm122,0c0.277,0.361,2,1.383,1,3C153.492,63.074,155.9,63.527,155,62ZM75,63c1.36,0.995,1.806,1.929,3,3-0.652,2.079.138,2.254-1,4-1.073.752-.946,0.6-3,1-1.012-2.31-1.712-2.163-3-4h1V66C75.741,65.883,74.442,67.206,75,63Zm19,0c0.8,1.021.355,0.274,1,2H94V63Zm52,0h2v1C146.246,63.369,147.029,63.807,146,63ZM79,64c2.468,1.295.681-.429,2,2a2.837,2.837,0,0,0-1,1H79V64Zm78,1c-0.329,1.855.726,1.247-2,2V66C156.754,65.369,155.971,65.807,157,65ZM46,69c2.5,1.456,2.156.586,3,4H47V71C46.2,69.979,46.645,70.726,46,69Zm79,0c0.8,1.021.355,0.274,1,2h-1V69ZM54,70c2.468,1.295.681-.429,2,2H55c-1.317,3.362-1.541,2.9-6,3V73C52.281,73.478,52.046,73.145,54,70Zm17,0h2a2.839,2.839,0,0,1-1,1v1C71.2,70.979,71.645,71.726,71,70Zm18,0c0.8,1.021.355,0.274,1,2H89V70Zm53,0c2.467,1.295.681-.429,2,2h-2a2.84,2.84,0,0,1-1,1ZM81,71c2.064,2.7,1.488,3.826,2,7H78c-0.759-2.631-1.2-2.385-2-5C79.764,72.858,79.515,73.472,81,71ZM31,75h2v1C31.246,75.369,32.029,75.807,31,75Zm55,0c2.076,0.372,1.924.242,3,1H88c-1.021.8-.274,0.355-2,1V75ZM44,76h2v1C44.246,76.369,45.029,76.807,44,76Zm57,0h2v1C101.246,76.369,102.029,76.807,101,76ZM42,78a17.687,17.687,0,0,1,4,2H45c-0.713.566-.042,1.442-2,1V80C42.2,78.979,42.645,79.726,42,78Zm69,3c0.8,1.021.355,0.274,1,2h-1V81Zm5,0h2v1C116.246,81.369,117.029,81.807,116,81ZM31,85c3.245,0.828,1.528-.49,3,2H33C32.26,86.128,31.741,85.872,31,85Zm13,0h2v2H44V85Zm2,2a25.766,25.766,0,0,0,5,2v1H48c-0.968-.251-0.379-0.784-1,0C46.248,88.927,46.4,89.054,46,87Zm79,3,3,1v1h-3V90ZM67,91l3,1v1C67.611,92.158,68.355,92.6,67,91ZM54,92h2v1C54.246,92.369,55.029,92.807,54,92Zm266,0h4v1h-1v1l-3,1V92ZM73,95c1.394,1.275,4.288,4.124,3,5a10.945,10.945,0,0,1-2,3v-1c-1.829-1.568-1.4-.882-2-4C72.752,96.927,72.6,97.054,73,95Zm47,0,3,1v2h-2V97C120.2,95.979,120.645,96.726,120,95Zm205,0c0.752,1.073.6,0.946,1,3h-1V95Zm11,0c1.671,1.316,4.041,5.129,3,6-1.073.752-.946,0.6-3,1-1.153-.822-1.24-0.47-4-1l-1-3C335.163,97.67,334.676,98.185,336,95Zm4,1h2v2h-2V96ZM63,97a11.572,11.572,0,0,1,2,3c-1.754.631-.972,0.193-2,1-1.754-.631-0.971-0.193-2-1-1.3-.555-0.741-0.03-1-1C60.771,98.318,62.232,97.689,63,97Zm5,1h2v1C68.246,98.369,69.029,98.807,68,98ZM50,99c0.35,0.3,2,.523,1,2C49.886,100.512,47.886,99.224,50,99Zm70,0h2v2h-2V99Zm-66,1c0.35,0.3,2,.523,1,2C53.886,101.512,51.886,100.224,54,100Zm14,0h2c-0.88,2.4-.76,3.707-3,5v-1H66v-1C68.543,101.544,67.128,103.217,68,100Zm9,1h2v2H77v-2Zm263,0,4,2v1h-1v1C339.447,103.436,339.56,104.366,340,101ZM61,102c2.076,0.372,1.925.242,3,1,2.586,2.54,1.866,4.938,4,6,0.631-1.754.193-.971,1-2v3c-1.754.631-.971,0.193-2,1H65c-1.1-2.356-.959-1.78-3-3C62.083,104.159,62.066,105.908,61,102Zm-10,1h2v6H52c-1.021-.8-0.274-0.355-2-1v-3C50.8,103.979,50.355,104.726,51,103Zm277,0h2v1C328.246,103.369,329.029,103.807,328,103ZM47,104h2v1C47.246,104.369,48.029,104.807,47,104Zm8,0h2v1C55.246,104.369,56.029,104.807,55,104Zm280,0c0.8,1.021.355,0.274,1,2h-1v-2ZM81,106c2.117,0.558,1.819-.174,3,1C81.54,108.387,82.723,107.383,81,106Zm275,1c0.752,1.073.6,0.946,1,3h-1v-3ZM44,108h2v2H44v-2Zm28,1c0.8,1.021.355,0.274,1,2H72v-2Zm271,2h2v1h-1C343.309,112.132,342.056,112.053,343,111ZM46,113l4,1v1H46v-2Zm324,1c2.467,1.3.681-.429,2,2l-2,1v1h-1A12.662,12.662,0,0,1,370,114ZM64,115c3.245,0.828,1.528-.49,3,2C64.611,116.158,65.355,116.6,64,115Zm27,0c0.8,1.021.355,0.274,1,2H91v-2Zm-20,1h2v1C71.246,116.369,72.029,116.807,71,116Zm266,0c2.076,0.372,1.924.242,3,1C337.924,116.628,338.076,116.758,337,116ZM78,117c1.624,1.35,1.121.64,2,3C76.726,118.489,78.032,119.8,78,117Zm8,0h2v1C86.246,117.369,87.029,117.807,86,117Zm205,0h2v1C291.246,117.369,292.029,117.807,291,117ZM49,118h2v1C49.246,118.369,50.029,118.807,49,118Zm11,0h2c-0.15,3.922-2.246,2.594,2,4,0.555-1.3.03-.741,1-1,0.8,1.021.355,0.274,1,2-1.858,1.51-1.715,2.775-4,4-1.231-1.8-2.592-2.481-4-4,1.624-1.35,1.121-.64,2-3C58.343,118.88,59.384,119.9,60,118Zm68,1a5.291,5.291,0,0,1,0,6v-6Zm-44,1c0.752,1.073.6,0.946,1,3H83v-1C83.8,120.979,83.355,121.726,84,120Zm-16,1,3,1-1,2C66.445,124.6,66.571,124.31,68,121Zm11,0c0.752,1.073.6,0.946,1,3H79v-3Zm9,0c0.8,1.021.355,0.274,1,2H88v-2Zm270,1c2.4,2.06.212,0.951,1,3C357.184,125.607,358.184,122.967,358,122ZM85,123h2a2.832,2.832,0,0,1-1,1C85.309,124.132,84.056,124.053,85,123Zm252,0c0.8,1.021.355,0.274,1,2h-1v-2Zm14,0c2.467,1.3.681-.429,2,2,0,0,.423,4.426,0,5v1l-3-1c-0.018-3.366-.121-1.465-3-4h1C349,124.64,349.929,124.194,351,123ZM55,124c0.35,0.3,2,.523,1,2C54.886,125.512,52.886,124.224,55,124Zm242,7c-3.958.829-5.573,2.529-8,1-0.752-1.073-.6-0.946-1-3h2c1.3,2.467-.429.681,2,2v-1c-1.829-1.568-1.395-.882-2-4,3.042-.075,2.744-0.756,4,0C296.732,127.585,296.514,126.9,297,131ZM59,126c0.35,0.3,2,.523,1,2C58.886,127.512,56.886,126.224,59,126Zm21,1c0.8,1.021.355,0.274,1,2H80v-2Zm-2,1c0.8,1.021.355,0.274,1,2H78v-2Zm-4,2h2v1C74.246,130.369,75.029,130.807,74,130Zm295,6-5,1c-0.372,2.076-.242,1.924-1,3-0.372-2.076-.242-1.924-1-3-0.842,2.389-.4,1.645-2,3v-2c3.514-2.521,3.02-1.979,4-6,2.919,0.2,3.834-.538,5,0h1A14.124,14.124,0,0,0,369,136Zm25-5a11.725,11.725,0,0,1,2,5h-1c-1.021-.8-0.274-0.355-2-1-0.631-1.754-.193-0.971-1-2v-1C393.754,131.369,392.971,131.807,394,131ZM59,132c0.35,0.3,2,.523,1,2C58.886,133.512,56.886,132.224,59,132Zm307,2c1.021,0.8.274,0.355,2,1C366.979,134.2,367.726,134.645,366,134Zm13,7c0.8,1.021.355,0.274,1,2h-1v-2Zm-78,3c1.734,2.225,1.711,2.451-2,4C299.708,145.653,300.025,145.766,301,144Zm5,0h6v1a6.1,6.1,0,0,0-2,2C306.646,145.942,306.016,147.779,306,144Zm23,0c2.076,0.372,1.924.242,3,1C329.924,144.628,330.075,144.758,329,144Zm15,0c3.245,0.828,1.528-.49,3,2C344.611,145.158,345.355,145.6,344,144Zm36,1c0.8,1.179.773,1.681,1,4l-3-1c0.392,2.933,1.636,1.253-1,3v-4A10.925,10.925,0,0,0,380,145Zm-258,2h2v1C122.246,147.369,123.029,147.807,122,147Zm-24,1h2v1C98.246,148.369,99.029,148.807,98,148Zm262,0h2v1h-1c-1.073.752-.946,0.6-3,1v-1C359.754,148.369,358.971,148.807,360,148Zm-72,5c0.372-2.076.242-1.925,1-3,1.073-.752.946-0.6,3-1v1h1v2h-1a6.1,6.1,0,0,0-2-2l1,3h-3Zm74-4c1.322,1.737,1.727,1.607,1,3-1.073.752-.946,0.6-3,1v-1C361.624,150.65,361.121,151.36,362,149Zm-37,1h2v1C325.246,150.369,326.029,150.807,325,150Zm21,0a11.568,11.568,0,0,1,2,3h-2v-3Zm-239,4c-2.328-.195-2.826-0.193-4-1h2a6.1,6.1,0,0,1,2-2v3Zm191-3c0.8,1.021.355,0.274,1,2h-1v-2Zm42,0,5,1v1C341.429,152.719,341.666,152.893,340,151Zm-216,1h2v1C124.246,152.369,125.029,152.807,124,152Zm22,1,4,1v1C146.864,154.448,147.567,154.79,146,153Zm153,0h2v1C299.246,153.369,300.029,153.807,299,153Zm17,0c0.8,1.18.773,1.681,1,4h-1C315.826,153.853,315.484,155.5,316,153Zm-199,1h2v1C117.246,154.369,118.029,154.807,117,154Zm204,2,3,1v1h-3v-2Zm-58,1h2v1C263.246,157.369,264.029,157.807,263,157Zm19,0c1.116,1.66,1.77,1.069,0,2v-2Zm83,3c0.8,1.021.355,0.274,1,2h-1v-2Zm6,0c0.8,1.021.355,0.274,1,2h-1v-2Zm-98,2c0.8,1.021.355,0.274,1,2h-1v-2Zm38,0c1.779,2.332,1.888,1.712-1,3Zm48,1a12.662,12.662,0,0,1,4,1v1C359.864,164.448,360.567,164.79,359,163Zm-34,1c3.206,1.174,4.15,2.538,5,3a6.1,6.1,0,0,1,2-2v4h-1v1h1c-1.073.752-.946,0.6-3,1v-1A13.2,13.2,0,0,1,325,164Zm-13,1,4,2v1c-3.883.115-1.144-.939-4,1v-4Zm27,0c3.245,0.828,1.528-.49,3,2h-1C340.26,166.128,339.74,165.872,339,165Zm35,0c0.8,1.021.355,0.274,1,2h-1v-2Zm-16,2a30.439,30.439,0,0,0,7-1v3c-2.387,1.777-.522,1.88-2,3v1c-1.754-.631-0.971-0.193-2-1-0.928-1.31.349-1.255-1-3-1.455,2.542.217,1.128-3,2v-1C357.752,168.927,357.6,169.054,358,167Zm-24,0c0.8,1.021.355,0.274,1,2h-1v-2Zm37,0c3.245,0.828,1.528-.49,3,2-1.3.555-.741,0.03-1,1,0.74,0.872,1.259,1.128,2,2h-7c-0.631-1.754-.193-0.971-1-2v-1h1C368.771,168.318,370.232,167.689,371,167Zm-98,1,4,1v1h-4v-2Zm107,1c0.8,1.021.355,0.274,1,2h-1v-2Zm-67,1h2v1C313.246,170.369,314.029,170.807,313,170Zm-35,2h2v1h-1v1C278.2,172.979,278.645,173.726,278,172Zm80,0c1.624,1.35,1.121.64,2,3C356.726,173.489,358.032,174.8,358,172Zm-63,1,2,2C294.318,175.9,293.661,174.386,295,173Zm74,0c1.116,1.66,1.77,1.069,0,2v-2Zm-90,1,3,1v1C279.611,175.158,280.355,175.6,279,174Zm19,2c0.752,1.073.6,0.946,1,3h-2Zm10,0c3.245,0.828,1.528-.49,3,2-2-.029-0.282-1.023-2,0h1c0.488,2.757-.558,1.18-2,2v-4Zm-5,1c2.651,1.182,1.794-.9,3,2,0.752,1.073.6,0.946,1,3h-2C303.84,178.563,303.628,182.348,303,177Zm56,1c1.116,1.66,1.77,1.069,0,2v-2Zm-4,1c1.116,1.66,1.77,1.069,0,2v-2Zm34,1h2C389.811,181.609,390.582,181.224,389,180Zm-87,1c0.8,1.021.355,0.274,1,2h-1v-2Zm67,0h2v1C369.246,181.369,370.029,181.807,369,181Zm-53,6c0.8,1.021.355,0.274,1,2h-1v-2Z"/>
  <g>
    <path id="Color_Fill_2" data-name="Color Fill 2" class="cls-4" d="M236.632,110.694a18.2,18.2,0,0,1,5.5.99q2.536,0.9,4.088,6.365,0.984,4.9,2.607,12.023a18.211,18.211,0,0,0,8.458,11.5q6.835,4.386,18.254,4.385a48.334,48.334,0,0,0,13.6-1.834,25.391,25.391,0,0,0,9.656-4.8,13.3,13.3,0,0,0,4.228-5.69,25.574,25.574,0,0,0,.846-7.335h-2.255a20.177,20.177,0,0,1-1.2,7.194,4.708,4.708,0,0,1-4.864,3.151,5.535,5.535,0,0,1-4.369-1.746,26.19,26.19,0,0,1-3.524-5.947,31.911,31.911,0,0,0-5.145-7.738,21.483,21.483,0,0,0-7.119-5.333,39.359,39.359,0,0,0-8.81-2.738q-4.863-.942-12.052-1.982v-0.661q11.841,0,17.268-1.317a29.781,29.781,0,0,0,9.092-3.668,15.383,15.383,0,0,0,5.427-5.642,13.845,13.845,0,0,0,1.762-6.583,11.192,11.192,0,0,0-3.031-7.759,23.734,23.734,0,0,0-8.176-5.6,43.57,43.57,0,0,0-13.32-3.01q-8.178-.752-21.285-0.752l-63.009.094v1.5q1.971,0.095,4.228.141t5.357,0.329a9.632,9.632,0,0,1,4.792,1.5,5.968,5.968,0,0,1,2.115,4.232l0.282,4.326v44.578l-0.282,4.326a5.925,5.925,0,0,1-2.044,4.185,8.692,8.692,0,0,1-4.44,1.411q-2.821.235-5.921,0.517H178.98v1.5h67.66v-1.5l-7.189-.376q-4.369-.375-6.2-1.693a6.064,6.064,0,0,1-2.255-4.326l-0.282-4.326V110.6Q233.672,110.6,236.632,110.694Zm-1.127-1.787h-4.793V77.872q2.4,0.095,5.5.188a45.61,45.61,0,0,1,7.048.847q3.945,0.754,6.766,5.22a16.845,16.845,0,0,1,2.82,9.075,19.632,19.632,0,0,1-2.749,10.251,10.208,10.208,0,0,1-8.1,5.173,60.775,60.775,0,0,1-6.484.282h0Z"/>
    <path id="Color_Fill_3" data-name="Color Fill 3" class="cls-5" d="M277.016,121.415L289,98.28,301.4,121.415H277.016Zm25.514,1.975,5.075,9.969q1.972,3.858,1.973,5.925a2.486,2.486,0,0,1-1.55,2.587,21.319,21.319,0,0,1-5.075.987q-3.525.377-4.863,0.423t-3.031.047v1.5h66.956v-1.5l-5.779-.376a13.468,13.468,0,0,1-5.709-1.646,14.126,14.126,0,0,1-4.017-4.185l-4.37-7.335L312.4,75.991h-15.5l-26.923,53.8q-0.995,1.974-2.483,4.42t-2.693,4.232a8.948,8.948,0,0,1-3.617,2.962,20.5,20.5,0,0,1-7.087,1.552l-8.366.376v1.5h39.892v-1.5q-2.256-.092-4.652-0.188t-4.933-.423a12.47,12.47,0,0,1-4.159-1.176,3.094,3.094,0,0,1-1.621-3.009,15.051,15.051,0,0,1,1.41-5.361l4.37-9.781h26.5Z"/>
    <path id="Color_Fill_4" data-name="Color Fill 4" class="cls-6" d="M231.2,77.316H189.756v1.5q2.253,0.095,4.793.188t6.343,0.517a10.609,10.609,0,0,1,5.709,2.022,7.124,7.124,0,0,1,2.326,4.7l0.282,4.514v27.274l-0.141,4.42a27.84,27.84,0,0,1-2.185,8.84q-2.044,5.173-8.035,9.17t-17.831,4q-8.459,0-13.321-3.245t-5.638-6.583a39.455,39.455,0,0,1-.917-4.937Q161,128.1,161,126.973V89.26l0.282-4.326q0.423-3.2,1.833-4.232t5.074-1.364q3.665-.328,5.991-0.376t4.158-.141v-1.5H112.369v1.5L118.29,79.2q4.366,0.377,5.849,1.552a6.254,6.254,0,0,1,1.9,4.185l0.282,4.326v37.055q0,8.841,12.687,14.765t36.085,5.925q17.762,0,26.219-5.125t10.572-18.1l0.282-4.7V91.141l0.282-4.514a7.908,7.908,0,0,1,2.467-4.89,9.923,9.923,0,0,1,5.92-2.257q3.874-.375,6.2-0.47t4.158-.188v-1.5Z"/>
    <path id="Color_Fill_5" data-name="Color Fill 5" class="cls-2" d="M124.07,109.471q6.083-7.24,12.376-14.53t9.829-10.909a19.5,19.5,0,0,1,6.791-4.843,23.1,23.1,0,0,1,8.063-1.223l3.678-.188v-1.5H131.118v1.5l5.638,0.188q6.2,0.472,6.2,3.009,0,2.165-2.748,5.6t-8.387,9.875q-5.64,6.443-10.431,11.991-5.921-6.207-12.334-13.073t-8.669-9.452a28.473,28.473,0,0,1-2.82-3.574,4.021,4.021,0,0,1-.564-2.022,1.674,1.674,0,0,1,1.269-1.787,21.558,21.558,0,0,1,4.229-.564l7.33-.188v-1.5H44v1.5l3.947,0.282a17.316,17.316,0,0,1,7.26,1.975,40.31,40.31,0,0,1,7.541,6.583l26.641,28.966v17.493L89.112,137.4q-0.423,3.1-1.973,4.232t-5.779,1.411l-9.3.282v1.5H140.7v-1.5q-1.833-.092-4.37-0.188t-5.568-.329a8.23,8.23,0,0,1-4.51-1.411,6.245,6.245,0,0,1-1.9-4.185l-0.282-4.326V109.471Z"/>
  </g>
</svg>
